<mxfile host="app.diagrams.net" modified="2024-01-30T12:53:11.935Z" agent="Mozilla/5.0 (Windows NT 10.0; Win64; x64) AppleWebKit/537.36 (KHTML, like Gecko) Chrome/121.0.0.0 Safari/537.36" etag="yI9b3tyjZ5dZVOL-R2P0" version="23.0.2" type="device">
  <diagram name="Page-1" id="27zqxJaUQ_xXrHy9imjS">
    <mxGraphModel dx="1077" dy="570" grid="1" gridSize="10" guides="1" tooltips="1" connect="1" arrows="1" fold="1" page="1" pageScale="1" pageWidth="827" pageHeight="1169" math="0" shadow="0">
      <root>
        <mxCell id="0" />
        <mxCell id="1" parent="0" />
        <mxCell id="vyngwg04Lc276Ec5gBA0-1" value="" style="rounded=0;whiteSpace=wrap;html=1;" vertex="1" parent="1">
          <mxGeometry x="145" y="180" width="190" height="280" as="geometry" />
        </mxCell>
        <mxCell id="vyngwg04Lc276Ec5gBA0-2" value="Application de modÃ©ration" style="text;html=1;align=center;verticalAlign=middle;resizable=0;points=[];autosize=1;strokeColor=none;fillColor=none;fontSize=15;" vertex="1" parent="1">
          <mxGeometry x="140" y="150" width="200" height="30" as="geometry" />
        </mxCell>
        <mxCell id="vyngwg04Lc276Ec5gBA0-6" value="" style="shape=image;verticalLabelPosition=bottom;labelBackgroundColor=default;verticalAlign=top;aspect=fixed;imageAspect=0;image=https://cdn-icons-png.flaticon.com/512/969/969438.png;" vertex="1" parent="1">
          <mxGeometry x="200" y="210" width="80" height="80" as="geometry" />
        </mxCell>
        <mxCell id="vyngwg04Lc276Ec5gBA0-7" value="" style="shape=image;verticalLabelPosition=bottom;labelBackgroundColor=default;verticalAlign=top;aspect=fixed;imageAspect=0;image=https://cdn-icons-png.flaticon.com/512/969/969438.png;" vertex="1" parent="1">
          <mxGeometry x="200" y="340" width="80" height="80" as="geometry" />
        </mxCell>
        <mxCell id="vyngwg04Lc276Ec5gBA0-8" value="Serveur FMETP_Stream" style="text;html=1;align=center;verticalAlign=middle;resizable=0;points=[];autosize=1;strokeColor=none;fillColor=none;fontSize=10;" vertex="1" parent="1">
          <mxGeometry x="175" y="290" width="130" height="30" as="geometry" />
        </mxCell>
        <mxCell id="vyngwg04Lc276Ec5gBA0-9" value="Serveur Socket C#" style="text;html=1;align=center;verticalAlign=middle;resizable=0;points=[];autosize=1;strokeColor=none;fillColor=none;fontSize=10;" vertex="1" parent="1">
          <mxGeometry x="185" y="420" width="110" height="30" as="geometry" />
        </mxCell>
        <mxCell id="vyngwg04Lc276Ec5gBA0-11" value="" style="rounded=0;whiteSpace=wrap;html=1;" vertex="1" parent="1">
          <mxGeometry x="485" y="180" width="235" height="280" as="geometry" />
        </mxCell>
        <mxCell id="vyngwg04Lc276Ec5gBA0-12" value="Application de jeu" style="text;html=1;align=center;verticalAlign=middle;resizable=0;points=[];autosize=1;strokeColor=none;fillColor=none;fontSize=15;" vertex="1" parent="1">
          <mxGeometry x="532.5" y="150" width="140" height="30" as="geometry" />
        </mxCell>
        <mxCell id="vyngwg04Lc276Ec5gBA0-15" value="Client FMETP_Server" style="text;html=1;align=center;verticalAlign=middle;resizable=0;points=[];autosize=1;strokeColor=none;fillColor=none;fontSize=10;" vertex="1" parent="1">
          <mxGeometry x="520" y="290" width="120" height="30" as="geometry" />
        </mxCell>
        <mxCell id="vyngwg04Lc276Ec5gBA0-16" value="Client Socket C#" style="text;html=1;align=center;verticalAlign=middle;resizable=0;points=[];autosize=1;strokeColor=none;fillColor=none;fontSize=10;" vertex="1" parent="1">
          <mxGeometry x="530" y="420" width="100" height="30" as="geometry" />
        </mxCell>
        <mxCell id="vyngwg04Lc276Ec5gBA0-22" value="" style="shape=image;verticalLabelPosition=bottom;labelBackgroundColor=default;verticalAlign=top;aspect=fixed;imageAspect=0;image=data:image/png,iVBORw0KGgoAAAANSUhEUgAAAfQAAAH0CAYAAADL1t+KAAAAAXNSR0IArs4c6QAAIABJREFUeF7snQl8FPX5/3d2k2wOEsIRpNRa76IGrdZqW9uftVZFrVoBgQCBHNw3CYd4FJBTcsgVbpJNuA+PWuvVCl6tre1fi1c9iraViqKohJx7zf/1LPPEL8NudnZ3Znd297Ov2oTszPd4P9+Zz/d5vpdk0fSRLBaLrOnKqFxksuJEpc7IBARAAARAAAQ6IUDSiA8IgAAIgAAIgECcE4Cgx7kBUXwQAAEQAIHYEDBbsBiCHpt2gFxBAARAAARAQFcCEHRdcSIxEAABEAABEIgNAQh6bLgjVxAAARAAARDQlQAEXVecSAwEQAAEQAAEYkMAgh4b7sgVBEAgSQnIsixJkmSidcBmN4TZpp6ZlxcE3by2QclAAARAAARAQDMBCLpmVLgQBEAABEAABMxLAIJuXtugZCAAAiAAAiCgmQAEXTMqXAgCIAACxhLAaLGxfBM9dQh6olsY9QMBEAABEEgKAhD0pDAzKgkCIAACIJDoBCDoiW5h1A8EQAAEQCApCEDQk8LMqCQIgAAIgECiE4CgJ7qFUT8QiHMCmCgWGwOCe2y4R5IrBD0SergXBEAABEAABExCAIJuEkOgGCAAAiAAAiAQCQEIeiT0cC8IgAAIgAAImIQABN0khkAxQAAEQAAEQCASAhD0SOjhXhAAARAAARAwCQEIukkMgWKAAAiAAAiAQCQEIOiR0MO9IOCPANb7oF2AAAjEgEAMBB1vuxjYGVmCAAiAQFwSkGVZkiRJjsvCR7nQMRD0KNcQ2YEACIAACIBAEhCAoCeBkVFFEAABEACBxCcAQU98G6OGIAACIAACSUAAgp4ERkYVQQAEQAAEEp8ABD3xbYwaggAIgAAIxA2B8CeOQ9DjxsjxXdDwm2h81xulBwEQAIFoEYCgR4s08gEBEACBJCaATr3xxoegG88YOYAACIAACICA4QQg6IYjRgYgAALwztAGQMB4AhB04xkjB7zN0QZAAASSgkBsX3bJI+ix5ZwUTRmVBAEQAAEQiB2B5BH02DFGziAQHwTQ6Y0PO8VJKdGcom8oCHr0mSNHEAABEAABENCdAARdd6RIEARAAARAIKkJxCg8AUFP6laHyoNA/BDAMZrxYyuUNDYEIOix4Y5cQQAEQAAEQEBXAhB0XXEiMRAAARAAARCIDQFTC3qMhiFiYwnkCgIgAAIgAAIREDC1oEdQL9wKAklKIFrd4Gjlk6RmRLVBIAwCEPQwoOEWEAABEDAvAXS2zGsbY0sGQTeWL1IHAQtmZ6MRgICJCUTQ/4ngVkOAQNANwYpEQQAE4paA2d7ScQsyuQsei448BD252xxqDwIgAAIgkCAEIOgJYkhUAwRMQwAermlMgYKYgEAUnwcIugnsjSKAAAiAAAiAQKQEIOiREsT9IAACIAACIGACAiYQ9CjGI0wAPDZFAOPYcEeuIAACIBA9AiYQ9OhVFjmZl0AsZoSalwZKBgIgAAKhE4Cgh84Md4AACIAACICA6QhA0E1nEhQIBEAABEAABEInEF1Bx1Bu6BbCHSBgRgJ4ls1oFZQpyQlEV9CTHDaqDwIgAAIgAAJGEYCgG0UW6YIACIAACICA4QS+CZdB0A2HjQxAAARAAARAwHgCEHTjGSMHEAABEAABEDCcAATdcMTIAARAAARAAASMJwBBN54xcgABEIgjAtjkKI6MhaKeQgCCjgYBAiAAAiAAAglAAIKeAEZEFUAABEAABEAAgo42AAIgAAIgAAIJQACCngBGRBVAAARAAARAAIKONgACIAACIAACCUAAgp4ARkQVQAAEQAAEQACCjjYAAiAAAiAAAglAAIKeAEZEFUAABEAABJhA8h4FaICgJy9MPFAgAAIgAAIgECsCBgh6rKqCfOOTADqA8Wk3lBoEQMBsBCDoZrMIygMCAgFsQ4rmAAIgoJUABF0rKVwHAiAAAiAAAiYmAEE3sXFQNBBIHgIYekkeW6OmRhGAoBtFFumCAAiAAAiAQBQJQNCjCDsRs4JflYhWRZ30IoDnQy+SSEcLAQi6Fkq4BgRAAARAAARMTgCCbnIDoXggAAIgAAIgoIUABF0LJVyT2AQQF01s+6J2IJAkBCDoSWJoVDMZCKBnkgxWRh1BIBABCDraBgiAAAiAAAgkAAEIehwbEbuIxbHxUHQQAAEQ0JkABF1noEgOBEAABEAABGJBAIIeCXUMWUZCD/eCAAiAAAjoSACCriNMJAUCIAACIAACsSIAQY8VeeQLAiAAAiAAAp0QkCSLRZa1I4Kga2eFK0EABEAABEDAtAQg6KY1DQoGAiAAAiAAAtoJQNC1s8KVIAACIAACIGBaAhB005oGBQMBEAABEAAB7QQg6NpZ4UoQAAEQAAEQMC2BqAo6lm2bth2gYCCQoATw1klQw6JafghEVdBhARAAARAAARAAAWMIQNCN4Zq8qcIhSl7bo+YgAAIxJQBBjyl+ZA4C8UYAPbZ4sxjKmzwEIOjJY2vUFARAAARAIIEJQNAT2LioGgiAQHACiDkEZ4Qr4oMABD0+7IRSggAIgAAIgECnBCDoaCAgAAIgAAIgkAAEIOgJYERUAQRAAARAAAQg6GgDIAACIAACIJAABCDomBGTAM0YVQABEAABEICgow2AAAiAAAiAQAIQgKAngBFRBRAAARAAARCAoKMNgAAIgAAIgEACEICgJ4ARUQUQAAEQAIHEJiDLsiRJktxZLSXMCYu0EYBgpARxPwiAAAiAQOQE4KFHzhApBCAgy3LuiRMnbF6v1yvLsq9nSV1M5WOlf8uy7A0FIN0byvVmuZbrb5bymL0c1Fji0tBmB6tj+SRJstLzeOLEieY+ffq06Jh00KS0eKtBE0nAC/DMJKBRY1klWZbT3nvvvb7vvPPOWX/5y19+cOjQofMtFotPvJWPRA+jIuZW/r2zMge4JtS222moKlxmwUJgwdKlvk6wa/C9OQhEautA/d5QaqelYxig0+vveTmt7anTt9lsvn6413uy380MuCNutVrlSy655F9XX331KxdccMF/+vbt+14o9cG1+hII9aWob+5ILWEIyLJs/eijjy7YsWPHbfv27Rvyr3/960KXy2V3uVxpYiUVRz1h6q1rReCW6opTnRjwho63s+eVgmWKsLu7dOnivPTSS/82YMCAh2+77bb9F1544fuSJIUUfQu9dIlzh14DtxD0xGkTMa3J3r17B1RUVEx+/fXXr/Z4PJlWq9WSlZVlaWpq6iiXv5dDPAk8BCGmTQyZm4AAibj4X2pqqsXpdFrcbrcv6Jaent58+eWX/33s2LEbioqKHpMkqc0ExU6aIhgu6OS5WSyW9GPHjnVrbm4mj8037uKzvizLqampXh5U1Zu6lvBUOHnGyziu0+m00oceuNTUVHrY2ux2+1c9evRoDKfe/u6RZdm+dOnScZs3b5784YcfUnhdyszM9D30lK/H4znlNn4Z8B9J+PEBARAwJwHFC/fbKafOuN1u9z3jJOzt7e30Tre4XC75rLPOOjx27NjqqVOnbs3JyTlmztolXqkME3TSaovFkvrSSy9d/vTTT//y0UcfHXzo0KFzPR4P6aFNmdRAIRl6o4cSmjGszGGY1/TjnzYboZYlj8fjys3N/fLGG2/8w8CBA39/xRVXvHzuued+FkadxYfbvnnz5iH333//8k8//fSMLl26+DzylJQUn6DT+Bs95P4+PLctnjz0SFjh3hAJxHM4JJ7LrjJTsOeUnnmXy+X7j8bZSdjJW7dare19+vT5fMaMGctHjhxZr6cTEWJLSqrLDRPHjz766OxVq1aN27lz57DPP//8OyTkZOy0tDRLW1ubr1dHL361B6emH2xSc7ILQjA+9JClp6dbMjIy6KFzt7e321JTU5t/9atf7S0vL1971VVXvSlJUgDVpTCK/+eBOgkvvPDCT0tLS9ceOnToEiHq4suPvHMlCnPKz6R6umJX2QSSlNhBTPKc/bYh9fuGOu30Dub3OUXcuEPf3NwsX3zxxW9UVVXN6d+//7MGTSpMcjOdWn3dBV2W5fR33333rIULF969a9euIgrBkpHZ8NR74xmTZHj+HVYxhgCFv0lcWWCpU+VyubxWq1Xq16/fKxUVFb+54YYbXpIk6aQCa/wcOXIkb/r06Q/u3r27KCcnR2ppafH1zJX0falQOI567sEm1mjMEpeBAAhEmYD62fXnQPA19I5XxtIt9N4hkXe73e233nrrvqqqqnkXXHDBoSgXP+my013Qv/76624zZ85csGXLljHZ2dnpra2tvhc6G5oIk5Bzry6YhxnMAw92f6JbNBgfqj89aMScwt/EiyMjKSkpnu9///t/WrJkyfzrr7/+hVBmpe7bt2/wyJEjN0iSlEu2pbSp40b/0b+V5S4+O3f2UtBS/kS3IeoHAvFIgJ5det7JKRPfw/xMU1TQ7XZ7bTbbF7W1tVMKCgr2wks31tK6C3ptbe2IsrKyVU1NTd1IONgz5MlQ/IJnoye7IBtrXoslOzvbcvz4cV82JLL08HG0hGxA66AHDRrUUFdXNzs7O/uolvJQuH3cuHGrNm7cOCkjI0OiTpvomdODzBPi1GNwor3VE2605I1rzE0gsWL9iVUbI1oOv8dZ2Ok9QO8Xev4VQaff5TFjxlQsX758WW5u7ldGlANpniSgq6B/9tlnZ0yYMGHNY489dmd6erpNmV3td7YzZc6NAMYwngCNa5PnrExY8c1lIP4UEs/Kyvqyvr6++Pbbb38imJdOqxYOHTp08Z133rn5vffeu5pKzh45dRbYQ6cHXT1HQvTGWdj9duj0WpRpPFbkAAIhEoivxh3M8aJnnt4l6qE1EnZ+H9hsNs8ll1zywrp168qvuuqqf4QIDJeHQEA3Qacdwl599dUfXH/99Y+3trb2JIPSy5q8N/VSJfbM1KEaf+UO5sEne8g2GB/qLdPDxh+2BbOn761Wq3vSpEmr77nnnnl5eXknOms/5J0/9thjdxQWFm5vamrKpPSoJ05j6BwFoLEzesipQ8fRAPou2W0VwnOJS0HAFAQCDZeJkTdeiy4OpXbt2tUXGaT3AL0PzjjjjE9WrVo1ftCgQb8zRcUStBC6CTrxWbly5fiysrIau91upTFVMjTNaBcFXd3jY2Ghv9PLn66lBkC/+1vD7AvZn1SHBDWJ/2qJDEUR514wzzKlf9N/9HCR56xmT/zob+RJ00964FpbW+Uf//jH+/fu3Vv87W9/++Mggm7dtm3bkDFjxtR6PJ50JWzfIdaifXmSDIu7es05Qu5J1YSTrLLx5YkHMg5H3Djaxh10HrqjZ5ijfhxxFcfWORJLy2arq6vHz5gxozbJGkJUq6uboNMGIzNnznywqqpqakpKikRG5lCMvxqxoPCmBPSTxYGuF2fA+/PsWNR48lVUqUUxMw5ni5MIuSfMEw1zcnIsjY0n94oh5vSw8XdiaJvnL7DIsw3Igz/vvPMO/e53v/v1xRdf/Faw6m3btm3E6NGjN3s8Hjt3IMR7+IGm9HldKl/HHbVgobxgZcD3IBAtAsk8ks7et8Da50mlp6d7PR6Pb6N3dhxOEXTJaiHXix01j8fjraqqmlJWVrY2WnZLxnz0FPS04cOHr9+xY0eRzWajjUx8L3P2ssXZziQo7I3zxDm6jiZw0d9pcxL23Fm81LOlWZSCrWOPd6MyJ7GzY7VZLVbp5A5rxIeiIPzg8CRE9ooDheSZH/ew8/Lyjv3xj3+88bLLLnstGLOtW7eOHDNmzEav12sXlyGqJ7zx7PqcnJxPzz333P8oITg3HehAUygkSUqhXaWC5aee66E+rCWcnfsM3EVQS324yqFc22ngRAPDyC7R5nDqVZ9IyqrbOy2SQvi5N2Q24cwI13LYkapsnfJSnlVPSkoK7ehJ7xl68bgyMzO9b7/99nknTpz4jsvlsolDedyhFyfMKYI+sby8fIPOXJGcQEC3xk8eekFBwfq9e/eOIkHnMAyvM2fjqkO+HB4WJ1VQT4/HXqis4sx49cSqYGPIiWBt7txwD5iZ0TpvEnOevc5sxc4QC7yagzgGRun26NHjyP79+2/Jz88POmll27Zto0pLSzeQzUW7qdNUIgCeoqIiR3V19T1tbW0nt62jmXder5deCi0tLTrt/dpssViy4s7cRnUs4g5EnBU4nE5kOFXUs32EW2YqAz+rNpvN5nK5XE6nM7W+vn7C0qVLpzmdzhzx3UP1pGdfFHR63quqqiaVlZWtD4cD7tFGQE9BzyouLl7jcDhGpaam+jx0FmP6Kb7suWg8hkqePBmfx2moM0A9QrpNXL8upqf+XVt14+8q9Ri4Mgvdyh2ltLQ03he/Y/IbP0z8kPmrNduDOwe5ubn/e/nll2/p27fvG8Eo1dfXj6LDF2jvGH8bx4idNloWV1JSsnnLli1jg6WL70HAzAS0BSnMXAP9ykae+sKFC2cvXbr0N06nM0N02Ph9L74HyEOvrq6eOmPGjBr9SoGUTnPU9EJCO8SNHTt23aZNm0bRGDoJujjpSfSkRaHhrUnpe2XsV87JyfnykksuefXcc8/9d3Z2dguFnuijeHwd52nTHvDUCfDjfQYMb4k93nB7rOr8NPailTLx9vUnD6cJILYdf1c6NzR0IbvdbuogezMyMjxff/11l6NHj5711ltvfe8///nPRbRnu81mS2luJk/15Fg63auOjIgPG+dNHn52dvbnL7300g35+fkHg7UJEvQxY8bQpjJ2igCwPdneqgeZBH3dli1bJocTQgxWFnwPAiAQfQKyLNuWLl06Z+HChfeRoIuTm8XwO0/ApfdXVVXVZIyhG2srPT30NArD1tbW+jx0MeSuDouL47f08uej984666z/3XDDDXvuuOOOF6+88srXv/Wtb9EmBL5z+ZQPC51Y7pDHpoxFaljq1BOgSShUd/dnn32W6vF4ujc2NuY+8cQTP9m9e/ewv//97z+j72kZGS0XZPGmn6Lo8r/pbzy00bVr18/+/Oc/36jVQydBt1qtdgr580cdGVC2/HUOHz58S21t7VRJkkRbBgSlROWTxa6GNRgkHFsCidyOZVlOIQ99yZIl9zudznRebSO+Z8ip490jIejRaYu6CjptBbpz585RtE84eW5iuFisDu/tTt8r13l/8pOf7C8vL68kMZck6aQa4aOJAD1cH3744Tlr1qwZuWnTprKmpqaM9PR0X6dKHPpQh+/54aOfPXv2/PTll1++Saugjx49eoPNZjtN0MXOgzLm7x49evT6DRs2kKBDpDVZFBeBgLkJkIe+aNGi2YsWLaKQu2/5qriihkovzv1RBH1KeXk5Qu4GmlZXQS8uLt5AY+gUcudZ2fRSJ1GhncpobTovR+OT1xobGz0/+clPnq+pqZl5+eWXB52QZSCLuE/66NGjvSsrKyeuXbt2qtPp7MpbMLKos6CrVxzQv/Py8j7dv3//Tf369dM0hk4eOo+hdwaOhhXGjx+/ev369dPiHjAqAAIg4CNAI6CLFi2ikPs8t9ttF4f2xCXJoodeWVkJQTe4/Rgu6Op1jGxs/pmfn///li5dWnbjjTf+WWtI1mAmcZs8PWRHjx7NW7JkSfnKlSun2e32NKoMLy0TJybyA8jj3kYKOm0HvG7duqlxCxYFBwEQOIUAe+gQdHM1DMMFXZxNzZvAUCiGBKV79+5HKioqZpWWlm43F5b4LQ2J+n//+9+zhwwZsvHgwYPX0GRF8tDF9frsoYsCD0GPX5uj5MlJIJZj9JT3okWL7tYi6DY6gfHkpLipZWVla5LTWtGpteGCTuLBQs7rpZVzs+U77rijbsOGDTN69OhxcpszfHQjUF9fT9uz0m5uXXj4gxL3t27f6JD7uHHj1m7YsGGybpVDQsrcyBhPScA6rqRtiSToCxcunEtj6FpD7hB045uLjoLuTSsuLvE7hq6MuXTMtCYB6dGjxydr1qyZPmTIkEcRatff0IcOHbpw0KBBda+//vqPeac1cdKK6KUbLejjx49ft27dOixb09/MSBEEYkKABH3x4sVzH3jgAQh6TCzgP1MdBV1O8zcpTr13N//73HPPfffxxx8v0LIzmYl4hVGU2Lgxn376adaKFSvuXbZs2d203l7tmUdT0GkMfe3atdMwyz2M5pPgt8Tm6UhwqFGoXighd2ViNELuUbCL4YLOdeDQO+9wds011zy/bdu2krPPPvujKNQzKbNYt27dmAkTJtB6cZ+gq0VcXLZm9Bg6BD0pmyAqnaAEwhH0ioqKaTNnzlydoEhMUS1dBb2oqGh9fX19kbhsjWrJx2jSjHfaKjQlJcVdUFCwc8WKFZMxfm5cO9ixY8fgYcOG7bBarb5TkbgzJS5f4+EQCLpxdkDKIJCIBGgMXcukOPbQIejGtwLDBd3fLHebzeYeNmxYXV1d3QxJkk7uVYqP7gT27ds38K677tqrHkNX7zhr9Bj6pEmT1qxZswYhd90tjARBIHYEaAx9/vz5vnXoVArevpuXJKs3loGgG2+rqAg6GZq3ASTxoCP5CgoKHKtXry7r1q3b18ZXMzlz2LNnz6AhQ4bsibWgT5w4cXVNTc10jKEnZztErROTAATdfHaNiaBT9LegoKBh7dq1Zbm5ubRfu2k+iTRJhzz0QYMG7ZYkyRdyV594F+4YOp2HXlpaulHrTnEQdNM0bxQEBHQjAEHXDaVuCekq6MXFxescDkexOIYunrzDh3fQEaBDhw5tWLVq1TSMoetmy9MS2rt374C77rprjwkEfVVNTQ0Nr8R44bRxrJEyCCQbgRAFnc5Dn4aNZYxtJYYLOhVfOaSj49B7EvmCgoL66urqyb169WoytorJmzqF3AcPHkyC7tfOKg/9yP79+/tr2cs9DA8dgp68zRA1T1ACEPQoGTaEsHFUBZ0nTdDP4cOHQ9ANbg87d+4cVFBQ4BtD97cOncPwyqQ4wwR9woQJK2l4BR66wQZH8iAQRQIQ9CjC1phV1ASdJsXxWmgq2/Dhwx0PPfTQFHjoGi0VxmW7d+8eOGTIEN8sdy2CfuDAgZvz8/MPBssqVA8dgh6MKL6PLYEQXKDYFtRUuUPQTWUOX2H0FvS1DoejRL0OXfTMOcxbWFhYV19fT2dkI+RuULvYtWvXgKFDh+6DoBsEGMmCQBITCFXQKysrp5r2PPQE6dMZLuji8al2u923fI0OZxk5cmStIuhYh27QS0GZFLdP3PpVPLdYddraEaM89IkTJ66oqakpR8jdIEMjWRCIAYGEEvQw+cXyxDt/RTZc0ElAUlJSOvImMafPiBEj6latWjWje/fux8NkiduCEKAx9GHDhu2meYmdXcpj6BB0NCkQAAGtBCDoWklF7zrDBZ08dPo4nc6OddC0sUxhYWHtsmXLpvXu3Tuwh54gYZDomfPUnB5++OHbaWMZWZbt/s5AV89yh6DHylLIFwTijwAE3Xw2M1zQxW1G+aQ1u93uvu222x4bO3bs+tTU1HbCQmFhWZZtVqvVSx8lTEx/87t2WZzl5e+alJSU0+7zer26roMOVLYg3rDmMgRabiamzxEPJQqS4nK5bJIkedLT011//etfr507d+5sr9fbjbZhZAGn+8V/s4f+/IEDN19iwKQ4hNzN9+AnRInQ4Y+pGSHoMcXvN3PDBZ3GzUl02EMkISFhlySp3e12p9Ea9UAfvsd82KJSIs3Cb7PZfHak+QlK50jOyMiwtLS0uNPS0tKIuSjgPEkRHnpU7IhMQCAhCUDQzWdWvQX9tJ3i2MFm75wQUBg+MzPT0tbW5hN7FnW1F8lHrpoPW3glIoXWDbhSBN4jn9mlpaV1iDcxp9PtxI6ReNJauILe0NBQOHr06E0hbP2KSXHhNRncBQKmJaAI+m/cbne64kj43j0BDmehneKmlJWVrTVthRKgYLrpiyzLaeqtXz3kjVutHQezsNiwyFCYWDmsxYeSPUlx9nWAiHsCoNenCrwLH7FksaaUibG47r+z3JSQ+ycHDhy4Rcs69FAFHevQ9bE1UgEBMxGIWNAxZKKYUz8Qugq6v/PQSVRIbGhSHHvniufdmpube5ym/Vut1laaie31eik8TGWiMfSO3p7OjVhzKDuMfI1MW10cn+3IC29vb5ftdrtvvkF7eztFP+SUlJRmSZLSDx8+/F3uPbOnrvbYjRJ0HwxZliHoYbQk3AICJicQsaCbvH7xWDzDBZ3D5uoJWTfffPNjixcvrnQ6nV6bzdZOk9hoTF3x1L30b2WinE8XtEwQ02KAcCayBUvXiDT95RkoH15JoAi6ze12p2ZnZzv/8Ic/XHvffffNd7vd2eSx04c8evbq+bxiowRd0XMIerAGlOzf6+egJDvJqNZ/0aJFdy9YsIDOQ0fIParkA2dmuKBzGJgnbJFHmZqa6hk6dGj9kiVLpvTp06dFlmUrncCmCIBPx03CJ66Kod7k4Le//e3td9111y6Px5OhnhQnLmMLdR163IfcISBx1a5RWHMSgKCbzy56Crq9uLh4vcPhGCVu/coT3lR7ucvDhg2rN+N56OYzUfglor3chw4dukuSJN/OPupVA+HuFBf3gh4+UtwJAiCgEICgm68pGC7o4qQ2Cg2Tp+jxeLwFBQWOmpqaMuwUZ1yjeOSRRwYMGDDglK1fiT9/IOjGsUfKIJDoBCDo5rOw4YLO47XibHYa66WtXxsaGqZLknTCfFgSo0SPPvrowDvvvJO2fqXNZjp26lPv5x5qyB2nrSVG+0AtQCASAosXL54zf/58mqODMfRIQOp4r+GCTjPcFa9cXEYlk4e+atWqaXl5eRB0HQ0qJqWE3Ok8dN/uPaKo+9spDlu/GmQIJAsCCUgAgm4+oxou6OLsdl53TluTDhs2bKvD4ZiC41ONaxQ7duwYPHz48F28n414Jnokk+JC9dDNvfWrXjPk9ErHuPaAlEFATwIQdD1p6pOWwYJOW5FKHcukhPF074gRI7ZVV1dP6tWrF85D18eWp6Wyc+fOIQUFBTs2OL3nAAAgAElEQVQDHZ/KXrvRIXdzC7pB8JEsCOhFwKR9xUWLFs1esGDBAoTc9TJ05OkYLOgntwHkiVi8Jt3j8dBpa1sbGhomwUOP3IiBUti1a9ddQ4cO3e1P0MV7WND379/fv1+/fm8EK1FieejBaovvQQAE/BGAoJuvXegq6EVFRevq6+uL1MvW/Ai6pbCwsKGqqgoeuoFtAoJuIFwkDQJJTgCCbr4GoKegpwXa+lXckYwPaYGgG98Ydu7cOaigoGCPVg890klx/g6foRUNCLkbb2vkAALRJgBBjzbx4PkZLuhUBHEtOgv6yJEj6ysrKydjDD24kcK9ItqC7q+cJOiTJk16aM2aNTOxA2C4lkzM+0w6NJyYsA2oFQTdAKgRJhk1QeeTvwQP3UHH6UHQI7RgJ7dD0I1ji5RBINkJLF68eNb8+fMfwKQ487QEwwWdJsWJG5mQoNMZ6IWFhbVVVVXTIOjGNQajBD3UrV/hoRtnY6QMArEi0JmgWyTJInu9vr0vSANod1Cch268paIm6KKHTid/jRw5sm7VqlXlubm5XxlfzeTMgdahDxs2jPZy7ziszt/58qEuW4OgJ2d7Qq1BQCQAD9187UFXQS8uLl7ncDiKxVnuPIbOh7QIIffNysYybebDkhglClHQPzlw4MAt+fn5B4PVHoIejBC+B4HEJxCqoNOcqfLy8nWJTyZ2NTRU0D1eryUtNdXidDp9NUxLS6PQC/0nFxUV1dbV1U2xWCxtmCxlTAPYvXv3YNpYxuv1+rZ+pQ9v/+pnpzjDBB2z3I2xL1IFgVgSgKDHkr7/vA0VdN4vnLxy8tBJTEjcU1JS5AEDBjw8a9asii5dunxN8WCr1UpnovvK43K5fAJEHQBZlr85HiwCfjTbWn271r8JYqiJl790OY3U1FRdz3onnjYC/I1gS8TP7Xa7X3jhhV9Nnz59iSzLqVx9taBzBCUvLw+CHkH7wq0gkGyz9iHo5mvzmgRKS7FlWU7zF3Kn/dtpEpx42hoJfV5eXuO55577EQm2LMsk4B2CzoJInrtw3KdYVi3lZuH0/RTTVOpzyvd0iVBPteiq89OSvy9bLeyUvdb95U9/4/86NFtIU7LZbFav1yuRF26z2dypqakeq9VKTG2fffZZj3//+9/nccdK9NLFs9GVMXTDBB2T4jS2AlwGAnFEAIJuPmNpFaagJe9M0GkSHHmG5EiSePBGM+S1k9h39hEPFAlaiCS9wN9EN0JBnSn2wLljJJ6BzgfnQNCTtOGg2iAQAQEIegTwDLrVcEFnz5yXr/F+7spSBp/Is+iovUYWf4PqnjDJMkM+zY7nLGRkZPg6TCTmoqCLnHn1gZEhd3joCdPUUBEQ6CAAQTdfYzBc0HnsnD1x+jf/Z7fbj7e0tHSxWCx0LBuJjk2WZRpKp5AxlY2G1s1HLfISaQ3FB8qpw26CUHttNpsvPE8inZGR4WxubpatVmsXfx2jaE6Kg6BH3mCQAgiYjUCogk5nd5SVla03Wz2iWR6j51kYLugc+mVBZw/9qquu+vvAgQN3paWluWjsVxnnTaGxbpvN5qVxYRJ0cYJZx2Lqk7O1g5ZdvFc9UU09s76ziWyhGtxqtXYIdrB8lehESALPdae0U1NTfasGlPkGXo/H45uLkJWV1f76669fvWHDhmJZltMRcvdnRaMfr1BbDq4HgfghIAi6nV/J9J5hJ04cWlU2lkl6QTfaukFFUWsBAo2hc2id0klPT/eFgN1utzxq1ChHdXX19B49ejQqouYrC5awaSUe+DqaZEhRjocffvjOwYMH7/Z6vafMcld4+xJAyD1y3kgBBJKRADx081ndcEFn0eCemzKm7h0+fHhtfX39NEmSWsyHJTFKpGz9ultZEuibkChOhMOkuMSwM2oBArEgAEGPBfXO89RT0O3FxcVr1TvF8bpnFnQlDEOC7lixYsUM9tDNhyb+S7R9+/ahw4cP386C7m9iHDz0+LczagACsSAAQY8F9RgLOk9qUwm6Z9iwYXWrV6+e1a1bt6/NhyUxSrRjx46Bw4YN28MzC9XL2+ChJ4adUYskIGDC6R4QdPO1u6h66OwN0vjusGHDaletWjWze/fux82HJf5LRKsE9uzZM2DIkCF7aCM+Zi/WDIIe/3ZGDUAgVgQg6LEiHzhfvQW9xuFwlKgPZyExEcfQSdCHDx++paqqqgzHpxrXKHbv3j0Qgm4cX6QMAslMILCg2+j01FM2EKNZ7jicxfjWEjNBHzFiRG1lZeUMCLpxRt61a9eAoUOH7hU9dPbKKVd46Maxj2rKJgzHRrX+yCwmBEL10CHoxpspZoJOIffq6moIuoE2VsbQSdB9S9fFWe4QdAPBI2kQSAICEHTzGdlwQedZ7nRsKk2QU0LvNIZeR+vQ4aEb1yiUkDsE3TjE5k0ZXrt5bZMgJYOgm8+QURF0rjaJOe07TjubjRo1qraiogKCbmCb2LNnz6DBgwfTpLhTNtbzN9sde7kbaAgkrSKA3kYiNAkIuvmseJqgK3uph7QVqRK+tRcVFa2pr68vFSfFiTu0QtCj2wCUjWVCEfRb8/Pz/xGslA0NDYWjR4/eZLFY7HSSXmcf2p4We7kHI4rvQSD+CEDQzWczXT30EATdMnLkyE0rVqyYhWVrxjWK7du33zV8+PDdoofu76hV4fhUCLpx5kDKIJBQBCDo5jNnzAS9sLCwduXKlWUQdOMaxa5du+4aOnSo7oK+devWkaWlpRsj9dAReDXO9kgZBIwmsGjRopkLFixY6Ha70ykvcXky/04/lfM8sGzNaIOQDfTKQ5blTkPuorFpglxhYeGWlStXlkPQ9bLA6en4G0NnD129fE0ZQ9fkoesl6MbVHCmDAAgYTQCCbjTh0NPXVdCLi4tP21iGx9BZ0GlSHJ24VlhYSCH3mdjLPXSjab1DFHTuQfPSNU5DtZc7BF0rXFwHAklOIFRBr6qqmlJWVrY2ybEZWn09BT1NOZzllJ3iAgn6yJEjN69atWp2bm7uV4bWMIkT37Nnz5DBgwfv5LOKxbXoySzoCPUn8UOBqutGAIKuG0rdEoqVoHuUkPtsDrnT7HqLxWK1WCxenIkenn3VKxTUgs6pihPj4KGHxxp3gUCyE4Cgm68FGC7ofNoah3pTUlJ8m8tcdtllfx07dmyDxWJp9Xq9qbS8iU8F42M++VoR2ykLqjXwpHTVl/n7m4akNF+i7pDokR/XW+n4+MoisLC2tbVZU1NTbRaLxUP5p6ene1955ZVrtmzZMkzpKHWUH4Ku2ZS4EARAIAABCLr5mobhgk7ikZqa6qs5r1lOS0vz/W6z2Vppn3FZlm2KyPh03ev1kqfumzXpb5mV+TDGtkTUabJarTJNNmTBz8rKaqOOkdPpzFCPm4ueOjz02NoOuYNAvBIIddkaxtCNt7Thgi7Obrfb7Za2tjafSJPIk+Dw1rBUVfo3iw+EXJvxeTtdXh5CnSWadEgdJopw0N9J6DnqwbzFfd1DXYeOWe7abIOrQCCRCUDQzWddwwWdw+YkKvQ7iQ3NdM/JybG0tLT4hIfD8nQNCxOJjG//d5vVYgl53zrzgTaqRMSSxZqY0b+JodPptGRnZ1va29t9HOk/+hBr7mT5OW0tIWe5YxKcUa0P6SYzAQi6+ayvq6AXFRXVqLd+JdEgr5EERvQYc3Nzj2dnZx9RJnKR2qS43W6JBMdms8ksOixW5kOnrURaJ/h5vd6A3Rar1RrQTl6vVyKuxJl+d7vdclpamjszM1M6evRoVmNj45k0hJHMgq7NUrgKBEAgFAIQ9FBoRedawwWdPEb6sGeu7OfuHTFixNYHHnhgYZcuXb5ITU21t7S0SDSAnpWVJXu9Xp872ckEuHDLHSVfP9tisZzozILhlt9vmh6Px93W1pZqU2BnZGR4W1tbW5588skhpaWl62VZThGHN5LNQ4/Oo4RcQCC5CEDQzWdv3YRFluW0QB46eZCkNeRFkqdOM7FHjRrlePDBB6f17t272XxYEqNEO3bsKBg+fPh23hFQPCgHY+iJYWPUIj4IJOKwDwTdfG2vQ9DDPWWNqxRI0GnymyLifHQqTYjzjBgxYnNtbW25JEkQdIPaxc6dO4cUFBScsrEMZaXe/hWT4gwyAJIFgQQmAEE3n3EN99DVgq4IijxkyJDN69atm4Od4oxrFPv27Rt411137VV76J2ch56Qk+KMI4yUQSB5CUDQzWd7wwWdxYNnXytrpeURI0bUrlmzZhYE3bhGoRb0QDnBQzfOBvGacqQRu3itN8qtnQAEXTuraF0ZFUEXjtDriNCXlpZuWbZsWVleXl6ns8eiBSIR89m9e/dAOj7VYrGcnJkY4ANBT0Tro04gYCwBCLqxfMNJ3XBBpwlxvEMcFZD+7fF4vEVFRb5Jcb169WoKp+C4JzgBOg+9oKCABP10O9N8f+WvEPTgLHEFCCQKAb0m6CWaoCdCVEpXQS8uLl7jcDhGp6Sk0BI034YnfFwqPQy0xpzWpNNucQMGDNhVV1c3qWvXrl8myoNitno8/PDDgwYOHLgn0PI/2uVekk5OksN56GazHsoDAuYmEKqgV1RVTZmpw/GpenVIzE03vNIZLugk4r4d36xWn3Cwx37dddc9vXfv3tE9e/b8X3hFx13BCNTW1haUlJRsDyzocsd++RD0YDTxPQiAgEggVEHHXu7Gt5+oCDp56mphv/DCC9/Yu3fviEsvvfRN46uZfDnIspw5bdq0RatWrZrub48enqwYjcNZJk6cWF1TUzNL6655yWct1BgE4o8ATlszn810FfSSkpLVdXV1Y8SQO1WZJ8XRbnEUciePPS0t7ava2trJBQUFO8yGJRHGUv773/+eN3To0A1//vOfr2cbiJwh6GZrdShPMhBIpHAxBN18LdZwQecDQ8hDp8lxdOIaHRhit9vla6+9drfD4ZjSp0+fL8yHJn5LJMuyfdOmTQXTp09f09bWlkU16ez0OqPH0OGhx29bQslBIBABCLr52obhgs6T4sST1vigkDPPPPNoRUXFzKFDh9I4r9d8eOKvRCTmhw8fPuuOO+7Y9Nprr/0fR0v8nYkerdPWIOjx145QYhAIRgCCHoxQ9L/XVdCLi4tXORyOsWLInSfB0Y5xfC43hd2VpWyefv36vbpy5cqy66677i/Rr37i5fjRRx/1XrFixcz169fPcLvdVp6MqBb0aO7lrlXQEykcmXgtCzUCgVMJhCrolZWVk8vLy9eBo3EEDBd0ngxHoXYaQ1fGz301on9TNPgXv/jF4ytXrlxw8cUXvyFJ0smDu/EJiYAsy1aLxZKxdOnSSatXr57+5ZdffosSUHbmOyXkHu293LUKekgVNupi9CqMIot0E4wABN18BjVc0KnKvO0rbzBDIs9/Jw++tbWVRP3348eP33TXXXc9K0lSm/lQmbtEb7311mXbt28ftGHDhlISc+LK++j7C7eLtRHG0G/Jz88/GKymW7duHVlaWrrRYrHYxU2D/N1HR+LGlaAHqzy+BwEQ8BGAoJuvIURN0BVv3LcOnZax0X88rt61a1dLY2Oj3KdPn4/uvPPO3/bv3//5q6+++m95eXlHzIfMPCWic85feeWVq1577bUrd+/efcurr756rcvlSs/IyPBFP2jyIYfcOyu1IuhHDhw4cLNBgl5VU1MzG8vWzNN2UBIQiJQABD1Sgvrff1LQdQgz0vGp/sbQeZ0zT8Dic9G5KhSKp53jMjMzSeQ9LS0tVhLy/Pz813v37v1J165dW9PT05tzcnKas7KynCkpKbLX65U8Hg/9J9tsNtrE1Pchb5B/F8VD/LvVau24xt99WhGHK060JE7MQ9z0heqlzp+/5/uozo2NjTlHjx7t+dVXX/X86KOPzn///fcvaGtr62Kz2aw0P4E6SyTmxJR+avTQYyPoOrQ9rTbDdbEhABPHhrvRuSadoMdBQzbcQxc9RBJ3nuFO4WAK17LH7utXSJIlPT3d0tzcTJ4lCTeFjWmgXabvvF6v1ev1+gSZ0qX/6JpOPqeJt9GNXO/0lTXxVFe3JEk0VkFcbB6PJ4U6AMyAOkbEiAScfvIWu8Q30Ax31Sz32Ai63sCQHgiAQFQIJJ2gR4VqZJkYLugkLor37LekPL5O14nePAm1PyHi9CKrdvzczbvscQeGWTIf4keizZMPqZNEnSbixJ2lQILOnSiE3OOnPaCkIGAWAhB0s1jim3LEXNBZyPknFy3QRijqv3e2YYr5cIdeIvaiuSPDnR4WdhJysdPEEQvenS9Qx8jPTnFGeujY+jV00+MOEDA1AQi6+cwTc0FnJKKgi164v5B6oot4sGYiirvosbPHzasIxMhIoI6QsJc7BD0YeHwPAiDQQQCCbr7GEHNBDxaSDybeyRSCF71qUdTZC2dBF5mKHr3Y/BLPQ4+DGSvme/5RIhAImwAEPWx0ht1oKkEPVbwDiZVhtOIoYWYZaNla4gl6HBkHRQWBBCCQ6IIejy5CzAXdn9fInqb4UwwfJ8CzEHIV1JEI9W5v/iId4t9EARdZag25i40bG8uEbD7cAAIJRyDRBT0eDRZzQT+5clzumNglQvTngau9+GQKuftrYDxpTv2dWuAjFXQxfQh6PD7qKDMI6Esg7gU9Hl3wICaMuaCrBVztiauFiK8PNvaub9ONfWqBOjLiUj81G3/RDzU3rR46BD32bQAlOJ1AAr6T48bMcS/ocUNae0GDCrqysUnQDVqUneJWOhyOceJpa8kmvNrRx/ZKjKHHlj9yB4F4JxCpoKMzpn8LCCroWrOEoGslZY7rIOjmsANKAQLxSiBSQY/Xepu53BB0M1vHwLJFWdBxOIuBtkTSIBALAnoI+skIMJ2vETQIHIsqxl2eugp6UVHRivr6+vEIuZu/HUQi6A0NDYWjR4/eFMLxqRB08zcJlBAEQiKgh6CHlCEuDkpAV0EvLi5+yOFwTICgB+Ue8wv8CPonBw4c0HQeOgQ95uZDAUAg5gQg6DE3wWkFgKCbzyZRKdGpgm6x5OX1hKBHhTwyAYHEIABBN58d9Rb0aofDMREeuvkMrS4RPHTz2wglBAEzE4Cgm886EHTz2SQqJYKgRwUzMgGBOCSgbUHZ4sWLZ82fP/8Bt9udTpWkJcp83DP/zqc+ejweb2Vl5eTy8vJ1cQgkboqsq6AXFRVV1dfXT4KHbn77Q9DNbyOUEATMTMDcgq6tU2JmvuGUDYIeDrUEuAeCngBGRBVAIIYEzC3oMQQTw6x1FfTi4uJKh8MxGR56DC2qMWsIukZQuCwsAsnpH4WFKm5v0k/Q0Vr0agQJJ+i0PYFuldKLsgnTiaagT5gwoXLt2rVzJEnC7hEmbAsoEgiEQ0A/QQ8nd9zjj4Bu2kdbv5aUlFTU1dVNgYdu/sYGQTe/jVBCEDAzgUWLFs1esGDBAkyKM4+VIOjmsUVUSwJBD4Ab0b+otkNkFr8EIOjms52ugl5cXLzc4XBMhYduPkOrSwRBN7+NUEIQMDMBCLr5rANBN59NolIiCHpUMCMTEEhYAqEKelVV1ZSysrK1CQvEBBWLWND5vHTl+NQHHQ7HNHjoJrBskCJEIuj19fUjxowZs1nr4SyYFGf+9oASgkCoBBRBp41l7HRvsI1lSNBnzJixDpNjQyWt/fqIBZ2zkmU5VQm5Q9C184/ZlX4E/X8HDhy4NT8//2CwQkVL0DGcHcwS+D6aBNAev6FNjtySJUtmz58/nybFaRZ0eOjGtlgIurF8/aRujoV18SDoanh4oUa9sSJDEPBLAIJuzoahq6AXFRU9WF9fPx0hd3MaWyxVPAq6+amihMEI8BBdsOvwvbkJQNDNaR8IujntErhUOjn4EPR4MzzKCwJRJtBJSAyCHmVbaMxOT0FPKSoqWg4PXSP5GF8GQY+xAZA9CMQxAQi6OY2nq6AXFxfTLPcZCLmb09hUKnbwoynoEydOrKipqbkbs1vN2y5QMhAIhQAEPRRa0bsWgh491qbKCYJuKnOgMEYSwGxK3enKsmxdsmQJnYeOWe660w0/QQh6+Ozi+k4IelybD4UHgZgSgKDHFH/AzHUV9JKSkmV1dXVlCLmb09hiqU4VdIucl9fzf/v377+1X79+bwQrfajr0DWH3OFJBUOP70HAFAQg6KYww2mF0FPQbSUlJQ9C0M1paHWpVB66nJeXZ5igY6e4+GgTyVFK9Br1sDMEXQ+K+qehq6AXFRUtq6+vL49PD12n9WDh2CgGWUPQwzEU7gEBECACEHRztoOkEHSNeqnxMnMaMtRSQdBDJYbrQQAEmAAE3ZxtQVdBLy4uXupwOGbGp4duTgMZVapIBH3r1q3DS0tLt+BwFqOsg3RBwNwEOhN0m9VKJ7VYvF6v78AWq9Vq8Xg8Xpy2ZrxNIejGMzYghxCDCX4u9yfoL7744i0XXXTRm8EKzIIuWSx2p8vV6eWyLMsYQw9GFN+DQHwREAR9vtvtTqfSBzttrbKycmp5eXlNfNU0vkrbIeiRThWRZZkmxS2pq6ubBQ9d/0YQooQHLYAfQT/84osv3hqKoGv10CdOnFhVU1MzGxvLBDULLgCBuCBA7/slS5bMnD9/PgTdRBbT1UOHoJvIskGKAkGPH1uhpHFGIFLvKA6qC0E3p5H0FHRrcXHxEofDMRseujmNLZYKgm5+G6GEIGBWAgi5m9MyEPTT7KJ3cNuchjdM0FX4aAw9bkLuSeBZmbM1olTxRgCCbk6L6S3oix0Oxxx46OY0Njx089sFJQQB7QRi1wOFoGu3UjSvhKBHk7aJ8jLMQ1fVMa48dBPZB0UBATMTMK+gx66TYwZ76SroRUVFi+rr6++Gh24G03ZehkgEvaGhYdjo0aNrMcvd/HZGCY0hQMeHJvOqDfMKujH2jpdUIejxYimdy+lP0F944YVbLr744reCZQVBD0YI34NAYhOAoJvTvhB0c9rF8FJB0A1H7MsguQOA0WGMXDohYFADhKCbs9XpKujFxcULHQ7H3EAh9+SYP25OQ6tLpRb0Xr16ffz888/fapCHXl1TUzMrmUOU8dEqUMpkJhCK9kPQzdlSoiro5kQQn6WKtHMUiaBv3bq1oLS0tC6EMXQIenw2M5QaBPwSgKCbs2FA0M1pF8NLpYOg06S4dJeGvdwnTZr00Jo1a2Ya4qGH4lYYThUZgEByECBBX7x48ewFCxbM07iXu1xZWTkFe7kb2z7MIOiROpvGEjJ96uHhSxhBN719krmA6G0lqvVp69fFixfPWrBgAe3lbvfNF1FOWKPT1fh34bQ1uaqqampZWdmaRGVihnqZQdDNwCHpyhCJoDc0NAwdPXo0hdw1eegTJ05cUVNTU26Ih550lkOFQSD2BCDosbeBvxLoKei24uLiBxwOB61Dt5Jg8Hm4lDELiDkxJF+pIOjJZ3PUGAT0IgBB14ukvulA0PXlGTepRSLo9fX1Q8aMGePQ6qFPmDBh5dq1a8vgocdN80BBQaBTAhB0czYQfQW9pPgBRx08dHOa+tRSQdDjwUooIwiYkwAE3Zx20VfQT4bcA65DNyeC5CyVT9Al+p9EwyFyKOvQt2/ffldRUVGD1WpNdzqdHQApTZoEwx9lYox3woQJNevWrZuanKRRaxBIPAI0y726urps7ty5C51OZzrVkCbDiY4CD7nabDaLx+PBpLgoNAMIehQgmzELfx76Cy+88KuLLrrozWDlDUXQrVarXFhYuL6urm5isHTxPQiAQHwQIA99/vz5s5YvXz7f6XTaWbz5vULiTn9jofd6vRD0U0xrzAoQPQU9paio6AEczhI3D6SvoORFs4euVdC3bds2qLi4eKtGD10uKSnZsGXLlokYQ4+PtoFSgkAwAuShL1q0aNaSJUvudTqd2Szk/JO8cvqd/iNxh4cejKg+30PQ9eEYd6lE4qGHIugWi8UzYcKE9TU1NZPjDhIKDAIg4JeALMspCxYsuHvp0qULnE6nlZ0D9tRJxPlDv7vdbnjoUWhLEPQoQDZjFiEdn6qKDm3dunVgSUnJNi0eekpKinPcuHFbVq1aNVmSJC/17OmnGZmgTCAAAtoI0PGxixcvvveBBx6Y63a7Mzm07vF4xMifLwLIHnpFRcW0mTNnrtaWA64Kh4Cugq4czjIH56GHY4ro3uNP0Pfv3/+rfv36vRGsJNu3bx9QVFS0XYugS5Lk+tnPfvaX4cOH78vIyGil8Tan0+m22Wze1NRU6rlraoNer7fjOjqImstILxaxvOJ3/Hd/fwtWR/F7GpII5Xr1tVruD3U4Qku9BUZhld+YUb5v6HRWZ3X9IuEf7r2Rtptw8/V3X6RtqLP7aZ5LoLLSdy6Xy0YsyPu22Wyy1Wp1u93utOeee+7m3/72t7fQM8zC7Xa7fWF2cdc49tArKysh6Ho2Cj9paXqZaimDLMupysYysRP08HZB1VK9hLsmWoJOou31etvtdnsLPfXKtpAuSZLSlIffp85+3ijBREi3tptwxtWnQkbzDWZffWqBVCIiwGPgNN3G5XL5ImtpaWk+YT9x4kSWJEmp5JULnniHoNO19LyzoFdUVEwvLy9fFVGBcHOnBHR7aGMt6Mmi5XrV05+gHzhw4Lb8/PyDnbUY8py2bdt2S0lJyT4tHjo/1CTeKSkp5JH7kuffxWVueFZBAATMRUAQ9I4JbvTM0nPME99Us9k7nm9+zpXr5eXLl0+aMWPGOnPVMLFKo7eg03nosxFyN38jCVfQqWZbtmwZPGHChHo6ZYl63/Rgi+vR+XAG7rnTPZ1HrbV0U7RcEw3u0S0Hd3jU/AL9PRoEzJSHskrDTEVKqLKI7wmxYmJ7ZBvQT4rI8buAfqeOe2trqyUrK+v4qlWrppaWljYkFCCTVQaCbjKDRKs4fgT9f4qH/o9gZXjxxRevKCws3PHpp59e2N7e7hs/43EzZROJU8JuEQ5BBysOvo9jApFGaNC2jDe+PxuJy9PUHXd6B2RlZVlOnDhh6dKliyIaK7AAACAASURBVKWlpUXu27fvWytXrpz2y1/+8oDxJU7eHCDoSWr7SAT9yy+/7FpYWFj91FNPjbLb7TZ6oHkyDIfSxQ0m8NJN0kaGaic8AfE5JyF3uVy+Onft2tVy/Phx3+8ZGRnuq6666undu3dP7d2790cJDyWGFdRT0NNKSkoW1tXVzULI3QCL6hzpjUTQqXbLli0bc999962l4XAeQ+M1qGI4WOzd+wsbQ+y1t5VwwuyResDaSxfelZHavzPvMbwS4a5QCJD9uBOvTIClTWR8oXf6KJE754wZMxY9+OCDy2jVSyjpR3Kt0as0IimbUfdC0I0ia/J0IxX0v//9733Hjx+/7u9///u1NAOWQmvNzc2+Ga30kqX/qLcejgiJ6JLxoQzUdCJlacYmGajDobX/GmmHwFRMTNjY1R1y9VkNxI8EncbN6Tv6nZ57EnT6z2azuXr27Hnw0UcfnXTZZZe9Hq6gmxCNqZoOFyYuBV3rw25K4iYpVKSCTns5V1dXlyxZsmThsWPHzqAxMwq700NNPXQSdnqwxReueiIN9+BNgsSUxeAXqFr4mGUwQYvUQ4/3Zy0YH1Ma3USF8teJ5A47FZOWsLW3t/smxtKHnn0SdXr+6e/p6elN99xzT8W0adPWdO3a9UsTVS0hi6KroBcXFy9yOBwzYxByj/y9E3kKcdVAIhV0quy77757zrJlyyY/8sgjExsbG9PpQc/IyOjooVMe9FDzB4IeehMRX57qlyvxDCZYkQp66CUOcofK1QpW/mD5B6tfpOkHyz9Zvlc/u9wueVY7PffkpbOg0/BbVlZW609+8pOn165dW3bOOef8O1lYxbKeiSLosWQYl3nrIei0n/MHH3xwweTJk+e8/PLLhS6Xy0qeOoXe+cPrzvFiDa+ZGCnoWvqwRtstmCAHo+avkyjeY3T5g5Uv3r/vzEPnEDsPs7W0tPjC7Mq4uftHP/rR/srKynuvuuqqNyRJ+uac5XiHYuLyQ9CDGEfLS8/E9g1YtFAFvbMxrL/97W/5K1eunPDYY48NdrvduSkpKSn0cCt7OPvKwEvbxAJF+jKPR+7hlNlut/siHeT18AuTPCF/kwyZtTofMSRK94lnV9O1wYZGQiq3Tg+NIgy+rMXJVxTmJRbsDdLQjrj3Ae9ORvfx3uJcfrS5kCzpNwIkDgNlZmZa2trafJxzcnJo2M3b0tLiuv322x9fuHDhovz8/LdwdkNozCO5WldBLyoqWlxfX18eg5B7JAxifa9Or7/QquFH0D85cODAr/Lz84OuQ1fnRAeuHD16NG/nzp23b9++veSf//xnfmtra6bX66WDWIKGhUMreXJdLdqJz5jmv4lnTquFiv/NnapAwx3iqVhqYY81abHu3I78/Y07Mbzagjo9JDC86iLW9Uik/NVzOsgeJORNTU2y2+1uu/jii98rLCzcM2jQoD3nn3/+RxDz6Fofgh5d3qbJTU9B50rJspzx/vvvf/eJJ5742TPPPHPrxx9//J0vvvjiW16vN81iofer1+dJ0YcOW6GOQCch0Xja61u350jdQNLT073kgXq9Xpm2wqetdzMyMtrpcIzPP/+8h9rT9tPZ6pikxKzJDuylqz1YtagH92jD7Y+evE9rSJwnWvH19JOHc9gjZwGnOtFBQLm5uY0tLS0pKiZsq0DtK2JbCtEss7ThiOskMlTaBLVHOT093WWz2Y737dv3vzfeeOMf+vfvf6Bfv35vS5LUZpqXXRIVRDdDy7KcBg89flqOEYIuCLvtyJEj3VpbW7u//vrr3/N6vdl02hOf+GS1Wq0k6OIJan6EKJS2Gcq1ZjRSx4tfPIGMeXk8HvqVxJyuS8vMzPz6+eef/+XWrVuLW1paMkSRU1eOQu30AuYVCBS+pw+H8DkUb1bvnMrL3jaVlerBHjjvJ84dFKqDshWx8/rrr98/ZMiQ3enp6U6l8xhQXPlUtc5O8QvQaDprd4HFPHAfKBrtWFMnI9BJeMIz7EsnLS3N853vfOfDs8466z+9e/c+asaHK5nKpFsDIkEvKSlZUldXV4aQu/mbkJGCbv7ax38J165dO3769OmVXq83i2zJ/wUSdN5zn0PwvKSQw9TifcEmmp3W+fL52vp91F47dzpovFZZCuWbUc27E4oRB0VkWsrKylYvXrx4bqjH0upXC6QEAtEnoNtzCEGPvvEiyRGCHgm92N+7evXqaeXl5Uu9Xq/PQ/cn6OSZZ2dn017avu/5EB2ZDqvV5KdFr57qDUw4Z3GWdXp6us9bJ6+dBJ0PAaF68dCDEolwzZo1q/rBBx+8V5IkT/RqgZxAILYEaByTIk0RP94k6MXFxUsdDscMeOixNaqW3KMu6NjqyWcWvZ63qqqqqffcc8+DHo8n3Z+g83I38mrpkIycnJwTZ5555gcZGRk05ulUxN03Jk9j8/QOoN+57QhRYbHTf5oDIN6jbnchvFfU7x8ui0znbre3t9tcLlfa0aNHz25sbOzicrlSSNR5EyPfeLrHQ3C5CM777rvvoYULF87HWK6WtwGuSRQCunroEPT4aRYqQbfk5eXRaWthzXKPn1onTkkfeuihSbNnz66UZblTQSc7X3zxxa8VFhbuuuOOOx6n3bpoWWFaWlo7zVK0nYxn++1u8XipntTEcWp/6VKZrFarzedlnGykcmtrK50XkPG73/3ummeeeea2p59++g6n05lO3jhvNUpp0e9K58Y5d+7cFYsWLSJBb9Wz/EgLBMxMAIJuZusYWDYIuoFwo5D0Qw89NOXuu+9e7vV602k8nHSZbMpj4rzBT79+/V6vqamZ8rOf/ewVi8WSKknSN1v3RaGcemVBkwJpCdQHH3xw3ty5cxc9+eSTv25ra/PtTshbDXPdrVara8aMGQ9VVlbOg4eulwWQTjwQ0FXQi4qKltXX109HyN38poegm99GnZWwurp62t13373U5XJl8DgzCRptusIiR0vdVqxYMXXKlCk1NAE8UcaTn3zyyZsLCws3NzU19SEvnQVdaNOesrKy6oqKCpoUhzH0zhoShsLi+0WgKn3MBT3cVazxbAUz1DmAoN+an59/8HS2cfrUx2mxtbRt8tDnzJmzzOPxZPIYOs9k55OvyJa7du0afskll7ytJc14uebDDz88Y/z48Y5nn332JpvNJpGgU4SCPXQS8fLy8qrly5ffA0GPF6uinHoQ0FXQi4uLH3Q4HNPgoethmvDT0NJhCE3Qwy8L7jSGgCLoFbIs23nrUx5P5hnt11577R927txZ2KtXr2OSJLmNKUl0U6XQ+5EjR7rPmjWrZvv27XcFEXTy0L3RLSFyA4HoE+DJtnEr6FpEK/pY4ydHCHr82MpfSaurqyfPmTOHJsXZeXIYbyBDy7tovXbv3r0/fuSRRwZfffXVryaKsFF9P/jgg28PGTJk7+uvv34Fb3/Ly9aoXdOw+syZs8hDh6DHdzNH6UMkELeCHmI9cbmKgB9Bp73cb/Efcgc+sxFgQZckyU4hdgo588Et9DutPacZ4rNmzapYvnz5AxaLpTURRF2W5dSampri+fPnL/3yyy+783ADh9yVdu2ZNQuCbrY2i/IYT0BvQV/ucDimmifkDj8+UBOCoBv/cBmZAwu6xWLpCLnzBivihis9evT438KFC38zZsyYnRaLpS2EteFGFj/ktDmkeODAgZ+XlZU9+M7bb/9Qtlgk3vFOFHQaN585cyY89JAp44Z4J5Dggh7v5jGu/BB049hGI2USdFqH7na77bzfOe9tTrYlb12ZAS736NHj61/84hdPDB8+fG+fPn0+pnPsaY13SkqKTILIH7qHPm63W6LvolEPdR6+HWWUaftiOej3J5544s5HH330pn/+859XKJvh+Ga4U31p/gBNilMOaIGgx8J4yDPmBCDoMTdBbApghKAn8KTy2Bipk1xXrFgxuby83DeGrt77/OQ4suQLw9PWr+Sxt7e3e0ksbTabiwSTzxMXDmfR7V2gIywSd0rOV16lXmnCiX0dW96K69HpGPQZM2ZUVVZWYgxdR2MgKfMT0O0hVvZyr6irq5tinpC7+Q0QqxIaIeixqksy5kuCTmFleu7UB6ywoIvHiooiz4Ko7gj446jlmkj4BzuelevGY+V0PU+AE09Zg6BHYgXcmygEIOiJYskQ6wFBDxGYyS6nZWuzZs0iD10R9G/mi4iCzmeEkwj6E08x5O6visEEN1IswToMFErnD9dL3EhHXIPPG8yQh65sLHN3IkwEjJQx7k8eAroKenFxcaXD4ZgMD938DQiCbn4bdVZC8tBpJjcLOgu3eA8f0MKeOm8NK3q2wSjEQtBFkeeOCJVDbLNUbq4H/V1cvgZBD2ZVfJ+oBCDoiWrZIPWCoMe34ZXDWapoljt5pizo/oSPasriznYP5hnHmo5a1Kk8/gSd/+5H0B+qqKggDz3w1q+Y9BHQzEBzKhq9Tkk0+rnSVdCLioqq6uvrJ8FDN9pskacPQY+cYSxTWLFixUSa5W6xWDJoNrs/QRdD1fw7j5+zEJpd2Kmc7KWL4+iiwKs9dFmWaetXEnSaFJcQO+TFsq0h7/ghAEGPH1vpWtK4FHS4DR1tQBR08tDpP7UXzp55Z165KPD+GlisQ+4s1mIHxF89qR7MQJnlvrKqqoo89G/W5en6BCExEDAfAV0Fvbi4uNrhcEyEh24+Q6tLFJeCbn6sUSshjaHPmTOH9nJPDyboYqHYy2WxDybYRnvw4hCBv4gC/c1mtVpoyp84m19dblHQyUOfPn36yoceeog8dGfUjIKMQCDGBCDoMTaA0dmLL+RAL2+6pmfPnp88//zz2PrVaIPolP7ChQunLV26dKnT6cxQh5/Ff+uUnWmTobbLZ8Fz+5Zl2Ttt2rTV1dXVM+J1ZzzTAkfBTE1Ab0F/yOFwTICHbh6b81KfYB46BN08NgtWEpqg88ADD9w3b968+TabzaoWdC2duGB5xMv3JOY0h4A+vJe9x+ORb7/99ke2bt06Picn54t4qQvKCQKREoCgR0ow2vfrtD29OuQOQY+2IcPPr7GxsceoUaNW/Pa3vx1Ox4eKY+RiSD1QZy78nM13J89up7qmpaX5dsWjT9++fd/dtGlT0c9+9rO/mq/UKBEIGEMAgm4MV9OlKoQjfWXziYBE/zu5vheCbjqTBSzQiy++eM2UKVNq3nrrrcvEXd9EMeebjR4DN5pasP4r1Y88c95Uhrx12ts+LS2tadSoUY7Zs2cvPeussz4xupxIHwTMQEBXQS8qKlpRX18/HiF3M5j29DKIE5D4Rc8eDgTdnDYThNlGa6o//PDD702fPn3J73//+1/ZbDbfLnEs5PEu3uFYgOpMu8nxmfDUnkngW1pa5G7duh0vLS3dOGvWrId69er1qcCStrOPyeEz4dQR94CAVgIQdK2kEvQ6EnkSBQj66QZ+//33L3rvvffOp4nWXq/XK0lSKomq1+uln149moTVavUJC03k4vQobfrParV6XS5Xalpampt2hHvjjTe+vX///l/+4Q9/+FVmZqaNrm9vbz9F0NWbryS6yIvbwLKnTlzod2LTo0ePL/v37//766677rlevXo1uVwuyW63n5Bl2TeZUPXpeB+SucXv+AS4UGxOh+FYrVZrSkqK8+yzz/5fr169PujRo0djKGngWhAIhUD8CnqwWFwoFJLgWvVEKXEtLwT91AYgy3Lqu+++23fSpEl3v/baazfR3iZ0qqjFYkm3WCwtpBeKCPvdHz2U5iRu2arYyEreIwk9iTodY9rc3GzLzs5ua25u7n7ixIk0u91upfHitra2joNK6F5/W7omi6Czp85709MpcxSGJ0Zer9eTm5vbmpmZ2XT8+HF7Zmam1+PxWN1uN3EOxVwhX0vRg9bWVm/fvn0PjRgxYvuIESMceXl5J0JOCDeAgAYCegp6anFx8YrAs9zJAdEtOw1VwyUiAbWg8+5bfIZ0z555n+3f/9ytl1566f9LdnKyLHcpLS1dsHXr1hnk0ak8Nd8/9RJK9Ri4Oi8xpEwzutkj5Q4ZD6OwHdUnrwVbZ54otuaxdBJ06uxQvclDp/H0nJwcy+eff+6rKh8Xy2Pual5G8EhPT6eOhXzRRRf9c+PGjZN++tOfvqhXhMeI8iLN+CWgm8KSVzN27NjVmzZtGsvKzQ+PvzG+ZHnRGN00/G3MoRZy0Rvnmc8if3qp9enT53/PPvvsrfn5+Qe/uT/5tmajJWHPPffc9cOGDav/8ssv+1Ab5r3SxdnkJMT0XaSC4K9jIIo25U0ftiH/zj/VM9y5s6EOvRvdDmOVvshKzYb+Hal9Iq0X2SEjI8PXAXQ6nfLIkSM3rVix4p6cnJxjkaaN+0FATUA3Qf/000+zpk2btmL37t2lqampkhJqOiUkqX7JBBMjmCs4AbXnrb4j2NKlzMxMS3NzM42hH3n55Zf79+3b943guSbuFbIs54wZM2bh5s2bp1itVt/zIU4gVP/baMHoTJjVKxfEsiWuhU6tWbD2H4yD3o6FugtM7YPehfQf5XXOOefQcrqSa6655pVgZcP3IBAqAd0EncKUo0ePXlRbWzuVHAoKddH41Wk9CEm3LEOt6+nXJ8A4vBZPTLyGO1H8N7IThSa7dev2+UsvvXRjfn7+PyIHG58p0BymP/3pT1cNHz5868cff3w+T6xiz08cpuC/6RV6F4mpIwFqoY5UxOLTOuGVOph9jB5DJ0GnSA49Z/TstbW1Oe+///6qefPmzcM+8+HZFHcFJqCbusqybFu6dOmU++67r5o2u6AsOVTJL79wDBHsgQwnzUS6R4uH4c/DFLnSGF/Pnj0/fPLJJ3996aWXvplIfEKpC7XhSZMmLdmwYUN5amqqjTYp4VUAasH1d0BIKHn5uzbQskLRVsGeBy3tIdJymuJ+pTMerL7BeBldF+4E8tI6q9Xquuiii/5ffX39xO9///uvG50/0k9QAgFGQ3UTdMJWX18/ZNSoUdu7du1qI6+P1obyGKAaqxbPMkFNoWu1/G4Yo4y5ckeKw8LqCVh0L71ovF6vfMUVV7ywd+/ekrPPPvsjXQsYJ4mRmL/99tv5t99++25a601c2DNWh9X1bLudpRVsuETtuQfqJMSJCcIqplqwgwl8WJlEcBOVT4wC0Oz7lpaW1nnz5i259957HzSNl55802UisKp5b9VV0J955pn/GzBgwKMulytXkiRaFnLabOBQe8xme0DNZkoxPOuvbLxxDH3HLxZeKkWiReHAtrY2b0lJybqqqqr7unXr9rXZ6hiN8lC4/Z577plXXV09y+VyZdBMaWJLHVPuGIn8Qm3HWuoQaVv3V6ZI09RS7lheE8gOWutthB3VPNhLp8lx9Ox5PB5Xfn7+n3bv3j3l/PPPfyuW/JB3YhHQVdDfe++9b0+fPn3jU0891Z/WyvKhCWrR0fqwafFAEsscoddGPT6uDttyyJhDxOxtkpCTaJFgde/e/euamppxQ4YM2RN6CRLjjj//+c+Xl5aWOt59991LabyTPuIcEOInRjjE9eNmImB2jzXarIIJdijvonDLTnlQm6L/mpqaLDTE5fF4WpYvX14+efLkekmSWsNNG/eBgEhAV0GnsOXatWsLy8vLV6ampua0tNAeHN/MEhZDiGqBCWQWo2cRa20OZo5IsdiwJ0B1EjcZYYbieDB55/RiaWpukn95/S/3ORyOsjPPPPOwVh6JdB0tubzvvvvmLFu2bJ7X603Jysry8aMxdGqzzFIc3mDmkbZPMU2tk920XpdINgpUF38z/cV3TjQEuzPO/MzRahI+t17ZM0D+5S9/+dSGDRtmnHfeee8ng61QR+MJ6CroVNzDhw/3WLhw4YINGzaMSU1NTeOwOx9tyF47h3v54eMHjxo9X0MCZfQsVOMRG5sD8WJx4ZcHz6wlL5w22uCwO/+dSsRzGy666KLXHnrooXtvuummZ5J1f+u33377/JKSkk3/+Mc//i8lJcVKUQtix4Ie7IVtrIWRulYCZly0wo6L2JkWOiGu1atXT5o4cWItbSmstZ64DgQCdnCNQHPw4MFzqqur792+fftwq9WazgIthnt5bSYfd8jiTdfw9dTwA02qM6LcMUkzwrcQdZSYGYfRWYgoxMcdKt5JTKzjmWeeeaSqqmru4MGDG5JVzGVZtq9Zs2bE3Llzq5uamnLIk+Kxc3FjJOamDuFG6qH7a3MRNgmDm7G5S2dw5UNOnsWbhZ3ec9SGlP+8P/3pT/+4ffv20mSNjoUMFDd0SkB3D51zW79+/cg5c+asppckh9pZnHkJB70wxdnEdK8yaaRjMh0JFj6BCRBTYsSnTdGLg8d+lbE6X6eIZ9sKM97lm2++eU99ff3YZD4w4oMPPjhz8uTJ1c8888yAHj162I4dO7mBF7VNevmq54GgLYJAKATESanitrOcRlZW1pf19fXDBg4cSNvBYiw9FLi49jQChgn6li1bRk6fPn3ViRMnuoohYfZwSGSys7OdHo+HTpKSPR6Pze12p3i9Xjomkg6m8A1bq089gg0DEnDTwU70bWZmZnN6err0xRdfZFGHiQWdhV95sbjHjh27dtGiRb/p3r378WTl+s9//vPs4uLidX/5y19uysnJkRobGy1dunTxiTkNV7A3JfIJZV14snJFvU8SoHbEw2L03FHboU4ivd7oebRarc3Lli2bNnDgwJ19+vQ5OekIHxAIk4Bhgt7Q0DB00qRJ61paWnLZM+dwkyLwnssuu+zgqFGj6iRJssmyTGJOR0Z6bDab72c4dQrUAQjn+MNw8g92D3Vegl3D3/PRmp1dT9vsOp1OidKlOra2ttJpUs2HDh367tq1a8va29vtPLGLvQVlf3Lv+PHjV69bt+4eSZKS9kUiy3LXDRs29F+/fv2MN9544wpqP/SipUNZUlNTZbfbzc+I32clBHNqNTuuS1ACNhu95mRyUmx2u92ZkZFxrLS0dPPIkSMdl112WVLu/5Cgpo5ZtQwT9G3btg2ZMmXKxsbGxhwWdD7oggSdzni+/vrrH92+ffvY3Nxc8hBJj3Q5YzpmNGOYsaLnrOvys88+e/2gQYP2NjY2dmPuVDxiT167y+WSR48evXLTpk1zJElyxrDoMc+azsY+ePDgdw4fPnyG1WrNIDatra0pqamp1pPHoJ/8KPw6nhmxkxhKR40rTC94/p3vp01+6G9ieuJ16u9EeOpOq8fjOa3MvD99Z/cFMginF47B1HVQ11tMkxmIf9PC11+nXV3fQIwC1UmLI0DH11ssvuPpT/lwmWnCG6Wj/NtDfkt6errHbrcf/+EPf/geDmoJp0XhHn8EDBP0urq6oRMmTNjQ3t6ew2ujVcIi33jjjbv37NkzGQ1a/8b57LPP3nLbbbfta29vzxA7UsJEL7mkpGTVxo0bZ0qSRGd94wMCpiXAHVbTFhAFi5yAmdcGR167qKRgmKA3NDQMGzdu3Pr29vZsnlwkCjv1wm+44Ybd+/btm5KTk/NFVGqbRJk888wzNwwcOHBvU1NTV56ESNVncSePqbi4eM2mTZvKTbP9pIntQ4JiVPGSdYWBUTz1TlcP28PGelsF6UXVQ3c4HAWTJk3a0NLSkq2EeDvERCkIzbLeTaezfetb3/oc5tGXwJNPPnnzr3/960ecTme6MsTRsY2pIvAyTYqjjS20Cjptj6qUkn+SyHFYN2DYXrhP30qGllpHeJtfrsqLmspv5SiF8jdf/bA2ODTA8XR1NJ1Bpf3THBeKulPbouxpLIeHV+hv9DvF7Sk8T9fRBFczDEH6nfOjlDFQJ5f+niVJ0ol4ahOJUFbDvA4KuU+dOnXjiRMnfILOMz0JmjI5ztO/f/8927dvn5Sbm/tVIsAMvQ7GvVbIQ7/jjjsebmtryxbLxcsAaZx4zJgxazZu3FgWLOROIvfWm2/m19bV3Xr48GHfsaInTpyw5uTk0IvI+tVXX0k0q57SVEL6tGqBtrqUxH0ElPHIjjan9nxUXkzHWLLw91PGl0PxepSQLU8etCp525SNi3wvWjp/gF6oFouFhiDS6MUbaJ25v7Fo4hypN6e1Tv7GmbW2v0Bl13p/uPXUWjdKP1j9wqlDpLYJhY/SITxNDGlOnFAOmgCcqoytt9N3kiSRkFM7dSnj7pztafMtlDzEd7jvd05fGP/v7Jk7TQPE+QrKdrUy7UNvt9tlWgWiPNs0D8dKe15kZWVJNIGXtrVNSUmR6L8zzzzz45tvvvm5fv36vXHWWWd9Eio7XB8eAcMEvba2dsi0adM2kaDzlqTi8g232y3fcsst+3bu3Dm+a9euX4ZX/OjcFY/jd3/84x/733bbbXtoyEN5QXYslVGWY5Gg1yhj6CdPIAnweeSRR65duXLl7BdeeOEmEnC6TB3GpweftvpNSUmRxSVfYpLGdV8MbQeGPSOGlhqJxwMBzSteDK4Mt3FN5VE2AZN4+R1vmsN7Yii7U3rPOOOMT0aNGtVAy5d79+591OA6IHkOlxpBYuvWrQMnT568+cSJE7nk5QjnAfuyox74rbfe+jAJOibF6W+BZ5999pqBAwc+RR0qPjmMDxRRNkuhkHvNhg0baFJcQEF///33Lxo0aNCWN95440fU46fNavhBpgeX/k1Lt9ra2lzf/e53P/rxj3/817y8vE8yMjKcTU1Ndvqp9ozEf/ubRSx6CMqeBH4981NmPmuZjuwHs1gW/r2z8qmz6eTaUzoCwYrXySxuTS9ZLbPAQ2llwcobSlr+rtWrvCGUs9OOWQQrFvzaJ1D91FEKYSa8L51A3wfjrSp/SB55oLSVJTO+8D/tF0K7KGZkZLTS9t6vvPLKNe+//34/WiFC7wH6iMuS6ZjY48ePW0jUZ8+e/UBZWdmWYJHAYHXE98EJGOZ97Ny5c9DYsWM3tba25pIA8KYK9FMRFu9NN930SENDQ2ky71QW3EThXfHUU0/dUlBQsP3rr7/OVTaw8Akxr0X3eDxyaWlpzebNm6cGVCBNTgAAIABJREFUCoUeP368+9133z1jw4YNs1JSUuzshZP96OGmHekUe8r9+/f//cSJE9f+9Kc/fZU6aMoYIL1nTj7t+IAACMQ1ARJvi8VCc2Xsf/vb3y6kpcm7du0q+uKLL3rz4TNUQR5mI6Gnd8sPfvCDl9evXz/5Bz/4wRtxDSAOCm+ooBcVFW32er1d+YAQDs2QsNCmHZdffvmfVq5cuaBr167/sdlsNjoUg3usfIQlbZoSjGOgXno442x6RS068xxC8CqCVd23eN/tdlttNpvH4/HQwSIptBnKU089dfvy5cuntre3dyUPmrx0Gu9icW9tbaUz0Gu2bNlCHrrfCW0HDhz4aUFBgaOpqem85uZmnyeubLri88z5RLIrrrjiL9XV1bN//vOfvxSPwxNBISfZBRrGmtXPpKYoAmMMZSzdKPQa6thR3ABlOK3OZqiXUbzU6dLJmkePHu15zz33zN2yZctEmgtA7wN6P5C40/uCnAflfXHi3nvvXXb//fdXGNXBpxMTv/jii3R653fv3p2ciJDapFA/nujrm5D42WefkTRZe/bs2dZRdhOPHQYVy3AbyOOPP35zcXFx/fHjx/PYM6S0eCtNMna3bt2+ysvL+zA9Pd1NG3jQQ2a1WmkzDxqHZbB+J4OEW65w7tNTgAPlHywEGSgkyPvk22w2EnZqhFJOTk774cOHv3vkyJFv005y9HCJHjV51W1tbfLMmTOXVFRUPBBI0GfPnj2vqqrqbouF9Dvd0traShNgfELOaTqdTs/9998/6ze/+c1KbAwUTuuK7j3ocEWXd6Ln9tRTT/188uTJ6//73/9+j8+L4EnQ5MjRe6epqUn+8Y9//NzGjRun9uvX75+hMOH2+sknn2T+61//+uE//vGPi48dO9a1ubk597PPPuuSmZnpoiOPm5ubs5qamrq0t7en0i6jNEmP7lXej351ThlS6CiOMmRAqxF8gQb6P1Jz2jUyLS3N26VLlyar1dqUnZ19/PLLL//oyiuvfOuyyy5722Kx0B78vlUModTNiGsNE/S//e1v+STob7311uUkMupjUMWjPcVT1dS7mmFrzc7Nzmv7hUMgZLvd7m1vb7d1797d55XT7FMSYhJk9rJp+/wHH3xwcllZ2Xp/OXz88cfn33HHHesOHjz4CxoeYy+fwuyUV05OjuXrr7+2nH/++W9u2rRp4nXXXfeyEQ0UaYIACJiXgCzLWWPHjp3f0NBQ3t7eLnXt2tVCM+E5gkfiTu+g9PT0xrVr144ZMWLEXq3CR1GAN9988+IdO3YMefbZZ3/6+eeff5eGENva2jJou3ASWmV1ig8Qa4VwPK1vInBnH3/6It4jfE9iTf9ZU1JSPFlZWS673f5p375937/lllt+f+211775ve997/VYn4thmKBTj2r69Olr9+3bN5K8b/HYQPqdT1mjkAyNufCELQLIh4mIRjJvk45tyXhOApWChzTU3OjhouEM3vaVRLlnz56fPvroo4Ovueaal/09YPv27btt9OjRm44fP34G2YhC9hRpoXv56FtaqTB06NCNq1atmhPrhhxbKyB3EEhOAuQFb968eejcuXNrvvzyy270rqAlbuRE0LApRfKUsLs8derUinnz5i3WMmeKjjV2OBwDFy1aNOOTTz75QWtrK0VtrfQeovcZvcsobXFZKYuv+FPtSIZjJfEsDKoLRyCcTqfPI6eI8ne/+90PBw0a9Ohtt92299prr31HkqTmcPKK9B7DBJ0Ktnnz5lFjxoxZa7VaM9kL561Heaa0CJy9TfEwl2A9rEgBxPv9HHIX6yEy5Q6SOPZND8ewYcO2VlZWlvfp0+e0XfqOHj3aZcmSJfesXLlyZlpamu/8Wj4lio+8pX/bbLavq6qqysaPH18X7xxRfhBIXgKRDQq/8847F4waNWr9wYMHfy56zCS27EzQ7+ddcN47O7btGHrllVe+GcRrlmprawcsXrx4ySeffHJBW1ubT6d4tQ4P25JOsJ6ITkwoUd1Q9YVPDuVjvoV6UIdD7tu37xuFhYUN9E7s1q3b19FuU4YK+qFDh7qOGzdu28svv9yfZj1Tz4Z6VdzDojEW9swlq5W26zrFW+ewfLShxFt+vM6fWCpC27GEhOpC4XZaI04PBM2hS0tL+2zXrl1jb7jhhqf8LJOxvvPOOxcNGzas9uDBgz+ksXk+G5y8c+oYUKP2er2ufv36/WXHjh2TLrrook4f0HjjifKCAAhoJ0Be+tSpUx/cvHnzZK/Xm0EhdnGfCnonkbfe3t7u3Lx584TS0tL6znZh/OCDD86bMWPGoieeeGKIsBNlx1G0XDItYhxM3IOlwfMC2Nn0t9EULdGjCKhSZ3dKSkrLzTff3LBixYqV3/nOd/6lnWTkVxoq6CTir7322sVDhgxpOHbs2HdSUlK60/hK7969afZgx7InccyDRYmqJowLR17TBE5BFHTmJo6t08NEDTMlJcV5/Phxb0VFxb0zZ85c428yHM0WbWhoGDJu3LgaWZZzqKGSiCsT6Xy/K16/e/r06ZXV1dU0qY4mheADAiCQhARI0B9//PFbxo8fv/L48ePnkaCT9ywe16zsfeH99a9//fDWrVsnZWdnB9zue8uWLSNnz579YGNjY28atqYDCDlqy+81wix2GujfwcQ5HNNwBFQcMua/KY5Nh/NEwk5193q9tPdG6g033LCd3rPXXXfd69E60dJQQVfCILaXXnrpRzNnzlz+6quv/jg9PV2mLQPJGCQ0PFGLxynU0I0wUjiGjad7xA4Sj/fQ7MwuXbq03XfffYuLiopqA41jybLcZeTIkVVbt24dQ1s6KksJfQ8L7wRFjdtutx+rq6sbO2DAgEfiiQ3KCgIgoPi9Os7JPnLkSN6oUaMczz333C3ElwWdQ+IUjaV3Ubdu3T569NFHh11zzTV/9Td3hzoHEydOXL5u3bpy2kKW0iInjz1jdiiUDoLPlJ1pRDD9CObBKxrWkYc6PSqXEvnkyKXP+enWrZvryJEjtv/7v/97urKy8r4rr7zyYDRWARku6AqQtOeee+6yTZs2Tdi/f3//Y8eO5Xm9Xt8BwhTS5TERhstjwPx3PICBCYhRDNXsTtpXXaY16d26dWs5//zzX6NQ1+233/5bf+PmnMPbb799+aBBgza9++67P6AOl7JNbMfBOtSAKd0f/vCHz+/cuXPiOeec8y7sAwIgkNwEZFlOX7p06eR58+bNd7lcWWrvmYU4LS3t6wULFiyZOXPmJkmSThtj/vTTT7NGjBhR//zzz9+Znp5upcl14kc9Az2YYEdqFfbCuePAEQLWKqondzhoaJPqScPKvIum0+l03njjjY8tW7bs/u9///vvR1qeYPdHRdC5EI2NjT2ffvrpq5999tkb33///XOOHj16VnNzc1er1Upbj3YcLCCuuVadjHVqfaiHKdRA63KIYFBM9H3QPjQJurJHPo11e5XGJaWmpjozMzOPnX322f/50Y9+9Pqdd975HC2x6GybV1omsmbNmiFz587d7HQ6MygtnrxI4k6/K5sCuefMmbN44cKFyyRJajMRL9MWJbJpR6atFgoGAj4CFGJ++eWXrxg3bpzjnXfe6cuTcHkZMv+bNhS7/vrrH6aVMRdeeOGHanz/+te/aLms4+23377KarWmcmRQdFboHhZSLR52JCZSCzp77CzwvAyY3o/0vqS5SrRcmIaWaQ0+7Q3S0tLi22Z75syZK/3VOZLyqe+NqqBz5rIsZx4+fLjbZ599dkZjY2NGamqqmzZAUcSD9Nx3KpZv0V8EXTDyTvWEZWRaYe5q51syQdzS0tIIm4fq7HK5bFlZWc6ePXueOOOMM45mZ2ef6EzIhQ5Xj9GjR6/cs2fPMIqciIctcA+bzJGbm3t4+/btpTfccMMfoxFGMpI70gYBENCHwOeff95n8uTJD+zdu7fY6/XS7pW+hMWJZPT+6N27979Xr149beDAgY+rc37ppZd+MH78+LWHDh263O12+wSdvF2emKtsJ+v7NzsbYhpqgY9APnzJsqDTT06LJ3JzGXgXTvIu7fY0X33J0aLhSmW3PBpT99BGXQsXLlxh1G55vvLqY8p4TQV+k9DJkv74xz9eM2DAgEfb2tp6iicp/f/27gQ6qipN4HiqKgQxYQ/gaSHKTLQPqN0OiOh0uzRBBmiBFkeaDAgCNqZDJAYDxgi4ANoSQdHEQIwSnEYJTgBRQ5szDuJx6JERHVkFJPaIKIY1gGRPzfmKupkixNSS9+ot9a/T50DLW+793fve9959d1EdFb0dQxqHDx/+dnFx8fROnTpdNOTNqjWBdCOAQNsE5Pv3ihUr7svMzFwqa3ioYWXyMiAjZOSNVd5gpSUxKytrYXp6ek7Pnj0vaFPfvHnzTSkpKfn79u37RUxMjMwa6umEq/5sa4BuWw6D31vS6w347quvvvrzoqKiGTfddNN/BX+kwPaI8IAeGFIkbCUX49y5c59YtGhRttPpjJbgrabsVUPhvG/sVbJNZmbmS60NPYkEM/KIAAIXCmzfvn3gfffdl7d79+7BapVNNVHY/7/JRkmz+19WrFgxMzEx8YJhXVu3br1x6tSpuV9++eUAmXY1SoK5p63Wmj81gZr3m3qt2MyfP//p1voxtSWnBPS26Nlo34qKisuGDx9e/Nlnn90iLTeqU4vqBKK+gSUkJOxbt27d5IEDB26zYZ8FG5UoWUEg/ALyOXXq1KnPFxUVTXM6pdXd5Wky9zQHOxyeJmj5s127dieLi4sn33nnnTIXRr1K6a5du34pnXL37dt3g3d9iqZM+DZ7qw7TZn9jV58dvA81jb179z6watWq1KSkpP/Qo3Q0CeiehmsTtV5bcQEKo/lKS0uHjR8/fmV9ff3PpFlMXYDqG5K3c4v7nnvuebOwsPDBzp07n9CjQnJMBOwtYPSVrr9uUVHRlLS0tMWNjY3xMi5bBWK12qO8qf/4448yFezzy5Yte8LhcJxRqZIXixEjRsgaIENk0RXf4WlqG9+e5mYP6JI+uXeqdLpcrupZs2YtWrhwoXQobnqQ0apUNAnoWiWG4xgjIBMApaenz8/Pz38kJiYmRoZdqJ9ax947jWNVbm5uxrRp0wppbjemrDgrAmYXOHjw4FXy4L93796B0jFM3UN8Z7GsqalpvPbaa/973bp106666ipZsczzk3vRqFGjisrKysbLqBvf7+fB57vZMKjgD9DmPVRnPtWiIJ2Yb7755tI33nhjpsz/3uYTNDsAAV1rUQseb//+/f3GjRtX8MUXX/xKetv7fvtSPTalIl5zzTV/Xbt2bVr//v3/h+Z2CxY0SUYgDAISiB966KGc5cuX/6GhoSFOrSchQ7ukyV11kGtsbDyRk5MzNy0tLd8noDtnzJjxVH5+frY0uasWQqt2ipNPlfKTfMjDjTyzJCQk/G9ubm7q6NGjN2ldHAR0rUUteLyioqLkBx98MPfMmTPdvMMsPBeeNHf5DBNpTE1NXbZs2bJsxp5bsJBJMgJhFHj33XeHpqSkvPbDDz/0UUFZ7inyxiqzg3oXbXGPGDHi31avXj3ddyGT119/ffzMmTOXnT59umfziVzCmAVP8A16JFizPVSeJR9yP5Vv6Z07d66cO3fu7MzMzCKth7AR0MNcQ8x2OunEkp6evvDFF198SB6H5fuW/NTYUamI8u2rS5cuxwoKCtLGjRtXbLY8kB4ETCFg/8/jATN//fXXV06cOPGVrVu3DomNjXVKIJNALp1t1Ru7BPe+ffvuLigoSB8yZMgH6uCy75gxY9bv2LHjFw6Hw6nGlpujU1xwMd67hoYnmLukQ+D5F6X67OzshYsWLVqs9ToYBPSAq6g9NywvL//5yJEjV+3fv/9GmbtdmsPk4pM1jdU87g0NDe7Bgwd/WFpaOql79+7ftiTBvcye9YNcIRCKgNvtjlm8eHHGk08+mV1bW9tJrSkh9xZ5WVBj0tu3b39uwYIFj8+ePXuZeluVJvuMjIwnc3NzMxsaGtqrN3w10ka9tcsDQUurn4WS3lD3UWlp8Z7ocHgeXjyv+ueXm1abSefiFfn5+Y9qvcQqAT3UkrTJfnl5eZOysrIKz5w5006aweRtXH7yvUv+7u2U0vDwww/nLFmy5FGbZJtsIICAzgKbN2/+9eTJk1cdOnTo79S6EOpbuJpKWvrmjBw5siQ3N3d23759/6aStG3btusnTZq0ury8vL9a2EUNf/NdoMXoXu7+ArrqjyRv6PJQ4216l08N61euXJnaq1evH7QsBgK6lpoWO1ZFRUWcNIuVlZX9Xqbele89apiJeqKWCihLHW7YsOGfb7vtto8slkWSiwACBgnI1N7Tp09/YePGjePlU568natV2CRJah2K+Pj4v61atSplxIgR76ukVlZWdps3b95smfP9fJ+y8zOuyT7SdK8WpbJCQFcPL5Jm75Sw7iFDhrxTXFyc0qNHj++1LB4CupaaFjvWJ598csPYsWNLDh8+3Fu+c8kTsFp3WK1419jY2HDHHXe8u2nTprsZqtZiw5q374zFCp/kIqCzgMwHkp+fP23OnDlLqqqqPM3u8sKg5kBX39PdbnftI488snjWrFmLe/To4RmTLs3uO3fuvGr8+PGv79mz5wbfzmlqbLe6V+mcjVYPH8gbuneRlqZm99raWvewYcOK33rrrZmtrQsfSr4I6KGo2WSf7Ozsx5cuXZpVXV19iWoSUzM5qSfompqa+tzc3IfS0tLybJJtsoEAAmESkOWYx44dW7hv374B8klP+uioFdjUvUYC8+DBgz9asWJF6vXXX980Jl2SuHLlyvFZWVkvHD16tJe6J8mbukx+JX+qZvgwZeei0wQS0KU/kny6VJPkSJ+kcePGvVpYWJhNQDeq5Gx23lOnTnUdMmRIya5du34tqxqp7KmOG6ozR9euXQ9t2bLld/369ZOx5402YyA7CCCgo4A0naekpPxpzZo1f2hphTTVc719+/bHXn311fTk5OQ3fJMjneuys7Pn5Ofnp1dWVsZ37949qrKysmm9ce/Y7lZy0LxXenC91P3RBBLQpSVCvvurYWtOp7N+xowZzz311FM5Ws+4yRu6vxKz6b+//fbbv50wYcKqhoaG7vKErJYo9DZ3qXHojcnJyX9evXr1Hx0Ox/n5YPmFLsBQgNDt2NOSAtLsXlRUNDkrKyunoqIiXl4UfL97q/XE6+rq3Onp6S+98MIL8x0OR6VvZr/99tvuTz/99Jy1a9c+cPLkyc5yv1Kddv19Qw/Heuk/dQ71sKJGDalFajp27Hji2Wefzbz//vtXOxyO872QNfoR0DWCtNJh5CKbPn36M4WFhXNkHXWpkGqeZbVsqrcJvvaVV165f8qUKf9qpfwFn1YibfBm7IGAfwGZynXnzp397r333sIdO3bc6Bvk5O/eJZk9w88GDRq0dcmSJQ/eeuutnzV7S3cePXq05zPPPPPH1157bUZ1dXWXmpoa72Jsra/EZnRAlzdzaUWQ+6n8XC5X3WWXXVZeUFAwZejQoX/1LxjcFgT04LxssfWePXuunThxYp6srBYdHe2Z6lUuLGkakr97JkFwuaQSnt60adOYW2655UNbZJxMIIBA2AWk2X3ChAl5H3zwwbiqqiqnJEB9T5egru47sbGx8uaanZKSUtDS1NInTpzovHz58im5ubkzvvvuu7+XaarlWGqcuhqXriZzaen7ur83+mBxfJvc1bF9J8JRc7h37tw56uzZs9LpuE7We3/sscee7NOnj+YLXBHQgy1BG2yfl5f3wLx5856VC0QtnKCGVKhZnLxTwJ4qKCiYPXHixD8z3asNCp4sIBBmAXlD37t3b9+MjIylZWVld6oALsHW9+1Z7jcxMTENd99995s5OTkZra0X/tFHH/3q+eefn/n+++//07lz5zpJTJeOZ9LKqJq31bTVarSO77n0emv37VAszGpYXmxsrCeYu91u94ABA7Y98cQTj4wePXqLHkXhN6BbcSlSPaDscszjx493SktLW/Lmm2/KesWet3PV9KWaw1TFlGFq11133ccLFix4btiwYf8eFRVVw6IsdqkJ5AMB/QUOHTp0+eLFi9Nlvnb5/q16uKtv5xJ41Sxqcv/p2bPngQ0bNtw/aNCg/2xtmOyRI0d6lpaW/ua9994bu2XLlt8cO3Ys3tuk7VDD2aQVQD04NA/iWgV19ULkOy2t+lbubT2ok2b36OjoxqSkpJJZs2bl33777du0/nauStJvQNe/yDlDOAV2797df9KkSa9t3759sJpKUT3FquYrNaORt7NcY2Ji4u7k5OS1Y8aMKU1MTPza6XTK/MruRu9P9pMZn8KZD86FAALGCsgLgfy6RkVFnfK2N8v/l+bl8vLyjp9//vmgNWvW/L6srGx4Q0NDR0mtWppZTQyjArzcc7wLQtW/9NJLaampqa8HMs+5TF6zZ8+efh9//PE/lJaW/vbAgQO/jIqKanf27Nm46upqT/N+81/zpvG2KKp8eI/hlh7sLpersV27dg3R0dH1l19++XeJiYnbRo0aVXrXXXd9HB8f/72eL0UE9LaUpsX2ldaW3NzcqfPmzVt66tSppvmVfTumSJZ8F1CQsZ4yEULXrl2rXC7XuQ4dOpyUXpodO3Y8V1NT42zXrp1cNA0ul6tB4rovyU9VXElHK3TB1smfepDwd5yL/j3MXeMi7QHIX3mEfDV5phFr489PnfR39BDOH3BtC1s9aeV69aRBOXvnT5cMyHrlTrkPnG9hdjplnHltbe2lVVVVHU+cONGturo6Tnbt0qWLp9lZfe9WU8Cq+4386Q2O9cOHD//Lyy+//EBCQsJ3/uDVv0s6Tp8+3eWrr77qXV5ennD48OGE48eP96qoqOjkdDovcbvd9XKf8j6EqN1CKLfzu8oLjTqIvMzIfTIuLu5ct27djnfv3v1kfHy83CePJSQkfNO3b9/j8iyjZyBvc4YChWY78whIM1VKSsrid955597Gxsamp1d1P1Sd4+Sp2ffCU9/X5RuVNGPJePT6+vqGuro6dQwJ5NEa5zTki03jdHA4BBBoWcAzqFvuF2qMudxD5B4h/1/exuX7sfypWgHVbHFyONVCKH/6fvrr0KHDsZKSkuSkpKQtbVle1PuQJvcRz0uHNwsXPklpMCxdArU8UKh5OnzOK89A6rxhqUPcNMPCbI6TyPCR5OTkogMHDgx0Op0uGU6hLiSVQrV+rwrqalEB+XdpgpdAL0/h8pML13c1Id+/Nz0xtv3lyRx4pMJWAhrcx23lEWxmfL9BqxnQ1PdkdU+R+4OaTEWmP5X/LjO8yU81tau/+4xHl+1q8/LyHk5NTc0Pd0AM1sFs2xPQzVYiOqbnww8/vHnSpEmvHDlypL80PamV1dTQCt9Tq6du+TfpWKIWR1AzM3mb4pvGkcq+zTuatDaLko7ZNODQATefGpA2TomAvgK+q5+p4a8SyH1b/NTUp7Kt/NQ9xXf2uLi4OE+zfGxsbE1mZub8xx9//EVG1wRXdgT04LwsvfU333zzs4yMjD+VlJRMjIuL8/RwVxeW6hkqTWLqqdpn/d6LgrWCCMdwEEujk3gEbCzg26G2pWyqoO6IckR5/udtsfMuy9zUw122k6FndXV10qHsxMaNG/8lKSnpg7BPN23xZ3MCuo0vtuZZkzGh69evH/7oo48uOHjwYL/6+vr2ckHKLEZyoakhJLKfBHh1MbY2xCOc4zwjqKh0ySrNzLqwclA/AmoYrJr2VbXcqeFd0tqnAn3Xrl0rhg4dWrJw4cKcK6+88mtwgxMgoAfnZYut169fn/Tcc8/N//TTT/+xrq7O5e212pQ331WQ/GVYyyEg/s4V4f8e6LUatl7RBpVHoA4GJc8yp9WynvgtExXE1Xht9Znv0ksvdavv6ldcccXBsWPHrs3KynqxV69eP1hG0kQJ9VsQJkorSdFIwO12X7J3794+GzduHCod5WQ99DNnzsS7XK4qWd3I7XbL8I6m5jB1WhX4vf92Qd3RaqKGFrLY1huPlkPkLmr0CKFIArrmQh1GFY6hMSHk+aJdQs1fKOfWYlhbs/MGVIYhpLWtdT2EU/rfRbpw/4Rh8/98kYu3g1zz/y49v50y0ka+kffu3ftEnz59vpo8eXLJgAEDduo16Yr/nFp/C70qpvVlIiQHcq1+//33fSorKy+RLMfExLjr6upkzGZAPzWfckAbW2ijQCfKad++fZtvwjU1NVyHYaobbamvwT4YBLt9mAguOI3veOqWzq/+vaW8hJo/mZFK2thl2Gt0dHRDp06dzvbq1UvmptF05TEjPI0+JzcSo0uA8yOAAAIIIKCBAAFdA0QOgQACCFhFwOIdua3CbEg6CeiGsHNSKwlwAzRfabFolPnKhBQZL0BAN74MSAECJhPgEcZkBUJyEAhIgIAeEBMbIYAAAgggYG6ByAzovICYu1aSOgQQQACBoAUiM6AHzcQOCCCAAAIImFuAgG7u8iF1CCCAAAIIBCRAQA+IiY0QQAABBBAwtwAB3dzlQ+oQQAABewvQp0mz8iWga0bJgRBAAAEEEDBOgIBunD1n1lSAx3xNOTkYAghYToCAbrkiI8EIIIAAAghcLEBAp1YgoKMA7QY64nJoBBC4QICAToVAAAEEEDClAA/EwRULAT04L7ZGAAEEEEDAlAIEdFMWC4lCAAEEEEAgOAECenBebI0AAnYQoC3XDqVIHpoJENAvqhJc6VpcJcErBr+HFunkGAgggIBdBAjodilJ8oEAAgggENECmgR0t9vtcDgc7oiWJPMIIIAAAggYKKBJQDcw/ZwaAQQQQAABBKKiogjoVAMEEAiPAN0kwuPMWSJWgIAesUVvfMbNdn83W3qMLyFSgAACVhIgoJu5tIgwZi4d0oYAAgiYSoCAbqriIDEIIICAsQK8Rxjr35azE9Dbose+CCCAAAIImESAgG6SgiAZCBgnwDuZcfacGQEuJ7A6AAAGFklEQVTtBAjo2llyJAQQQAABBAwTIKAbRs+JEUAAAQQQ0E6AgK6dJUdCAAEEEEDAMAECuob0TIGrISaHQgABBBAISoCAHhQXGyOAAAIIIGBOAQK6OcuFVCGAAAL6CzDAQX/jMJ6BgB5GbE5lEQFuchYpKJKJAAK+AgT0SKkPBKlIKWnyiQACESpAQI/QgifbCCCAAAL2ErggoNNL216FS24QQAABKwoQi0IrNd7QQ3NjLwQQQEATAYKXJowcJCoqioBONbC9ADdM2xexPhmk34k+rhxVNwECum60HBgBBBBAAIHwCRDQw2dtmzPx4mKboiQjCPgV4Hr3S2SaDQjopikKEoIAAggggEDoAgT00O3YEwEEEEAAAdMIENBNUxQkBAEEEEAAgfMCoXTmJaBTexBAAAEEELCBAAHdBoVIFhCwkkConaxC3c9KNqQVgbYIENDbose+CCBgcQEbPybYOGsWr3S6JZ+ArhstB0YAAQQQMLNAKN+pzZwfArqZS8fuaeMNwu4lHLH5o2pHbNEbmnECuqH8nBwBBBBAAAFtBAjo2jhyFAQQQAABBC4UCHNTDQGdCogAAggggIANBAjoNihEsoAAAggggAABnTqAAAIIhDgzF3AImEmAgG6m0iAtCCCAAAIIhChAQA8Rjt0QQAABBBAwkwAB3UylQVoQQAABrQTC3MNaq2RznNAFCOih27EnAggggAACphEgoJumKEgIAggggAACoQsQ0EO3Y08EEEAAARsI2GVOdwK6DSojWUAAAQQQQICATh1AAAFNBeiLpSknB0MgYAECesBUbGhXAbs0t9m1fCyXL55oLFdkdkkwAd0uJUk+EEAAAd0EeErRjVbDAxPQNcTkUAgggAACCBglQEA3Sj7E8/KcHCIcuyGAAAI2FyCg27yAyR4CCCCAQGQIENAjo5zJJQLmEKCJyRzlQCpsKUBAt2WxkikEEEAAgUgTIKBHWomTXwQQQAABWwoQ0G1ZrGQKAQQQQCDSBAjokVbi5BcBBEwrwCRHpi0aSySMgG6JYiKRCCCAAAIItC5AQKeGIIAAAgggYAMBAroNCpEsIIAAAvoJMNZQP1ttj0xA19aToyGAAAIIIGCIAAHdEHZOigACCCCAgLYCBHRtPTkaAggggAAChggQ0A1h56QIIIAAAghoK0BA19aToyGAAAII6C5AR72WiAnoulc8a5yACS2sUU6kEgEEEPgpAQK60XWDB02jS4DzI4BABAvY6RZMQI/gihxpWbfThRtpZUd+EUDAvwAB3b8RWyCAAAIIIGB6AQK66YuIBCLgK0A7A/UBAQRaFiCgUzMQQAABBBCwgQAB3QaFSBYQQAABBKwtoMVII40COs2A1q5KkZF6amlklDO5RCBSBTQK6JHKF6Z8E4nCBM1pEIg8AW4v9inzpoCuxeu+fVjICQIIIIAAAtYS4A3dWuVFahFAAAEEEGhRgIBOxTBYgAY/gwuA0yOAgE0ECOg2KUiyEZoAjxOhubEXAgiYS8Dz2dxcSSI1CCCAAAIIIBCKAAE9FDX2QQABBBAIuwCdt1snJ6CHUCVppg0BjV0QQAABBHQVIKDrysvBEUAAAQQQCI8AAd3rzFt3eCocZ0EAAQQQ0EfA8IBum28iPBHoU0M5KgIIIIBAQAKGB/SAUslGCCCAAAIIINCqAAGdCoIAAggggIANBAjoNihEsoAAAggggAABnTqAAAIIIICADQQI6DYoRLLQBoEI6sxomw6obShudg2/gLkuMXOlRuvSIKBrLWrR49m7mlu0UEg2AgggEIQAAb0ZFm8xQdQeNkUAAQSaCfByYFyVIKAbZ8+ZEUAAAQQQ0EyAgK4ZJQdCAAEEEEDAOAECunH2nBkBBBBAAAHNBAjomlFyIAQQQAABBIwTIKAbZ8+ZEUAAAQTsLBDmHoIEdDtXJvKGAAK6CzAyRnfi4E8Q5kAafAL12YOAro8rR0UAAQQQQCCsAgT0sHJzMgQQQAABBPQRIKDr48pREUAAAQQQCKsAAT2s3JwMAQQQQAABfQQuDOgR2pFAH1qOigACCCCAQPgEeEMPnzVnQgABBBBAQDeB/wPWtdRmPHyGbwAAAABJRU5ErkJggg==;" vertex="1" parent="1">
          <mxGeometry x="525" y="195" width="110" height="110" as="geometry" />
        </mxCell>
        <mxCell id="vyngwg04Lc276Ec5gBA0-23" value="" style="shape=image;verticalLabelPosition=bottom;labelBackgroundColor=default;verticalAlign=top;aspect=fixed;imageAspect=0;image=data:image/png,iVBORw0KGgoAAAANSUhEUgAAAfQAAAH0CAYAAADL1t+KAAAAAXNSR0IArs4c6QAAIABJREFUeF7snQl8FPX5/3d2k2wOEsIRpNRa76IGrdZqW9uftVZFrVoBgQCBHNw3CYd4FJBTcsgVbpJNuA+PWuvVCl6tre1fi1c9iraViqKohJx7zf/1LPPEL8NudnZ3Znd297Ov2oTszPd4P9+Zz/d5vpdk0fSRLBaLrOnKqFxksuJEpc7IBARAAARAAAQ6IUDSiA8IgAAIgAAIgECcE4Cgx7kBUXwQAAEQAIHYEDBbsBiCHpt2gFxBAARAAARAQFcCEHRdcSIxEAABEAABEIgNAQh6bLgjVxAAARAAARDQlQAEXVecSAwEQAAEQAAEYkMAgh4b7sgVBEAgSQnIsixJkmSidcBmN4TZpp6ZlxcE3by2QclAAARAAARAQDMBCLpmVLgQBEAABEAABMxLAIJuXtugZCAAAiAAAiCgmQAEXTMqXAgCIAACxhLAaLGxfBM9dQh6olsY9QMBEAABEEgKAhD0pDAzKgkCIAACIJDoBCDoiW5h1A8EQAAEQCApCEDQk8LMqCQIgAAIgECiE4CgJ7qFUT8QiHMCmCgWGwOCe2y4R5IrBD0SergXBEAABEAABExCAIJuEkOgGCAAAiAAAiAQCQEIeiT0cC8IgAAIgAAImIQABN0khkAxQAAEQAAEQCASAhD0SOjhXhAAARAAARAwCQEIukkMgWKAAAiAAAiAQCQEIOiR0MO9IOCPANb7oF2AAAjEgEAMBB1vuxjYGVmCAAiAQFwSkGVZkiRJjsvCR7nQMRD0KNcQ2YEACIAACIBAEhCAoCeBkVFFEAABEACBxCcAQU98G6OGIAACIAACSUAAgp4ERkYVQQAEQAAEEp8ABD3xbYwaggAIgAAIxA2B8CeOQ9DjxsjxXdDwm2h81xulBwEQAIFoEYCgR4s08gEBEACBJCaATr3xxoegG88YOYAACIAACICA4QQg6IYjRgYgAALwztAGQMB4AhB04xkjB7zN0QZAAASSgkBsX3bJI+ix5ZwUTRmVBAEQAAEQiB2B5BH02DFGziAQHwTQ6Y0PO8VJKdGcom8oCHr0mSNHEAABEAABENCdAARdd6RIEARAAARAIKkJxCg8AUFP6laHyoNA/BDAMZrxYyuUNDYEIOix4Y5cQQAEQAAEQEBXAhB0XXEiMRAAARAAARCIDQFTC3qMhiFiYwnkCgIgAAIgAAIREDC1oEdQL9wKAklKIFrd4Gjlk6RmRLVBIAwCEPQwoOEWEAABEDAvAXS2zGsbY0sGQTeWL1IHAQtmZ6MRgICJCUTQ/4ngVkOAQNANwYpEQQAE4paA2d7ScQsyuQsei448BD252xxqDwIgAAIgkCAEIOgJYkhUAwRMQwAermlMgYKYgEAUnwcIugnsjSKAAAiAAAiAQKQEIOiREsT9IAACIAACIGACAiYQ9CjGI0wAPDZFAOPYcEeuIAACIBA9AiYQ9OhVFjmZl0AsZoSalwZKBgIgAAKhE4Cgh84Md4AACIAACICA6QhA0E1nEhQIBEAABEAABEInEF1Bx1Bu6BbCHSBgRgJ4ls1oFZQpyQlEV9CTHDaqDwIgAAIgAAJGEYCgG0UW6YIACIAACICA4QS+CZdB0A2HjQxAAARAAARAwHgCEHTjGSMHEAABEAABEDCcAATdcMTIAARAAARAAASMJwBBN54xcgABEIgjAtjkKI6MhaKeQgCCjgYBAiAAAiAAAglAAIKeAEZEFUAABEAABEAAgo42AAIgAAIgAAIJQACCngBGRBVAAARAAARAAIKONgACIAACIAACCUAAgp4ARkQVQAAEQAAEQACCjjYAAiAAAiAAAglAAIKeAEZEFUAABEAABJhA8h4FaICgJy9MPFAgAAIgAAIgECsCBgh6rKqCfOOTADqA8Wk3lBoEQMBsBCDoZrMIygMCAgFsQ4rmAAIgoJUABF0rKVwHAiAAAiAAAiYmAEE3sXFQNBBIHgIYekkeW6OmRhGAoBtFFumCAAiAAAiAQBQJQNCjCDsRs4JflYhWRZ30IoDnQy+SSEcLAQi6Fkq4BgRAAARAAARMTgCCbnIDoXggAAIgAAIgoIUABF0LJVyT2AQQF01s+6J2IJAkBCDoSWJoVDMZCKBnkgxWRh1BIBABCDraBgiAAAiAAAgkAAEIehwbEbuIxbHxUHQQAAEQ0JkABF1noEgOBEAABEAABGJBAIIeCXUMWUZCD/eCAAiAAAjoSACCriNMJAUCIAACIAACsSIAQY8VeeQLAiAAAiAAAp0QkCSLRZa1I4Kga2eFK0EABEAABEDAtAQg6KY1DQoGAiAAAiAAAtoJQNC1s8KVIAACIAACIGBaAhB005oGBQMBEAABEAAB7QQg6NpZ4UoQAAEQAAEQMC2BqAo6lm2bth2gYCCQoATw1klQw6JafghEVdBhARAAARAAARAAAWMIQNCN4Zq8qcIhSl7bo+YgAAIxJQBBjyl+ZA4C8UYAPbZ4sxjKmzwEIOjJY2vUFARAAARAIIEJQNAT2LioGgiAQHACiDkEZ4Qr4oMABD0+7IRSggAIgAAIgECnBCDoaCAgAAIgAAIgkAAEIOgJYERUAQRAAARAAAQg6GgDIAACIAACIJAABCDomBGTAM0YVQABEAABEICgow2AAAiAAAiAQAIQgKAngBFRBRAAARAAARCAoKMNgAAIgAAIgEACEICgJ4ARUQUQAAEQAIHEJiDLsiRJktxZLSXMCYu0EYBgpARxPwiAAAiAQOQE4KFHzhApBCAgy3LuiRMnbF6v1yvLsq9nSV1M5WOlf8uy7A0FIN0byvVmuZbrb5bymL0c1Fji0tBmB6tj+SRJstLzeOLEieY+ffq06Jh00KS0eKtBE0nAC/DMJKBRY1klWZbT3nvvvb7vvPPOWX/5y19+cOjQofMtFotPvJWPRA+jIuZW/r2zMge4JtS222moKlxmwUJgwdKlvk6wa/C9OQhEautA/d5QaqelYxig0+vveTmt7anTt9lsvn6413uy380MuCNutVrlSy655F9XX331KxdccMF/+vbt+14o9cG1+hII9aWob+5ILWEIyLJs/eijjy7YsWPHbfv27Rvyr3/960KXy2V3uVxpYiUVRz1h6q1rReCW6opTnRjwho63s+eVgmWKsLu7dOnivPTSS/82YMCAh2+77bb9F1544fuSJIUUfQu9dIlzh14DtxD0xGkTMa3J3r17B1RUVEx+/fXXr/Z4PJlWq9WSlZVlaWpq6iiXv5dDPAk8BCGmTQyZm4AAibj4X2pqqsXpdFrcbrcv6Jaent58+eWX/33s2LEbioqKHpMkqc0ExU6aIhgu6OS5WSyW9GPHjnVrbm4mj8037uKzvizLqampXh5U1Zu6lvBUOHnGyziu0+m00oceuNTUVHrY2ux2+1c9evRoDKfe/u6RZdm+dOnScZs3b5784YcfUnhdyszM9D30lK/H4znlNn4Z8B9J+PEBARAwJwHFC/fbKafOuN1u9z3jJOzt7e30Tre4XC75rLPOOjx27NjqqVOnbs3JyTlmztolXqkME3TSaovFkvrSSy9d/vTTT//y0UcfHXzo0KFzPR4P6aFNmdRAIRl6o4cSmjGszGGY1/TjnzYboZYlj8fjys3N/fLGG2/8w8CBA39/xRVXvHzuued+FkadxYfbvnnz5iH333//8k8//fSMLl26+DzylJQUn6DT+Bs95P4+PLctnjz0SFjh3hAJxHM4JJ7LrjJTsOeUnnmXy+X7j8bZSdjJW7dare19+vT5fMaMGctHjhxZr6cTEWJLSqrLDRPHjz766OxVq1aN27lz57DPP//8OyTkZOy0tDRLW1ubr1dHL361B6emH2xSc7ILQjA+9JClp6dbMjIy6KFzt7e321JTU5t/9atf7S0vL1971VVXvSlJUgDVpTCK/+eBOgkvvPDCT0tLS9ceOnToEiHq4suPvHMlCnPKz6R6umJX2QSSlNhBTPKc/bYh9fuGOu30Dub3OUXcuEPf3NwsX3zxxW9UVVXN6d+//7MGTSpMcjOdWn3dBV2W5fR33333rIULF969a9euIgrBkpHZ8NR74xmTZHj+HVYxhgCFv0lcWWCpU+VyubxWq1Xq16/fKxUVFb+54YYbXpIk6aQCa/wcOXIkb/r06Q/u3r27KCcnR2ppafH1zJX0falQOI567sEm1mjMEpeBAAhEmYD62fXnQPA19I5XxtIt9N4hkXe73e233nrrvqqqqnkXXHDBoSgXP+my013Qv/76624zZ85csGXLljHZ2dnpra2tvhc6G5oIk5Bzry6YhxnMAw92f6JbNBgfqj89aMScwt/EiyMjKSkpnu9///t/WrJkyfzrr7/+hVBmpe7bt2/wyJEjN0iSlEu2pbSp40b/0b+V5S4+O3f2UtBS/kS3IeoHAvFIgJ5det7JKRPfw/xMU1TQ7XZ7bTbbF7W1tVMKCgr2wks31tK6C3ptbe2IsrKyVU1NTd1IONgz5MlQ/IJnoye7IBtrXoslOzvbcvz4cV82JLL08HG0hGxA66AHDRrUUFdXNzs7O/uolvJQuH3cuHGrNm7cOCkjI0OiTpvomdODzBPi1GNwor3VE2605I1rzE0gsWL9iVUbI1oOv8dZ2Ok9QO8Xev4VQaff5TFjxlQsX758WW5u7ldGlANpniSgq6B/9tlnZ0yYMGHNY489dmd6erpNmV3td7YzZc6NAMYwngCNa5PnrExY8c1lIP4UEs/Kyvqyvr6++Pbbb38imJdOqxYOHTp08Z133rn5vffeu5pKzh45dRbYQ6cHXT1HQvTGWdj9duj0WpRpPFbkAAIhEoivxh3M8aJnnt4l6qE1EnZ+H9hsNs8ll1zywrp168qvuuqqf4QIDJeHQEA3Qacdwl599dUfXH/99Y+3trb2JIPSy5q8N/VSJfbM1KEaf+UO5sEne8g2GB/qLdPDxh+2BbOn761Wq3vSpEmr77nnnnl5eXknOms/5J0/9thjdxQWFm5vamrKpPSoJ05j6BwFoLEzesipQ8fRAPou2W0VwnOJS0HAFAQCDZeJkTdeiy4OpXbt2tUXGaT3AL0PzjjjjE9WrVo1ftCgQb8zRcUStBC6CTrxWbly5fiysrIau91upTFVMjTNaBcFXd3jY2Ghv9PLn66lBkC/+1vD7AvZn1SHBDWJ/2qJDEUR514wzzKlf9N/9HCR56xmT/zob+RJ00964FpbW+Uf//jH+/fu3Vv87W9/++Mggm7dtm3bkDFjxtR6PJ50JWzfIdaifXmSDIu7es05Qu5J1YSTrLLx5YkHMg5H3Djaxh10HrqjZ5ijfhxxFcfWORJLy2arq6vHz5gxozbJGkJUq6uboNMGIzNnznywqqpqakpKikRG5lCMvxqxoPCmBPSTxYGuF2fA+/PsWNR48lVUqUUxMw5ni5MIuSfMEw1zcnIsjY0n94oh5vSw8XdiaJvnL7DIsw3Igz/vvPMO/e53v/v1xRdf/Faw6m3btm3E6NGjN3s8Hjt3IMR7+IGm9HldKl/HHbVgobxgZcD3IBAtAsk8ks7et8Da50mlp6d7PR6Pb6N3dhxOEXTJaiHXix01j8fjraqqmlJWVrY2WnZLxnz0FPS04cOHr9+xY0eRzWajjUx8L3P2ssXZziQo7I3zxDm6jiZw0d9pcxL23Fm81LOlWZSCrWOPd6MyJ7GzY7VZLVbp5A5rxIeiIPzg8CRE9ooDheSZH/ew8/Lyjv3xj3+88bLLLnstGLOtW7eOHDNmzEav12sXlyGqJ7zx7PqcnJxPzz333P8oITg3HehAUygkSUqhXaWC5aee66E+rCWcnfsM3EVQS324yqFc22ngRAPDyC7R5nDqVZ9IyqrbOy2SQvi5N2Q24cwI13LYkapsnfJSnlVPSkoK7ehJ7xl68bgyMzO9b7/99nknTpz4jsvlsolDedyhFyfMKYI+sby8fIPOXJGcQEC3xk8eekFBwfq9e/eOIkHnMAyvM2fjqkO+HB4WJ1VQT4/HXqis4sx49cSqYGPIiWBt7txwD5iZ0TpvEnOevc5sxc4QC7yagzgGRun26NHjyP79+2/Jz88POmll27Zto0pLSzeQzUW7qdNUIgCeoqIiR3V19T1tbW0nt62jmXder5deCi0tLTrt/dpssViy4s7cRnUs4g5EnBU4nE5kOFXUs32EW2YqAz+rNpvN5nK5XE6nM7W+vn7C0qVLpzmdzhzx3UP1pGdfFHR63quqqiaVlZWtD4cD7tFGQE9BzyouLl7jcDhGpaam+jx0FmP6Kb7suWg8hkqePBmfx2moM0A9QrpNXL8upqf+XVt14+8q9Ri4Mgvdyh2ltLQ03he/Y/IbP0z8kPmrNduDOwe5ubn/e/nll2/p27fvG8Eo1dfXj6LDF2jvGH8bx4idNloWV1JSsnnLli1jg6WL70HAzAS0BSnMXAP9ykae+sKFC2cvXbr0N06nM0N02Ph9L74HyEOvrq6eOmPGjBr9SoGUTnPU9EJCO8SNHTt23aZNm0bRGDoJujjpSfSkRaHhrUnpe2XsV87JyfnykksuefXcc8/9d3Z2dguFnuijeHwd52nTHvDUCfDjfQYMb4k93nB7rOr8NPailTLx9vUnD6cJILYdf1c6NzR0IbvdbuogezMyMjxff/11l6NHj5711ltvfe8///nPRbRnu81mS2luJk/15Fg63auOjIgPG+dNHn52dvbnL7300g35+fkHg7UJEvQxY8bQpjJ2igCwPdneqgeZBH3dli1bJocTQgxWFnwPAiAQfQKyLNuWLl06Z+HChfeRoIuTm8XwO0/ApfdXVVXVZIyhG2srPT30NArD1tbW+jx0MeSuDouL47f08uej984666z/3XDDDXvuuOOOF6+88srXv/Wtb9EmBL5z+ZQPC51Y7pDHpoxFaljq1BOgSShUd/dnn32W6vF4ujc2NuY+8cQTP9m9e/ewv//97z+j72kZGS0XZPGmn6Lo8r/pbzy00bVr18/+/Oc/36jVQydBt1qtdgr580cdGVC2/HUOHz58S21t7VRJkkRbBgSlROWTxa6GNRgkHFsCidyOZVlOIQ99yZIl9zudznRebSO+Z8ip490jIejRaYu6CjptBbpz585RtE84eW5iuFisDu/tTt8r13l/8pOf7C8vL68kMZck6aQa4aOJAD1cH3744Tlr1qwZuWnTprKmpqaM9PR0X6dKHPpQh+/54aOfPXv2/PTll1++Saugjx49eoPNZjtN0MXOgzLm7x49evT6DRs2kKBDpDVZFBeBgLkJkIe+aNGi2YsWLaKQu2/5qriihkovzv1RBH1KeXk5Qu4GmlZXQS8uLt5AY+gUcudZ2fRSJ1GhncpobTovR+OT1xobGz0/+clPnq+pqZl5+eWXB52QZSCLuE/66NGjvSsrKyeuXbt2qtPp7MpbMLKos6CrVxzQv/Py8j7dv3//Tf369dM0hk4eOo+hdwaOhhXGjx+/ev369dPiHjAqAAIg4CNAI6CLFi2ikPs8t9ttF4f2xCXJoodeWVkJQTe4/Rgu6Op1jGxs/pmfn///li5dWnbjjTf+WWtI1mAmcZs8PWRHjx7NW7JkSfnKlSun2e32NKoMLy0TJybyA8jj3kYKOm0HvG7duqlxCxYFBwEQOIUAe+gQdHM1DMMFXZxNzZvAUCiGBKV79+5HKioqZpWWlm43F5b4LQ2J+n//+9+zhwwZsvHgwYPX0GRF8tDF9frsoYsCD0GPX5uj5MlJIJZj9JT3okWL7tYi6DY6gfHkpLipZWVla5LTWtGpteGCTuLBQs7rpZVzs+U77rijbsOGDTN69OhxcpszfHQjUF9fT9uz0m5uXXj4gxL3t27f6JD7uHHj1m7YsGGybpVDQsrcyBhPScA6rqRtiSToCxcunEtj6FpD7hB045uLjoLuTSsuLvE7hq6MuXTMtCYB6dGjxydr1qyZPmTIkEcRatff0IcOHbpw0KBBda+//vqPeac1cdKK6KUbLejjx49ft27dOixb09/MSBEEYkKABH3x4sVzH3jgAQh6TCzgP1MdBV1O8zcpTr13N//73HPPfffxxx8v0LIzmYl4hVGU2Lgxn376adaKFSvuXbZs2d203l7tmUdT0GkMfe3atdMwyz2M5pPgt8Tm6UhwqFGoXighd2ViNELuUbCL4YLOdeDQO+9wds011zy/bdu2krPPPvujKNQzKbNYt27dmAkTJtB6cZ+gq0VcXLZm9Bg6BD0pmyAqnaAEwhH0ioqKaTNnzlydoEhMUS1dBb2oqGh9fX19kbhsjWrJx2jSjHfaKjQlJcVdUFCwc8WKFZMxfm5cO9ixY8fgYcOG7bBarb5TkbgzJS5f4+EQCLpxdkDKIJCIBGgMXcukOPbQIejGtwLDBd3fLHebzeYeNmxYXV1d3QxJkk7uVYqP7gT27ds38K677tqrHkNX7zhr9Bj6pEmT1qxZswYhd90tjARBIHYEaAx9/vz5vnXoVArevpuXJKs3loGgG2+rqAg6GZq3ASTxoCP5CgoKHKtXry7r1q3b18ZXMzlz2LNnz6AhQ4bsibWgT5w4cXVNTc10jKEnZztErROTAATdfHaNiaBT9LegoKBh7dq1Zbm5ubRfu2k+iTRJhzz0QYMG7ZYkyRdyV594F+4YOp2HXlpaulHrTnEQdNM0bxQEBHQjAEHXDaVuCekq6MXFxescDkexOIYunrzDh3fQEaBDhw5tWLVq1TSMoetmy9MS2rt374C77rprjwkEfVVNTQ0Nr8R44bRxrJEyCCQbgRAFnc5Dn4aNZYxtJYYLOhVfOaSj49B7EvmCgoL66urqyb169WoytorJmzqF3AcPHkyC7tfOKg/9yP79+/tr2cs9DA8dgp68zRA1T1ACEPQoGTaEsHFUBZ0nTdDP4cOHQ9ANbg87d+4cVFBQ4BtD97cOncPwyqQ4wwR9woQJK2l4BR66wQZH8iAQRQIQ9CjC1phV1ASdJsXxWmgq2/Dhwx0PPfTQFHjoGi0VxmW7d+8eOGTIEN8sdy2CfuDAgZvz8/MPBssqVA8dgh6MKL6PLYEQXKDYFtRUuUPQTWUOX2H0FvS1DoejRL0OXfTMOcxbWFhYV19fT2dkI+RuULvYtWvXgKFDh+6DoBsEGMmCQBITCFXQKysrp5r2PPQE6dMZLuji8al2u923fI0OZxk5cmStIuhYh27QS0GZFLdP3PpVPLdYddraEaM89IkTJ66oqakpR8jdIEMjWRCIAYGEEvQw+cXyxDt/RTZc0ElAUlJSOvImMafPiBEj6latWjWje/fux8NkiduCEKAx9GHDhu2meYmdXcpj6BB0NCkQAAGtBCDoWklF7zrDBZ08dPo4nc6OddC0sUxhYWHtsmXLpvXu3Tuwh54gYZDomfPUnB5++OHbaWMZWZbt/s5AV89yh6DHylLIFwTijwAE3Xw2M1zQxW1G+aQ1u93uvu222x4bO3bs+tTU1HbCQmFhWZZtVqvVSx8lTEx/87t2WZzl5e+alJSU0+7zer26roMOVLYg3rDmMgRabiamzxEPJQqS4nK5bJIkedLT011//etfr507d+5sr9fbjbZhZAGn+8V/s4f+/IEDN19iwKQ4hNzN9+AnRInQ4Y+pGSHoMcXvN3PDBZ3GzUl02EMkISFhlySp3e12p9Ea9UAfvsd82KJSIs3Cb7PZfHak+QlK50jOyMiwtLS0uNPS0tKIuSjgPEkRHnpU7IhMQCAhCUDQzWdWvQX9tJ3i2MFm75wQUBg+MzPT0tbW5hN7FnW1F8lHrpoPW3glIoXWDbhSBN4jn9mlpaV1iDcxp9PtxI6ReNJauILe0NBQOHr06E0hbP2KSXHhNRncBQKmJaAI+m/cbne64kj43j0BDmehneKmlJWVrTVthRKgYLrpiyzLaeqtXz3kjVutHQezsNiwyFCYWDmsxYeSPUlx9nWAiHsCoNenCrwLH7FksaaUibG47r+z3JSQ+ycHDhy4Rcs69FAFHevQ9bE1UgEBMxGIWNAxZKKYUz8Qugq6v/PQSVRIbGhSHHvniufdmpube5ym/Vut1laaie31eik8TGWiMfSO3p7OjVhzKDuMfI1MW10cn+3IC29vb5ftdrtvvkF7eztFP+SUlJRmSZLSDx8+/F3uPbOnrvbYjRJ0HwxZliHoYbQk3AICJicQsaCbvH7xWDzDBZ3D5uoJWTfffPNjixcvrnQ6nV6bzdZOk9hoTF3x1L30b2WinE8XtEwQ02KAcCayBUvXiDT95RkoH15JoAi6ze12p2ZnZzv/8Ic/XHvffffNd7vd2eSx04c8evbq+bxiowRd0XMIerAGlOzf6+egJDvJqNZ/0aJFdy9YsIDOQ0fIParkA2dmuKBzGJgnbJFHmZqa6hk6dGj9kiVLpvTp06dFlmUrncCmCIBPx03CJ66Kod7k4Le//e3td9111y6Px5OhnhQnLmMLdR163IfcISBx1a5RWHMSgKCbzy56Crq9uLh4vcPhGCVu/coT3lR7ucvDhg2rN+N56OYzUfglor3chw4dukuSJN/OPupVA+HuFBf3gh4+UtwJAiCgEICgm68pGC7o4qQ2Cg2Tp+jxeLwFBQWOmpqaMuwUZ1yjeOSRRwYMGDDglK1fiT9/IOjGsUfKIJDoBCDo5rOw4YLO47XibHYa66WtXxsaGqZLknTCfFgSo0SPPvrowDvvvJO2fqXNZjp26lPv5x5qyB2nrSVG+0AtQCASAosXL54zf/58mqODMfRIQOp4r+GCTjPcFa9cXEYlk4e+atWqaXl5eRB0HQ0qJqWE3Ok8dN/uPaKo+9spDlu/GmQIJAsCCUgAgm4+oxou6OLsdl53TluTDhs2bKvD4ZiC41ONaxQ7duwYPHz48F28n414Jnokk+JC9dDNvfWrXjPk9ErHuPaAlEFATwIQdD1p6pOWwYJOW5FKHcukhPF074gRI7ZVV1dP6tWrF85D18eWp6Wyc+fOIQUFBTs2OL3nAAAgAElEQVQDHZ/KXrvRIXdzC7pB8JEsCOhFwKR9xUWLFs1esGDBAoTc9TJ05OkYLOgntwHkiVi8Jt3j8dBpa1sbGhomwUOP3IiBUti1a9ddQ4cO3e1P0MV7WND379/fv1+/fm8EK1FieejBaovvQQAE/BGAoJuvXegq6EVFRevq6+uL1MvW/Ai6pbCwsKGqqgoeuoFtAoJuIFwkDQJJTgCCbr4GoKegpwXa+lXckYwPaYGgG98Ydu7cOaigoGCPVg890klx/g6foRUNCLkbb2vkAALRJgBBjzbx4PkZLuhUBHEtOgv6yJEj6ysrKydjDD24kcK9ItqC7q+cJOiTJk16aM2aNTOxA2C4lkzM+0w6NJyYsA2oFQTdAKgRJhk1QeeTvwQP3UHH6UHQI7RgJ7dD0I1ji5RBINkJLF68eNb8+fMfwKQ487QEwwWdJsWJG5mQoNMZ6IWFhbVVVVXTIOjGNQajBD3UrV/hoRtnY6QMArEi0JmgWyTJInu9vr0vSANod1Cch268paIm6KKHTid/jRw5sm7VqlXlubm5XxlfzeTMgdahDxs2jPZy7ziszt/58qEuW4OgJ2d7Qq1BQCQAD9187UFXQS8uLl7ncDiKxVnuPIbOh7QIIffNysYybebDkhglClHQPzlw4MAt+fn5B4PVHoIejBC+B4HEJxCqoNOcqfLy8nWJTyZ2NTRU0D1eryUtNdXidDp9NUxLS6PQC/0nFxUV1dbV1U2xWCxtmCxlTAPYvXv3YNpYxuv1+rZ+pQ9v/+pnpzjDBB2z3I2xL1IFgVgSgKDHkr7/vA0VdN4vnLxy8tBJTEjcU1JS5AEDBjw8a9asii5dunxN8WCr1UpnovvK43K5fAJEHQBZlr85HiwCfjTbWn271r8JYqiJl790OY3U1FRdz3onnjYC/I1gS8TP7Xa7X3jhhV9Nnz59iSzLqVx9taBzBCUvLw+CHkH7wq0gkGyz9iHo5mvzmgRKS7FlWU7zF3Kn/dtpEpx42hoJfV5eXuO55577EQm2LMsk4B2CzoJInrtw3KdYVi3lZuH0/RTTVOpzyvd0iVBPteiq89OSvy9bLeyUvdb95U9/4/86NFtIU7LZbFav1yuRF26z2dypqakeq9VKTG2fffZZj3//+9/nccdK9NLFs9GVMXTDBB2T4jS2AlwGAnFEAIJuPmNpFaagJe9M0GkSHHmG5EiSePBGM+S1k9h39hEPFAlaiCS9wN9EN0JBnSn2wLljJJ6BzgfnQNCTtOGg2iAQAQEIegTwDLrVcEFnz5yXr/F+7spSBp/Is+iovUYWf4PqnjDJMkM+zY7nLGRkZPg6TCTmoqCLnHn1gZEhd3joCdPUUBEQ6CAAQTdfYzBc0HnsnD1x+jf/Z7fbj7e0tHSxWCx0LBuJjk2WZRpKp5AxlY2G1s1HLfISaQ3FB8qpw26CUHttNpsvPE8inZGR4WxubpatVmsXfx2jaE6Kg6BH3mCQAgiYjUCogk5nd5SVla03Wz2iWR6j51kYLugc+mVBZw/9qquu+vvAgQN3paWluWjsVxnnTaGxbpvN5qVxYRJ0cYJZx2Lqk7O1g5ZdvFc9UU09s76ziWyhGtxqtXYIdrB8lehESALPdae0U1NTfasGlPkGXo/H45uLkJWV1f76669fvWHDhmJZltMRcvdnRaMfr1BbDq4HgfghIAi6nV/J9J5hJ04cWlU2lkl6QTfaukFFUWsBAo2hc2id0klPT/eFgN1utzxq1ChHdXX19B49ejQqouYrC5awaSUe+DqaZEhRjocffvjOwYMH7/Z6vafMcld4+xJAyD1y3kgBBJKRADx081ndcEFn0eCemzKm7h0+fHhtfX39NEmSWsyHJTFKpGz9ultZEuibkChOhMOkuMSwM2oBArEgAEGPBfXO89RT0O3FxcVr1TvF8bpnFnQlDEOC7lixYsUM9tDNhyb+S7R9+/ahw4cP386C7m9iHDz0+LczagACsSAAQY8F9RgLOk9qUwm6Z9iwYXWrV6+e1a1bt6/NhyUxSrRjx46Bw4YN28MzC9XL2+ChJ4adUYskIGDC6R4QdPO1u6h66OwN0vjusGHDaletWjWze/fux82HJf5LRKsE9uzZM2DIkCF7aCM+Zi/WDIIe/3ZGDUAgVgQg6LEiHzhfvQW9xuFwlKgPZyExEcfQSdCHDx++paqqqgzHpxrXKHbv3j0Qgm4cX6QMAslMILCg2+j01FM2EKNZ7jicxfjWEjNBHzFiRG1lZeUMCLpxRt61a9eAoUOH7hU9dPbKKVd46Maxj2rKJgzHRrX+yCwmBEL10CHoxpspZoJOIffq6moIuoE2VsbQSdB9S9fFWe4QdAPBI2kQSAICEHTzGdlwQedZ7nRsKk2QU0LvNIZeR+vQ4aEb1yiUkDsE3TjE5k0ZXrt5bZMgJYOgm8+QURF0rjaJOe07TjubjRo1qraiogKCbmCb2LNnz6DBgwfTpLhTNtbzN9sde7kbaAgkrSKA3kYiNAkIuvmseJqgK3uph7QVqRK+tRcVFa2pr68vFSfFiTu0QtCj2wCUjWVCEfRb8/Pz/xGslA0NDYWjR4/eZLFY7HSSXmcf2p4We7kHI4rvQSD+CEDQzWczXT30EATdMnLkyE0rVqyYhWVrxjWK7du33zV8+PDdoofu76hV4fhUCLpx5kDKIJBQBCDo5jNnzAS9sLCwduXKlWUQdOMaxa5du+4aOnSo7oK+devWkaWlpRsj9dAReDXO9kgZBIwmsGjRopkLFixY6Ha70ykvcXky/04/lfM8sGzNaIOQDfTKQ5blTkPuorFpglxhYeGWlStXlkPQ9bLA6en4G0NnD129fE0ZQ9fkoesl6MbVHCmDAAgYTQCCbjTh0NPXVdCLi4tP21iGx9BZ0GlSHJ24VlhYSCH3mdjLPXSjab1DFHTuQfPSNU5DtZc7BF0rXFwHAklOIFRBr6qqmlJWVrY2ybEZWn09BT1NOZzllJ3iAgn6yJEjN69atWp2bm7uV4bWMIkT37Nnz5DBgwfv5LOKxbXoySzoCPUn8UOBqutGAIKuG0rdEoqVoHuUkPtsDrnT7HqLxWK1WCxenIkenn3VKxTUgs6pihPj4KGHxxp3gUCyE4Cgm68FGC7ofNoah3pTUlJ8m8tcdtllfx07dmyDxWJp9Xq9qbS8iU8F42M++VoR2ykLqjXwpHTVl/n7m4akNF+i7pDokR/XW+n4+MoisLC2tbVZU1NTbRaLxUP5p6ene1955ZVrtmzZMkzpKHWUH4Ku2ZS4EARAIAABCLr5mobhgk7ikZqa6qs5r1lOS0vz/W6z2Vppn3FZlm2KyPh03ev1kqfumzXpb5mV+TDGtkTUabJarTJNNmTBz8rKaqOOkdPpzFCPm4ueOjz02NoOuYNAvBIIddkaxtCNt7Thgi7Obrfb7Za2tjafSJPIk+Dw1rBUVfo3iw+EXJvxeTtdXh5CnSWadEgdJopw0N9J6DnqwbzFfd1DXYeOWe7abIOrQCCRCUDQzWddwwWdw+YkKvQ7iQ3NdM/JybG0tLT4hIfD8nQNCxOJjG//d5vVYgl53zrzgTaqRMSSxZqY0b+JodPptGRnZ1va29t9HOk/+hBr7mT5OW0tIWe5YxKcUa0P6SYzAQi6+ayvq6AXFRXVqLd+JdEgr5EERvQYc3Nzj2dnZx9RJnKR2qS43W6JBMdms8ksOixW5kOnrURaJ/h5vd6A3Rar1RrQTl6vVyKuxJl+d7vdclpamjszM1M6evRoVmNj45k0hJHMgq7NUrgKBEAgFAIQ9FBoRedawwWdPEb6sGeu7OfuHTFixNYHHnhgYZcuXb5ITU21t7S0SDSAnpWVJXu9Xp872ckEuHDLHSVfP9tisZzozILhlt9vmh6Px93W1pZqU2BnZGR4W1tbW5588skhpaWl62VZThGHN5LNQ4/Oo4RcQCC5CEDQzWdv3YRFluW0QB46eZCkNeRFkqdOM7FHjRrlePDBB6f17t272XxYEqNEO3bsKBg+fPh23hFQPCgHY+iJYWPUIj4IJOKwDwTdfG2vQ9DDPWWNqxRI0GnymyLifHQqTYjzjBgxYnNtbW25JEkQdIPaxc6dO4cUFBScsrEMZaXe/hWT4gwyAJIFgQQmAEE3n3EN99DVgq4IijxkyJDN69atm4Od4oxrFPv27Rt411137VV76J2ch56Qk+KMI4yUQSB5CUDQzWd7wwWdxYNnXytrpeURI0bUrlmzZhYE3bhGoRb0QDnBQzfOBvGacqQRu3itN8qtnQAEXTuraF0ZFUEXjtDriNCXlpZuWbZsWVleXl6ns8eiBSIR89m9e/dAOj7VYrGcnJkY4ANBT0Tro04gYCwBCLqxfMNJ3XBBpwlxvEMcFZD+7fF4vEVFRb5Jcb169WoKp+C4JzgBOg+9oKCABP10O9N8f+WvEPTgLHEFCCQKAb0m6CWaoCdCVEpXQS8uLl7jcDhGp6Sk0BI034YnfFwqPQy0xpzWpNNucQMGDNhVV1c3qWvXrl8myoNitno8/PDDgwYOHLgn0PI/2uVekk5OksN56GazHsoDAuYmEKqgV1RVTZmpw/GpenVIzE03vNIZLugk4r4d36xWn3Cwx37dddc9vXfv3tE9e/b8X3hFx13BCNTW1haUlJRsDyzocsd++RD0YDTxPQiAgEggVEHHXu7Gt5+oCDp56mphv/DCC9/Yu3fviEsvvfRN46uZfDnIspw5bdq0RatWrZrub48enqwYjcNZJk6cWF1TUzNL6655yWct1BgE4o8ATlszn810FfSSkpLVdXV1Y8SQO1WZJ8XRbnEUciePPS0t7ava2trJBQUFO8yGJRHGUv773/+eN3To0A1//vOfr2cbiJwh6GZrdShPMhBIpHAxBN18LdZwQecDQ8hDp8lxdOIaHRhit9vla6+9drfD4ZjSp0+fL8yHJn5LJMuyfdOmTQXTp09f09bWlkU16ez0OqPH0OGhx29bQslBIBABCLr52obhgs6T4sST1vigkDPPPPNoRUXFzKFDh9I4r9d8eOKvRCTmhw8fPuuOO+7Y9Nprr/0fR0v8nYkerdPWIOjx145QYhAIRgCCHoxQ9L/XVdCLi4tXORyOsWLInSfB0Y5xfC43hd2VpWyefv36vbpy5cqy66677i/Rr37i5fjRRx/1XrFixcz169fPcLvdVp6MqBb0aO7lrlXQEykcmXgtCzUCgVMJhCrolZWVk8vLy9eBo3EEDBd0ngxHoXYaQ1fGz301on9TNPgXv/jF4ytXrlxw8cUXvyFJ0smDu/EJiYAsy1aLxZKxdOnSSatXr57+5ZdffosSUHbmOyXkHu293LUKekgVNupi9CqMIot0E4wABN18BjVc0KnKvO0rbzBDIs9/Jw++tbWVRP3348eP33TXXXc9K0lSm/lQmbtEb7311mXbt28ftGHDhlISc+LK++j7C7eLtRHG0G/Jz88/GKymW7duHVlaWrrRYrHYxU2D/N1HR+LGlaAHqzy+BwEQ8BGAoJuvIURN0BVv3LcOnZax0X88rt61a1dLY2Oj3KdPn4/uvPPO3/bv3//5q6+++m95eXlHzIfMPCWic85feeWVq1577bUrd+/efcurr756rcvlSs/IyPBFP2jyIYfcOyu1IuhHDhw4cLNBgl5VU1MzG8vWzNN2UBIQiJQABD1Sgvrff1LQdQgz0vGp/sbQeZ0zT8Dic9G5KhSKp53jMjMzSeQ9LS0tVhLy/Pz813v37v1J165dW9PT05tzcnKas7KynCkpKbLX65U8Hg/9J9tsNtrE1Pchb5B/F8VD/LvVau24xt99WhGHK060JE7MQ9z0heqlzp+/5/uozo2NjTlHjx7t+dVXX/X86KOPzn///fcvaGtr62Kz2aw0P4E6SyTmxJR+avTQYyPoOrQ9rTbDdbEhABPHhrvRuSadoMdBQzbcQxc9RBJ3nuFO4WAK17LH7utXSJIlPT3d0tzcTJ4lCTeFjWmgXabvvF6v1ev1+gSZ0qX/6JpOPqeJt9GNXO/0lTXxVFe3JEk0VkFcbB6PJ4U6AMyAOkbEiAScfvIWu8Q30Ax31Sz32Ai63sCQHgiAQFQIJJ2gR4VqZJkYLugkLor37LekPL5O14nePAm1PyHi9CKrdvzczbvscQeGWTIf4keizZMPqZNEnSbixJ2lQILOnSiE3OOnPaCkIGAWAhB0s1jim3LEXNBZyPknFy3QRijqv3e2YYr5cIdeIvaiuSPDnR4WdhJysdPEEQvenS9Qx8jPTnFGeujY+jV00+MOEDA1AQi6+cwTc0FnJKKgi164v5B6oot4sGYiirvosbPHzasIxMhIoI6QsJc7BD0YeHwPAiDQQQCCbr7GEHNBDxaSDybeyRSCF71qUdTZC2dBF5mKHr3Y/BLPQ4+DGSvme/5RIhAImwAEPWx0ht1oKkEPVbwDiZVhtOIoYWYZaNla4gl6HBkHRQWBBCCQ6IIejy5CzAXdn9fInqb4UwwfJ8CzEHIV1JEI9W5v/iId4t9EARdZag25i40bG8uEbD7cAAIJRyDRBT0eDRZzQT+5clzumNglQvTngau9+GQKuftrYDxpTv2dWuAjFXQxfQh6PD7qKDMI6Esg7gU9Hl3wICaMuaCrBVztiauFiK8PNvaub9ONfWqBOjLiUj81G3/RDzU3rR46BD32bQAlOJ1AAr6T48bMcS/ocUNae0GDCrqysUnQDVqUneJWOhyOceJpa8kmvNrRx/ZKjKHHlj9yB4F4JxCpoKMzpn8LCCroWrOEoGslZY7rIOjmsANKAQLxSiBSQY/Xepu53BB0M1vHwLJFWdBxOIuBtkTSIBALAnoI+skIMJ2vETQIHIsqxl2eugp6UVHRivr6+vEIuZu/HUQi6A0NDYWjR4/eFMLxqRB08zcJlBAEQiKgh6CHlCEuDkpAV0EvLi5+yOFwTICgB+Ue8wv8CPonBw4c0HQeOgQ95uZDAUAg5gQg6DE3wWkFgKCbzyZRKdGpgm6x5OX1hKBHhTwyAYHEIABBN58d9Rb0aofDMREeuvkMrS4RPHTz2wglBAEzE4Cgm886EHTz2SQqJYKgRwUzMgGBOCSgbUHZ4sWLZ82fP/8Bt9udTpWkJcp83DP/zqc+ejweb2Vl5eTy8vJ1cQgkboqsq6AXFRVV1dfXT4KHbn77Q9DNbyOUEATMTMDcgq6tU2JmvuGUDYIeDrUEuAeCngBGRBVAIIYEzC3oMQQTw6x1FfTi4uJKh8MxGR56DC2qMWsIukZQuCwsAsnpH4WFKm5v0k/Q0Vr0agQJJ+i0PYFuldKLsgnTiaagT5gwoXLt2rVzJEnC7hEmbAsoEgiEQ0A/QQ8nd9zjj4Bu2kdbv5aUlFTU1dVNgYdu/sYGQTe/jVBCEDAzgUWLFs1esGDBAkyKM4+VIOjmsUVUSwJBD4Ab0b+otkNkFr8EIOjms52ugl5cXLzc4XBMhYduPkOrSwRBN7+NUEIQMDMBCLr5rANBN59NolIiCHpUMCMTEEhYAqEKelVV1ZSysrK1CQvEBBWLWND5vHTl+NQHHQ7HNHjoJrBskCJEIuj19fUjxowZs1nr4SyYFGf+9oASgkCoBBRBp41l7HRvsI1lSNBnzJixDpNjQyWt/fqIBZ2zkmU5VQm5Q9C184/ZlX4E/X8HDhy4NT8//2CwQkVL0DGcHcwS+D6aBNAev6FNjtySJUtmz58/nybFaRZ0eOjGtlgIurF8/aRujoV18SDoanh4oUa9sSJDEPBLAIJuzoahq6AXFRU9WF9fPx0hd3MaWyxVPAq6+amihMEI8BBdsOvwvbkJQNDNaR8IujntErhUOjn4EPR4MzzKCwJRJtBJSAyCHmVbaMxOT0FPKSoqWg4PXSP5GF8GQY+xAZA9CMQxAQi6OY2nq6AXFxfTLPcZCLmb09hUKnbwoynoEydOrKipqbkbs1vN2y5QMhAIhQAEPRRa0bsWgh491qbKCYJuKnOgMEYSwGxK3enKsmxdsmQJnYeOWe660w0/QQh6+Ozi+k4IelybD4UHgZgSgKDHFH/AzHUV9JKSkmV1dXVlCLmb09hiqU4VdIucl9fzf/v377+1X79+bwQrfajr0DWH3OFJBUOP70HAFAQg6KYww2mF0FPQbSUlJQ9C0M1paHWpVB66nJeXZ5igY6e4+GgTyVFK9Br1sDMEXQ+K+qehq6AXFRUtq6+vL49PD12n9WDh2CgGWUPQwzEU7gEBECACEHRztoOkEHSNeqnxMnMaMtRSQdBDJYbrQQAEmAAE3ZxtQVdBLy4uXupwOGbGp4duTgMZVapIBH3r1q3DS0tLt+BwFqOsg3RBwNwEOhN0m9VKJ7VYvF6v78AWq9Vq8Xg8Xpy2ZrxNIejGMzYghxCDCX4u9yfoL7744i0XXXTRm8EKzIIuWSx2p8vV6eWyLMsYQw9GFN+DQHwREAR9vtvtTqfSBzttrbKycmp5eXlNfNU0vkrbIeiRThWRZZkmxS2pq6ubBQ9d/0YQooQHLYAfQT/84osv3hqKoGv10CdOnFhVU1MzGxvLBDULLgCBuCBA7/slS5bMnD9/PgTdRBbT1UOHoJvIskGKAkGPH1uhpHFGIFLvKA6qC0E3p5H0FHRrcXHxEofDMRseujmNLZYKgm5+G6GEIGBWAgi5m9MyEPTT7KJ3cNuchjdM0FX4aAw9bkLuSeBZmbM1olTxRgCCbk6L6S3oix0Oxxx46OY0Njx089sFJQQB7QRi1wOFoGu3UjSvhKBHk7aJ8jLMQ1fVMa48dBPZB0UBATMTMK+gx66TYwZ76SroRUVFi+rr6++Gh24G03ZehkgEvaGhYdjo0aNrMcvd/HZGCY0hQMeHJvOqDfMKujH2jpdUIejxYimdy+lP0F944YVbLr744reCZQVBD0YI34NAYhOAoJvTvhB0c9rF8FJB0A1H7MsguQOA0WGMXDohYFADhKCbs9XpKujFxcULHQ7H3EAh9+SYP25OQ6tLpRb0Xr16ffz888/fapCHXl1TUzMrmUOU8dEqUMpkJhCK9kPQzdlSoiro5kQQn6WKtHMUiaBv3bq1oLS0tC6EMXQIenw2M5QaBPwSgKCbs2FA0M1pF8NLpYOg06S4dJeGvdwnTZr00Jo1a2Ya4qGH4lYYThUZgEByECBBX7x48ewFCxbM07iXu1xZWTkFe7kb2z7MIOiROpvGEjJ96uHhSxhBN719krmA6G0lqvVp69fFixfPWrBgAe3lbvfNF1FOWKPT1fh34bQ1uaqqampZWdmaRGVihnqZQdDNwCHpyhCJoDc0NAwdPXo0hdw1eegTJ05cUVNTU26Ih550lkOFQSD2BCDosbeBvxLoKei24uLiBxwOB61Dt5Jg8Hm4lDELiDkxJF+pIOjJZ3PUGAT0IgBB14ukvulA0PXlGTepRSLo9fX1Q8aMGePQ6qFPmDBh5dq1a8vgocdN80BBQaBTAhB0czYQfQW9pPgBRx08dHOa+tRSQdDjwUooIwiYkwAE3Zx20VfQT4bcA65DNyeC5CyVT9Al+p9EwyFyKOvQt2/ffldRUVGD1WpNdzqdHQApTZoEwx9lYox3woQJNevWrZuanKRRaxBIPAI0y726urps7ty5C51OZzrVkCbDiY4CD7nabDaLx+PBpLgoNAMIehQgmzELfx76Cy+88KuLLrrozWDlDUXQrVarXFhYuL6urm5isHTxPQiAQHwQIA99/vz5s5YvXz7f6XTaWbz5vULiTn9jofd6vRD0U0xrzAoQPQU9paio6AEczhI3D6SvoORFs4euVdC3bds2qLi4eKtGD10uKSnZsGXLlokYQ4+PtoFSgkAwAuShL1q0aNaSJUvudTqd2Szk/JO8cvqd/iNxh4cejKg+30PQ9eEYd6lE4qGHIugWi8UzYcKE9TU1NZPjDhIKDAIg4JeALMspCxYsuHvp0qULnE6nlZ0D9tRJxPlDv7vdbnjoUWhLEPQoQDZjFiEdn6qKDm3dunVgSUnJNi0eekpKinPcuHFbVq1aNVmSJC/17OmnGZmgTCAAAtoI0PGxixcvvveBBx6Y63a7Mzm07vF4xMifLwLIHnpFRcW0mTNnrtaWA64Kh4Cugq4czjIH56GHY4ro3uNP0Pfv3/+rfv36vRGsJNu3bx9QVFS0XYugS5Lk+tnPfvaX4cOH78vIyGil8Tan0+m22Wze1NRU6rlraoNer7fjOjqImstILxaxvOJ3/Hd/fwtWR/F7GpII5Xr1tVruD3U4Qku9BUZhld+YUb5v6HRWZ3X9IuEf7r2Rtptw8/V3X6RtqLP7aZ5LoLLSdy6Xy0YsyPu22Wyy1Wp1u93utOeee+7m3/72t7fQM8zC7Xa7fWF2cdc49tArKysh6Ho2Cj9paXqZaimDLMupysYysRP08HZB1VK9hLsmWoJOou31etvtdnsLPfXKtpAuSZLSlIffp85+3ijBREi3tptwxtWnQkbzDWZffWqBVCIiwGPgNN3G5XL5ImtpaWk+YT9x4kSWJEmp5JULnniHoNO19LyzoFdUVEwvLy9fFVGBcHOnBHR7aGMt6Mmi5XrV05+gHzhw4Lb8/PyDnbUY8py2bdt2S0lJyT4tHjo/1CTeKSkp5JH7kuffxWVueFZBAATMRUAQ9I4JbvTM0nPME99Us9k7nm9+zpXr5eXLl0+aMWPGOnPVMLFKo7eg03nosxFyN38jCVfQqWZbtmwZPGHChHo6ZYl63/Rgi+vR+XAG7rnTPZ1HrbV0U7RcEw3u0S0Hd3jU/AL9PRoEzJSHskrDTEVKqLKI7wmxYmJ7ZBvQT4rI8buAfqeOe2trqyUrK+v4qlWrppaWljYkFCCTVQaCbjKDRKs4fgT9f4qH/o9gZXjxxRevKCws3PHpp59e2N7e7hs/43EzZROJU8JuEQ5BBysOvo9jApFGaNC2jDe+PxuJy9PUHXd6B2RlZVlOnDhh6dKliyIaK7AAACAASURBVKWlpUXu27fvWytXrpz2y1/+8oDxJU7eHCDoSWr7SAT9yy+/7FpYWFj91FNPjbLb7TZ6oHkyDIfSxQ0m8NJN0kaGaic8AfE5JyF3uVy+Onft2tVy/Phx3+8ZGRnuq6666undu3dP7d2790cJDyWGFdRT0NNKSkoW1tXVzULI3QCL6hzpjUTQqXbLli0bc999962l4XAeQ+M1qGI4WOzd+wsbQ+y1t5VwwuyResDaSxfelZHavzPvMbwS4a5QCJD9uBOvTIClTWR8oXf6KJE754wZMxY9+OCDy2jVSyjpR3Kt0as0IimbUfdC0I0ia/J0IxX0v//9733Hjx+/7u9///u1NAOWQmvNzc2+Ga30kqX/qLcejgiJ6JLxoQzUdCJlacYmGajDobX/GmmHwFRMTNjY1R1y9VkNxI8EncbN6Tv6nZ57EnT6z2azuXr27Hnw0UcfnXTZZZe9Hq6gmxCNqZoOFyYuBV3rw25K4iYpVKSCTns5V1dXlyxZsmThsWPHzqAxMwq700NNPXQSdnqwxReueiIN9+BNgsSUxeAXqFr4mGUwQYvUQ4/3Zy0YH1Ma3USF8teJ5A47FZOWsLW3t/smxtKHnn0SdXr+6e/p6elN99xzT8W0adPWdO3a9UsTVS0hi6KroBcXFy9yOBwzYxByj/y9E3kKcdVAIhV0quy77757zrJlyyY/8sgjExsbG9PpQc/IyOjooVMe9FDzB4IeehMRX57qlyvxDCZYkQp66CUOcofK1QpW/mD5B6tfpOkHyz9Zvlc/u9wueVY7PffkpbOg0/BbVlZW609+8pOn165dW3bOOef8O1lYxbKeiSLosWQYl3nrIei0n/MHH3xwweTJk+e8/PLLhS6Xy0qeOoXe+cPrzvFiDa+ZGCnoWvqwRtstmCAHo+avkyjeY3T5g5Uv3r/vzEPnEDsPs7W0tPjC7Mq4uftHP/rR/srKynuvuuqqNyRJ+uac5XiHYuLyQ9CDGEfLS8/E9g1YtFAFvbMxrL/97W/5K1eunPDYY48NdrvduSkpKSn0cCt7OPvKwEvbxAJF+jKPR+7hlNlut/siHeT18AuTPCF/kwyZtTofMSRK94lnV9O1wYZGQiq3Tg+NIgy+rMXJVxTmJRbsDdLQjrj3Ae9ORvfx3uJcfrS5kCzpNwIkDgNlZmZa2trafJxzcnJo2M3b0tLiuv322x9fuHDhovz8/LdwdkNozCO5WldBLyoqWlxfX18eg5B7JAxifa9Or7/QquFH0D85cODAr/Lz84OuQ1fnRAeuHD16NG/nzp23b9++veSf//xnfmtra6bX66WDWIKGhUMreXJdLdqJz5jmv4lnTquFiv/NnapAwx3iqVhqYY81abHu3I78/Y07Mbzagjo9JDC86iLW9Uik/NVzOsgeJORNTU2y2+1uu/jii98rLCzcM2jQoD3nn3/+RxDz6Fofgh5d3qbJTU9B50rJspzx/vvvf/eJJ5742TPPPHPrxx9//J0vvvjiW16vN81iofer1+dJ0YcOW6GOQCch0Xja61u350jdQNLT073kgXq9Xpm2wqetdzMyMtrpcIzPP/+8h9rT9tPZ6pikxKzJDuylqz1YtagH92jD7Y+evE9rSJwnWvH19JOHc9gjZwGnOtFBQLm5uY0tLS0pKiZsq0DtK2JbCtEss7ThiOskMlTaBLVHOT093WWz2Y737dv3vzfeeOMf+vfvf6Bfv35vS5LUZpqXXRIVRDdDy7KcBg89flqOEYIuCLvtyJEj3VpbW7u//vrr3/N6vdl02hOf+GS1Wq0k6OIJan6EKJS2Gcq1ZjRSx4tfPIGMeXk8HvqVxJyuS8vMzPz6+eef/+XWrVuLW1paMkSRU1eOQu30AuYVCBS+pw+H8DkUb1bvnMrL3jaVlerBHjjvJ84dFKqDshWx8/rrr98/ZMiQ3enp6U6l8xhQXPlUtc5O8QvQaDprd4HFPHAfKBrtWFMnI9BJeMIz7EsnLS3N853vfOfDs8466z+9e/c+asaHK5nKpFsDIkEvKSlZUldXV4aQu/mbkJGCbv7ax38J165dO3769OmVXq83i2zJ/wUSdN5zn0PwvKSQw9TifcEmmp3W+fL52vp91F47dzpovFZZCuWbUc27E4oRB0VkWsrKylYvXrx4bqjH0upXC6QEAtEnoNtzCEGPvvEiyRGCHgm92N+7evXqaeXl5Uu9Xq/PQ/cn6OSZZ2dn017avu/5EB2ZDqvV5KdFr57qDUw4Z3GWdXp6us9bJ6+dBJ0PAaF68dCDEolwzZo1q/rBBx+8V5IkT/RqgZxAILYEaByTIk0RP94k6MXFxUsdDscMeOixNaqW3KMu6NjqyWcWvZ63qqqqqffcc8+DHo8n3Z+g83I38mrpkIycnJwTZ5555gcZGRk05ulUxN03Jk9j8/QOoN+57QhRYbHTf5oDIN6jbnchvFfU7x8ui0znbre3t9tcLlfa0aNHz25sbOzicrlSSNR5EyPfeLrHQ3C5CM777rvvoYULF87HWK6WtwGuSRQCunroEPT4aRYqQbfk5eXRaWthzXKPn1onTkkfeuihSbNnz66UZblTQSc7X3zxxa8VFhbuuuOOOx6n3bpoWWFaWlo7zVK0nYxn++1u8XipntTEcWp/6VKZrFarzedlnGykcmtrK50XkPG73/3ummeeeea2p59++g6n05lO3jhvNUpp0e9K58Y5d+7cFYsWLSJBb9Wz/EgLBMxMAIJuZusYWDYIuoFwo5D0Qw89NOXuu+9e7vV602k8nHSZbMpj4rzBT79+/V6vqamZ8rOf/ewVi8WSKknSN1v3RaGcemVBkwJpCdQHH3xw3ty5cxc9+eSTv25ra/PtTshbDXPdrVara8aMGQ9VVlbOg4eulwWQTjwQ0FXQi4qKltXX109HyN38poegm99GnZWwurp62t13373U5XJl8DgzCRptusIiR0vdVqxYMXXKlCk1NAE8UcaTn3zyyZsLCws3NzU19SEvnQVdaNOesrKy6oqKCpoUhzH0zhoShsLi+0WgKn3MBT3cVazxbAUz1DmAoN+an59/8HS2cfrUx2mxtbRt8tDnzJmzzOPxZPIYOs9k55OvyJa7du0afskll7ytJc14uebDDz88Y/z48Y5nn332JpvNJpGgU4SCPXQS8fLy8qrly5ffA0GPF6uinHoQ0FXQi4uLH3Q4HNPgoethmvDT0NJhCE3Qwy8L7jSGgCLoFbIs23nrUx5P5hnt11577R927txZ2KtXr2OSJLmNKUl0U6XQ+5EjR7rPmjWrZvv27XcFEXTy0L3RLSFyA4HoE+DJtnEr6FpEK/pY4ydHCHr82MpfSaurqyfPmTOHJsXZeXIYbyBDy7tovXbv3r0/fuSRRwZfffXVryaKsFF9P/jgg28PGTJk7+uvv34Fb3/Ly9aoXdOw+syZs8hDh6DHdzNH6UMkELeCHmI9cbmKgB9Bp73cb/Efcgc+sxFgQZckyU4hdgo588Et9DutPacZ4rNmzapYvnz5AxaLpTURRF2W5dSampri+fPnL/3yyy+783ADh9yVdu2ZNQuCbrY2i/IYT0BvQV/ucDimmifkDj8+UBOCoBv/cBmZAwu6xWLpCLnzBivihis9evT438KFC38zZsyYnRaLpS2EteFGFj/ktDmkeODAgZ+XlZU9+M7bb/9Qtlgk3vFOFHQaN585cyY89JAp44Z4J5Dggh7v5jGu/BB049hGI2USdFqH7na77bzfOe9tTrYlb12ZAS736NHj61/84hdPDB8+fG+fPn0+pnPsaY13SkqKTILIH7qHPm63W6LvolEPdR6+HWWUaftiOej3J5544s5HH330pn/+859XKJvh+Ga4U31p/gBNilMOaIGgx8J4yDPmBCDoMTdBbApghKAn8KTy2Bipk1xXrFgxuby83DeGrt77/OQ4suQLw9PWr+Sxt7e3e0ksbTabiwSTzxMXDmfR7V2gIywSd0rOV16lXmnCiX0dW96K69HpGPQZM2ZUVVZWYgxdR2MgKfMT0O0hVvZyr6irq5tinpC7+Q0QqxIaIeixqksy5kuCTmFleu7UB6ywoIvHiooiz4Ko7gj446jlmkj4BzuelevGY+V0PU+AE09Zg6BHYgXcmygEIOiJYskQ6wFBDxGYyS6nZWuzZs0iD10R9G/mi4iCzmeEkwj6E08x5O6visEEN1IswToMFErnD9dL3EhHXIPPG8yQh65sLHN3IkwEjJQx7k8eAroKenFxcaXD4ZgMD938DQiCbn4bdVZC8tBpJjcLOgu3eA8f0MKeOm8NK3q2wSjEQtBFkeeOCJVDbLNUbq4H/V1cvgZBD2ZVfJ+oBCDoiWrZIPWCoMe34ZXDWapoljt5pizo/oSPasriznYP5hnHmo5a1Kk8/gSd/+5H0B+qqKggDz3w1q+Y9BHQzEBzKhq9Tkk0+rnSVdCLioqq6uvrJ8FDN9pskacPQY+cYSxTWLFixUSa5W6xWDJoNrs/QRdD1fw7j5+zEJpd2Kmc7KWL4+iiwKs9dFmWaetXEnSaFJcQO+TFsq0h7/ghAEGPH1vpWtK4FHS4DR1tQBR08tDpP7UXzp55Z165KPD+GlisQ+4s1mIHxF89qR7MQJnlvrKqqoo89G/W5en6BCExEDAfAV0Fvbi4uNrhcEyEh24+Q6tLFJeCbn6sUSshjaHPmTOH9nJPDyboYqHYy2WxDybYRnvw4hCBv4gC/c1mtVpoyp84m19dblHQyUOfPn36yoceeog8dGfUjIKMQCDGBCDoMTaA0dmLL+RAL2+6pmfPnp88//zz2PrVaIPolP7ChQunLV26dKnT6cxQh5/Ff+uUnWmTobbLZ8Fz+5Zl2Ttt2rTV1dXVM+J1ZzzTAkfBTE1Ab0F/yOFwTICHbh6b81KfYB46BN08NgtWEpqg88ADD9w3b968+TabzaoWdC2duGB5xMv3JOY0h4A+vJe9x+ORb7/99ke2bt06Picn54t4qQvKCQKREoCgR0ow2vfrtD29OuQOQY+2IcPPr7GxsceoUaNW/Pa3vx1Ox4eKY+RiSD1QZy78nM13J89up7qmpaX5dsWjT9++fd/dtGlT0c9+9rO/mq/UKBEIGEMAgm4MV9OlKoQjfWXziYBE/zu5vheCbjqTBSzQiy++eM2UKVNq3nrrrcvEXd9EMeebjR4DN5pasP4r1Y88c95Uhrx12ts+LS2tadSoUY7Zs2cvPeussz4xupxIHwTMQEBXQS8qKlpRX18/HiF3M5j29DKIE5D4Rc8eDgTdnDYThNlGa6o//PDD702fPn3J73//+1/ZbDbfLnEs5PEu3uFYgOpMu8nxmfDUnkngW1pa5G7duh0vLS3dOGvWrId69er1qcCStrOPyeEz4dQR94CAVgIQdK2kEvQ6EnkSBQj66QZ+//33L3rvvffOp4nWXq/XK0lSKomq1+uln149moTVavUJC03k4vQobfrParV6XS5Xalpampt2hHvjjTe+vX///l/+4Q9/+FVmZqaNrm9vbz9F0NWbryS6yIvbwLKnTlzod2LTo0ePL/v37//766677rlevXo1uVwuyW63n5Bl2TeZUPXpeB+SucXv+AS4UGxOh+FYrVZrSkqK8+yzz/5fr169PujRo0djKGngWhAIhUD8CnqwWFwoFJLgWvVEKXEtLwT91AYgy3Lqu+++23fSpEl3v/baazfR3iZ0qqjFYkm3WCwtpBeKCPvdHz2U5iRu2arYyEreIwk9iTodY9rc3GzLzs5ua25u7n7ixIk0u91upfHitra2joNK6F5/W7omi6Czp85709MpcxSGJ0Zer9eTm5vbmpmZ2XT8+HF7Zmam1+PxWN1uN3EOxVwhX0vRg9bWVm/fvn0PjRgxYvuIESMceXl5J0JOCDeAgAYCegp6anFx8YrAs9zJAdEtOw1VwyUiAbWg8+5bfIZ0z555n+3f/9ytl1566f9LdnKyLHcpLS1dsHXr1hnk0ak8Nd8/9RJK9Ri4Oi8xpEwzutkj5Q4ZD6OwHdUnrwVbZ54otuaxdBJ06uxQvclDp/H0nJwcy+eff+6rKh8Xy2Pual5G8EhPT6eOhXzRRRf9c+PGjZN++tOfvqhXhMeI8iLN+CWgm8KSVzN27NjVmzZtGsvKzQ+PvzG+ZHnRGN00/G3MoRZy0Rvnmc8if3qp9enT53/PPvvsrfn5+Qe/uT/5tmajJWHPPffc9cOGDav/8ssv+1Ab5r3SxdnkJMT0XaSC4K9jIIo25U0ftiH/zj/VM9y5s6EOvRvdDmOVvshKzYb+Hal9Iq0X2SEjI8PXAXQ6nfLIkSM3rVix4p6cnJxjkaaN+0FATUA3Qf/000+zpk2btmL37t2lqampkhJqOiUkqX7JBBMjmCs4AbXnrb4j2NKlzMxMS3NzM42hH3n55Zf79+3b943guSbuFbIs54wZM2bh5s2bp1itVt/zIU4gVP/baMHoTJjVKxfEsiWuhU6tWbD2H4yD3o6FugtM7YPehfQf5XXOOefQcrqSa6655pVgZcP3IBAqAd0EncKUo0ePXlRbWzuVHAoKddH41Wk9CEm3LEOt6+nXJ8A4vBZPTLyGO1H8N7IThSa7dev2+UsvvXRjfn7+PyIHG58p0BymP/3pT1cNHz5868cff3w+T6xiz08cpuC/6RV6F4mpIwFqoY5UxOLTOuGVOph9jB5DJ0GnSA49Z/TstbW1Oe+///6qefPmzcM+8+HZFHcFJqCbusqybFu6dOmU++67r5o2u6AsOVTJL79wDBHsgQwnzUS6R4uH4c/DFLnSGF/Pnj0/fPLJJ3996aWXvplIfEKpC7XhSZMmLdmwYUN5amqqjTYp4VUAasH1d0BIKHn5uzbQskLRVsGeBy3tIdJymuJ+pTMerL7BeBldF+4E8tI6q9Xquuiii/5ffX39xO9///uvG50/0k9QAgFGQ3UTdMJWX18/ZNSoUdu7du1qI6+P1obyGKAaqxbPMkFNoWu1/G4Yo4y5ckeKw8LqCVh0L71ovF6vfMUVV7ywd+/ekrPPPvsjXQsYJ4mRmL/99tv5t99++25a601c2DNWh9X1bLudpRVsuETtuQfqJMSJCcIqplqwgwl8WJlEcBOVT4wC0Oz7lpaW1nnz5i259957HzSNl55802UisKp5b9VV0J955pn/GzBgwKMulytXkiRaFnLabOBQe8xme0DNZkoxPOuvbLxxDH3HLxZeKkWiReHAtrY2b0lJybqqqqr7unXr9rXZ6hiN8lC4/Z577plXXV09y+VyZdBMaWJLHVPuGIn8Qm3HWuoQaVv3V6ZI09RS7lheE8gOWutthB3VPNhLp8lx9Ox5PB5Xfn7+n3bv3j3l/PPPfyuW/JB3YhHQVdDfe++9b0+fPn3jU0891Z/WyvKhCWrR0fqwafFAEsscoddGPT6uDttyyJhDxOxtkpCTaJFgde/e/euamppxQ4YM2RN6CRLjjj//+c+Xl5aWOt59991LabyTPuIcEOInRjjE9eNmImB2jzXarIIJdijvonDLTnlQm6L/mpqaLDTE5fF4WpYvX14+efLkekmSWsNNG/eBgEhAV0GnsOXatWsLy8vLV6ampua0tNAeHN/MEhZDiGqBCWQWo2cRa20OZo5IsdiwJ0B1EjcZYYbieDB55/RiaWpukn95/S/3ORyOsjPPPPOwVh6JdB0tubzvvvvmLFu2bJ7X603Jysry8aMxdGqzzFIc3mDmkbZPMU2tk920XpdINgpUF38z/cV3TjQEuzPO/MzRahI+t17ZM0D+5S9/+dSGDRtmnHfeee8ng61QR+MJ6CroVNzDhw/3WLhw4YINGzaMSU1NTeOwOx9tyF47h3v54eMHjxo9X0MCZfQsVOMRG5sD8WJx4ZcHz6wlL5w22uCwO/+dSsRzGy666KLXHnrooXtvuummZ5J1f+u33377/JKSkk3/+Mc//i8lJcVKUQtix4Ie7IVtrIWRulYCZly0wo6L2JkWOiGu1atXT5o4cWItbSmstZ64DgQCdnCNQHPw4MFzqqur792+fftwq9WazgIthnt5bSYfd8jiTdfw9dTwA02qM6LcMUkzwrcQdZSYGYfRWYgoxMcdKt5JTKzjmWeeeaSqqmru4MGDG5JVzGVZtq9Zs2bE3Llzq5uamnLIk+Kxc3FjJOamDuFG6qH7a3MRNgmDm7G5S2dw5UNOnsWbhZ3ec9SGlP+8P/3pT/+4ffv20mSNjoUMFDd0SkB3D51zW79+/cg5c+asppckh9pZnHkJB70wxdnEdK8yaaRjMh0JFj6BCRBTYsSnTdGLg8d+lbE6X6eIZ9sKM97lm2++eU99ff3YZD4w4oMPPjhz8uTJ1c8888yAHj162I4dO7mBF7VNevmq54GgLYJAKATESanitrOcRlZW1pf19fXDBg4cSNvBYiw9FLi49jQChgn6li1bRk6fPn3ViRMnuoohYfZwSGSys7OdHo+HTpKSPR6Pze12p3i9Xjomkg6m8A1bq089gg0DEnDTwU70bWZmZnN6err0xRdfZFGHiQWdhV95sbjHjh27dtGiRb/p3r378WTl+s9//vPs4uLidX/5y19uysnJkRobGy1dunTxiTkNV7A3JfIJZV14snJFvU8SoHbEw2L03FHboU4ivd7oebRarc3Lli2bNnDgwJ19+vQ5OekIHxAIk4Bhgt7Q0DB00qRJ61paWnLZM+dwkyLwnssuu+zgqFGj6iRJssmyTGJOR0Z6bDab72c4dQrUAQjn+MNw8g92D3Vegl3D3/PRmp1dT9vsOp1OidKlOra2ttJpUs2HDh367tq1a8va29vtPLGLvQVlf3Lv+PHjV69bt+4eSZKS9kUiy3LXDRs29F+/fv2MN9544wpqP/SipUNZUlNTZbfbzc+I32clBHNqNTuuS1ACNhu95mRyUmx2u92ZkZFxrLS0dPPIkSMdl112WVLu/5Cgpo5ZtQwT9G3btg2ZMmXKxsbGxhwWdD7oggSdzni+/vrrH92+ffvY3Nxc8hBJj3Q5YzpmNGOYsaLnrOvys88+e/2gQYP2NjY2dmPuVDxiT167y+WSR48evXLTpk1zJElyxrDoMc+azsY+ePDgdw4fPnyG1WrNIDatra0pqamp1pPHoJ/8KPw6nhmxkxhKR40rTC94/p3vp01+6G9ieuJ16u9EeOpOq8fjOa3MvD99Z/cFMginF47B1HVQ11tMkxmIf9PC11+nXV3fQIwC1UmLI0DH11ssvuPpT/lwmWnCG6Wj/NtDfkt6errHbrcf/+EPf/geDmoJp0XhHn8EDBP0urq6oRMmTNjQ3t6ew2ujVcIi33jjjbv37NkzGQ1a/8b57LPP3nLbbbfta29vzxA7UsJEL7mkpGTVxo0bZ0qSRGd94wMCpiXAHVbTFhAFi5yAmdcGR167qKRgmKA3NDQMGzdu3Pr29vZsnlwkCjv1wm+44Ybd+/btm5KTk/NFVGqbRJk888wzNwwcOHBvU1NTV56ESNVncSePqbi4eM2mTZvKTbP9pIntQ4JiVPGSdYWBUTz1TlcP28PGelsF6UXVQ3c4HAWTJk3a0NLSkq2EeDvERCkIzbLeTaezfetb3/oc5tGXwJNPPnnzr3/960ecTme6MsTRsY2pIvAyTYqjjS20Cjptj6qUkn+SyHFYN2DYXrhP30qGllpHeJtfrsqLmspv5SiF8jdf/bA2ODTA8XR1NJ1Bpf3THBeKulPbouxpLIeHV+hv9DvF7Sk8T9fRBFczDEH6nfOjlDFQJ5f+niVJ0ol4ahOJUFbDvA4KuU+dOnXjiRMnfILOMz0JmjI5ztO/f/8927dvn5Sbm/tVIsAMvQ7GvVbIQ7/jjjsebmtryxbLxcsAaZx4zJgxazZu3FgWLOROIvfWm2/m19bV3Xr48GHfsaInTpyw5uTk0IvI+tVXX0k0q57SVEL6tGqBtrqUxH0ElPHIjjan9nxUXkzHWLLw91PGl0PxepSQLU8etCp525SNi3wvWjp/gF6oFouFhiDS6MUbaJ25v7Fo4hypN6e1Tv7GmbW2v0Bl13p/uPXUWjdKP1j9wqlDpLYJhY/SITxNDGlOnFAOmgCcqoytt9N3kiSRkFM7dSnj7pztafMtlDzEd7jvd05fGP/v7Jk7TQPE+QrKdrUy7UNvt9tlWgWiPNs0D8dKe15kZWVJNIGXtrVNSUmR6L8zzzzz45tvvvm5fv36vXHWWWd9Eio7XB8eAcMEvba2dsi0adM2kaDzlqTi8g232y3fcsst+3bu3Dm+a9euX4ZX/OjcFY/jd3/84x/733bbbXtoyEN5QXYslVGWY5Gg1yhj6CdPIAnweeSRR65duXLl7BdeeOEmEnC6TB3GpweftvpNSUmRxSVfYpLGdV8MbQeGPSOGlhqJxwMBzSteDK4Mt3FN5VE2AZN4+R1vmsN7Yii7U3rPOOOMT0aNGtVAy5d79+591OA6IHkOlxpBYuvWrQMnT568+cSJE7nk5QjnAfuyox74rbfe+jAJOibF6W+BZ5999pqBAwc+RR0qPjmMDxRRNkuhkHvNhg0baFJcQEF///33Lxo0aNCWN95440fU46fNavhBpgeX/k1Lt9ra2lzf/e53P/rxj3/817y8vE8yMjKcTU1Ndvqp9ozEf/ubRSx6CMqeBH4981NmPmuZjuwHs1gW/r2z8qmz6eTaUzoCwYrXySxuTS9ZLbPAQ2llwcobSlr+rtWrvCGUs9OOWQQrFvzaJ1D91FEKYSa8L51A3wfjrSp/SB55oLSVJTO+8D/tF0K7KGZkZLTS9t6vvPLKNe+//34/WiFC7wH6iMuS6ZjY48ePW0jUZ8+e/UBZWdmWYJHAYHXE98EJGOZ97Ny5c9DYsWM3tba25pIA8KYK9FMRFu9NN930SENDQ2ky71QW3EThXfHUU0/dUlBQsP3rr7/OVTaw8Akxr0X3eDxyaWlpzebNm6cGVCBNTgAAIABJREFUCoUeP368+9133z1jw4YNs1JSUuzshZP96OGmHekUe8r9+/f//cSJE9f+9Kc/fZU6aMoYIL1nTj7t+IAACMQ1ARJvi8VCc2Xsf/vb3y6kpcm7du0q+uKLL3rz4TNUQR5mI6Gnd8sPfvCDl9evXz/5Bz/4wRtxDSAOCm+ooBcVFW32er1d+YAQDs2QsNCmHZdffvmfVq5cuaBr167/sdlsNjoUg3usfIQlbZoSjGOgXno442x6RS068xxC8CqCVd23eN/tdlttNpvH4/HQwSIptBnKU089dfvy5cuntre3dyUPmrx0Gu9icW9tbaUz0Gu2bNlCHrrfCW0HDhz4aUFBgaOpqem85uZmnyeubLri88z5RLIrrrjiL9XV1bN//vOfvxSPwxNBISfZBRrGmtXPpKYoAmMMZSzdKPQa6thR3ABlOK3OZqiXUbzU6dLJmkePHu15zz33zN2yZctEmgtA7wN6P5C40/uCnAflfXHi3nvvXXb//fdXGNXBpxMTv/jii3R653fv3p2ciJDapFA/nujrm5D42WefkTRZe/bs2dZRdhOPHQYVy3AbyOOPP35zcXFx/fHjx/PYM6S0eCtNMna3bt2+ysvL+zA9Pd1NG3jQQ2a1WmkzDxqHZbB+J4OEW65w7tNTgAPlHywEGSgkyPvk22w2EnZqhFJOTk774cOHv3vkyJFv005y9HCJHjV51W1tbfLMmTOXVFRUPBBI0GfPnj2vqqrqbouF9Dvd0traShNgfELOaTqdTs/9998/6ze/+c1KbAwUTuuK7j3ocEWXd6Ln9tRTT/188uTJ6//73/9+j8+L4EnQ5MjRe6epqUn+8Y9//NzGjRun9uvX75+hMOH2+sknn2T+61//+uE//vGPi48dO9a1ubk597PPPuuSmZnpoiOPm5ubs5qamrq0t7en0i6jNEmP7lXej351ThlS6CiOMmRAqxF8gQb6P1Jz2jUyLS3N26VLlyar1dqUnZ19/PLLL//oyiuvfOuyyy5722Kx0B78vlUModTNiGsNE/S//e1v+STob7311uUkMupjUMWjPcVT1dS7mmFrzc7Nzmv7hUMgZLvd7m1vb7d1797d55XT7FMSYhJk9rJp+/wHH3xwcllZ2Xp/OXz88cfn33HHHesOHjz4CxoeYy+fwuyUV05OjuXrr7+2nH/++W9u2rRp4nXXXfeyEQ0UaYIACJiXgCzLWWPHjp3f0NBQ3t7eLnXt2tVCM+E5gkfiTu+g9PT0xrVr144ZMWLEXq3CR1GAN9988+IdO3YMefbZZ3/6+eeff5eGENva2jJou3ASWmV1ig8Qa4VwPK1vInBnH3/6It4jfE9iTf9ZU1JSPFlZWS673f5p375937/lllt+f+211775ve997/VYn4thmKBTj2r69Olr9+3bN5K8b/HYQPqdT1mjkAyNufCELQLIh4mIRjJvk45tyXhOApWChzTU3OjhouEM3vaVRLlnz56fPvroo4Ovueaal/09YPv27btt9OjRm44fP34G2YhC9hRpoXv56FtaqTB06NCNq1atmhPrhhxbKyB3EEhOAuQFb968eejcuXNrvvzyy270rqAlbuRE0LApRfKUsLs8derUinnz5i3WMmeKjjV2OBwDFy1aNOOTTz75QWtrK0VtrfQeovcZvcsobXFZKYuv+FPtSIZjJfEsDKoLRyCcTqfPI6eI8ne/+90PBw0a9Ohtt92299prr31HkqTmcPKK9B7DBJ0Ktnnz5lFjxoxZa7VaM9kL561Heaa0CJy9TfEwl2A9rEgBxPv9HHIX6yEy5Q6SOPZND8ewYcO2VlZWlvfp0+e0XfqOHj3aZcmSJfesXLlyZlpamu/8Wj4lio+8pX/bbLavq6qqysaPH18X7xxRfhBIXgKRDQq/8847F4waNWr9wYMHfy56zCS27EzQ7+ddcN47O7btGHrllVe+GcRrlmprawcsXrx4ySeffHJBW1ubT6d4tQ4P25JOsJ6ITkwoUd1Q9YVPDuVjvoV6UIdD7tu37xuFhYUN9E7s1q3b19FuU4YK+qFDh7qOGzdu28svv9yfZj1Tz4Z6VdzDojEW9swlq5W26zrFW+ewfLShxFt+vM6fWCpC27GEhOpC4XZaI04PBM2hS0tL+2zXrl1jb7jhhqf8LJOxvvPOOxcNGzas9uDBgz+ksXk+G5y8c+oYUKP2er2ufv36/WXHjh2TLrrook4f0HjjifKCAAhoJ0Be+tSpUx/cvHnzZK/Xm0EhdnGfCnonkbfe3t7u3Lx584TS0tL6znZh/OCDD86bMWPGoieeeGKIsBNlx1G0XDItYhxM3IOlwfMC2Nn0t9EULdGjCKhSZ3dKSkrLzTff3LBixYqV3/nOd/6lnWTkVxoq6CTir7322sVDhgxpOHbs2HdSUlK60/hK7969afZgx7InccyDRYmqJowLR17TBE5BFHTmJo6t08NEDTMlJcV5/Phxb0VFxb0zZ85c428yHM0WbWhoGDJu3LgaWZZzqKGSiCsT6Xy/K16/e/r06ZXV1dU0qY4mheADAiCQhARI0B9//PFbxo8fv/L48ePnkaCT9ywe16zsfeH99a9//fDWrVsnZWdnB9zue8uWLSNnz579YGNjY28atqYDCDlqy+81wix2GujfwcQ5HNNwBFQcMua/KY5Nh/NEwk5193q9tPdG6g033LCd3rPXXXfd69E60dJQQVfCILaXXnrpRzNnzlz+6quv/jg9PV2mLQPJGCQ0PFGLxynU0I0wUjiGjad7xA4Sj/fQ7MwuXbq03XfffYuLiopqA41jybLcZeTIkVVbt24dQ1s6KksJfQ8L7wRFjdtutx+rq6sbO2DAgEfiiQ3KCgIgoPi9Os7JPnLkSN6oUaMczz333C3ElwWdQ+IUjaV3Ubdu3T569NFHh11zzTV/9Td3hzoHEydOXL5u3bpy2kKW0iInjz1jdiiUDoLPlJ1pRDD9CObBKxrWkYc6PSqXEvnkyKXP+enWrZvryJEjtv/7v/97urKy8r4rr7zyYDRWARku6AqQtOeee+6yTZs2Tdi/f3//Y8eO5Xm9Xt8BwhTS5TERhstjwPx3PICBCYhRDNXsTtpXXaY16d26dWs5//zzX6NQ1+233/5bf+PmnMPbb799+aBBgza9++67P6AOl7JNbMfBOtSAKd0f/vCHz+/cuXPiOeec8y7sAwIgkNwEZFlOX7p06eR58+bNd7lcWWrvmYU4LS3t6wULFiyZOXPmJkmSThtj/vTTT7NGjBhR//zzz9+Znp5upcl14kc9Az2YYEdqFfbCuePAEQLWKqondzhoaJPqScPKvIum0+l03njjjY8tW7bs/u9///vvR1qeYPdHRdC5EI2NjT2ffvrpq5999tkb33///XOOHj16VnNzc1er1Upbj3YcLCCuuVadjHVqfaiHKdRA63KIYFBM9H3QPjQJurJHPo11e5XGJaWmpjozMzOPnX322f/50Y9+9Pqdd975HC2x6GybV1omsmbNmiFz587d7HQ6MygtnrxI4k6/K5sCuefMmbN44cKFyyRJajMRL9MWJbJpR6atFgoGAj4CFGJ++eWXrxg3bpzjnXfe6cuTcHkZMv+bNhS7/vrrH6aVMRdeeOGHanz/+te/aLms4+23377KarWmcmRQdFboHhZSLR52JCZSCzp77CzwvAyY3o/0vqS5SrRcmIaWaQ0+7Q3S0tLi22Z75syZK/3VOZLyqe+NqqBz5rIsZx4+fLjbZ599dkZjY2NGamqqmzZAUcSD9Nx3KpZv0V8EXTDyTvWEZWRaYe5q51syQdzS0tIIm4fq7HK5bFlZWc6ePXueOOOMM45mZ2ef6EzIhQ5Xj9GjR6/cs2fPMIqciIctcA+bzJGbm3t4+/btpTfccMMfoxFGMpI70gYBENCHwOeff95n8uTJD+zdu7fY6/XS7pW+hMWJZPT+6N27979Xr149beDAgY+rc37ppZd+MH78+LWHDh263O12+wSdvF2emKtsJ+v7NzsbYhpqgY9APnzJsqDTT06LJ3JzGXgXTvIu7fY0X33J0aLhSmW3PBpT99BGXQsXLlxh1G55vvLqY8p4TQV+k9DJkv74xz9eM2DAgEfb2tp6iicp/f/27gQ6qipN4HiqKgQxYQ/gaSHKTLQPqN0OiOh0uzRBBmiBFkeaDAgCNqZDJAYDxgi4ANoSQdHEQIwSnEYJTgBRQ5szDuJx6JERHVkFJPaIKIY1gGRPzfmKupkixNSS9+ot9a/T50DLW+793fve9959d1EdFb0dQxqHDx/+dnFx8fROnTpdNOTNqjWBdCOAQNsE5Pv3ihUr7svMzFwqa3ioYWXyMiAjZOSNVd5gpSUxKytrYXp6ek7Pnj0vaFPfvHnzTSkpKfn79u37RUxMjMwa6umEq/5sa4BuWw6D31vS6w347quvvvrzoqKiGTfddNN/BX+kwPaI8IAeGFIkbCUX49y5c59YtGhRttPpjJbgrabsVUPhvG/sVbJNZmbmS60NPYkEM/KIAAIXCmzfvn3gfffdl7d79+7BapVNNVHY/7/JRkmz+19WrFgxMzEx8YJhXVu3br1x6tSpuV9++eUAmXY1SoK5p63Wmj81gZr3m3qt2MyfP//p1voxtSWnBPS26Nlo34qKisuGDx9e/Nlnn90iLTeqU4vqBKK+gSUkJOxbt27d5IEDB26zYZ8FG5UoWUEg/ALyOXXq1KnPFxUVTXM6pdXd5Wky9zQHOxyeJmj5s127dieLi4sn33nnnTIXRr1K6a5du34pnXL37dt3g3d9iqZM+DZ7qw7TZn9jV58dvA81jb179z6watWq1KSkpP/Qo3Q0CeiehmsTtV5bcQEKo/lKS0uHjR8/fmV9ff3PpFlMXYDqG5K3c4v7nnvuebOwsPDBzp07n9CjQnJMBOwtYPSVrr9uUVHRlLS0tMWNjY3xMi5bBWK12qO8qf/4448yFezzy5Yte8LhcJxRqZIXixEjRsgaIENk0RXf4WlqG9+e5mYP6JI+uXeqdLpcrupZs2YtWrhwoXQobnqQ0apUNAnoWiWG4xgjIBMApaenz8/Pz38kJiYmRoZdqJ9ax947jWNVbm5uxrRp0wppbjemrDgrAmYXOHjw4FXy4L93796B0jFM3UN8Z7GsqalpvPbaa/973bp106666ipZsczzk3vRqFGjisrKysbLqBvf7+fB57vZMKjgD9DmPVRnPtWiIJ2Yb7755tI33nhjpsz/3uYTNDsAAV1rUQseb//+/f3GjRtX8MUXX/xKetv7fvtSPTalIl5zzTV/Xbt2bVr//v3/h+Z2CxY0SUYgDAISiB966KGc5cuX/6GhoSFOrSchQ7ukyV11kGtsbDyRk5MzNy0tLd8noDtnzJjxVH5+frY0uasWQqt2ipNPlfKTfMjDjTyzJCQk/G9ubm7q6NGjN2ldHAR0rUUteLyioqLkBx98MPfMmTPdvMMsPBeeNHf5DBNpTE1NXbZs2bJsxp5bsJBJMgJhFHj33XeHpqSkvPbDDz/0UUFZ7inyxiqzg3oXbXGPGDHi31avXj3ddyGT119/ffzMmTOXnT59umfziVzCmAVP8A16JFizPVSeJR9yP5Vv6Z07d66cO3fu7MzMzCKth7AR0MNcQ8x2OunEkp6evvDFF198SB6H5fuW/NTYUamI8u2rS5cuxwoKCtLGjRtXbLY8kB4ETCFg/8/jATN//fXXV06cOPGVrVu3DomNjXVKIJNALp1t1Ru7BPe+ffvuLigoSB8yZMgH6uCy75gxY9bv2LHjFw6Hw6nGlpujU1xwMd67hoYnmLukQ+D5F6X67OzshYsWLVqs9ToYBPSAq6g9NywvL//5yJEjV+3fv/9GmbtdmsPk4pM1jdU87g0NDe7Bgwd/WFpaOql79+7ftiTBvcye9YNcIRCKgNvtjlm8eHHGk08+mV1bW9tJrSkh9xZ5WVBj0tu3b39uwYIFj8+ePXuZeluVJvuMjIwnc3NzMxsaGtqrN3w10ka9tcsDQUurn4WS3lD3UWlp8Z7ocHgeXjyv+ueXm1abSefiFfn5+Y9qvcQqAT3UkrTJfnl5eZOysrIKz5w5006aweRtXH7yvUv+7u2U0vDwww/nLFmy5FGbZJtsIICAzgKbN2/+9eTJk1cdOnTo79S6EOpbuJpKWvrmjBw5siQ3N3d23759/6aStG3btusnTZq0ury8vL9a2EUNf/NdoMXoXu7+ArrqjyRv6PJQ4216l08N61euXJnaq1evH7QsBgK6lpoWO1ZFRUWcNIuVlZX9Xqbele89apiJeqKWCihLHW7YsOGfb7vtto8slkWSiwACBgnI1N7Tp09/YePGjePlU568natV2CRJah2K+Pj4v61atSplxIgR76ukVlZWdps3b95smfP9fJ+y8zOuyT7SdK8WpbJCQFcPL5Jm75Sw7iFDhrxTXFyc0qNHj++1LB4CupaaFjvWJ598csPYsWNLDh8+3Fu+c8kTsFp3WK1419jY2HDHHXe8u2nTprsZqtZiw5q374zFCp/kIqCzgMwHkp+fP23OnDlLqqqqPM3u8sKg5kBX39PdbnftI488snjWrFmLe/To4RmTLs3uO3fuvGr8+PGv79mz5wbfzmlqbLe6V+mcjVYPH8gbuneRlqZm99raWvewYcOK33rrrZmtrQsfSr4I6KGo2WSf7Ozsx5cuXZpVXV19iWoSUzM5qSfompqa+tzc3IfS0tLybJJtsoEAAmESkOWYx44dW7hv374B8klP+uioFdjUvUYC8+DBgz9asWJF6vXXX980Jl2SuHLlyvFZWVkvHD16tJe6J8mbukx+JX+qZvgwZeei0wQS0KU/kny6VJPkSJ+kcePGvVpYWJhNQDeq5Gx23lOnTnUdMmRIya5du34tqxqp7KmOG6ozR9euXQ9t2bLld/369ZOx5402YyA7CCCgo4A0naekpPxpzZo1f2hphTTVc719+/bHXn311fTk5OQ3fJMjneuys7Pn5Ofnp1dWVsZ37949qrKysmm9ce/Y7lZy0LxXenC91P3RBBLQpSVCvvurYWtOp7N+xowZzz311FM5Ws+4yRu6vxKz6b+//fbbv50wYcKqhoaG7vKErJYo9DZ3qXHojcnJyX9evXr1Hx0Ox/n5YPmFLsBQgNDt2NOSAtLsXlRUNDkrKyunoqIiXl4UfL97q/XE6+rq3Onp6S+98MIL8x0OR6VvZr/99tvuTz/99Jy1a9c+cPLkyc5yv1Kddv19Qw/Heuk/dQ71sKJGDalFajp27Hji2Wefzbz//vtXOxyO872QNfoR0DWCtNJh5CKbPn36M4WFhXNkHXWpkGqeZbVsqrcJvvaVV165f8qUKf9qpfwFn1YibfBm7IGAfwGZynXnzp397r333sIdO3bc6Bvk5O/eJZk9w88GDRq0dcmSJQ/eeuutnzV7S3cePXq05zPPPPPH1157bUZ1dXWXmpoa72Jsra/EZnRAlzdzaUWQ+6n8XC5X3WWXXVZeUFAwZejQoX/1LxjcFgT04LxssfWePXuunThxYp6srBYdHe2Z6lUuLGkakr97JkFwuaQSnt60adOYW2655UNbZJxMIIBA2AWk2X3ChAl5H3zwwbiqqiqnJEB9T5egru47sbGx8uaanZKSUtDS1NInTpzovHz58im5ubkzvvvuu7+XaarlWGqcuhqXriZzaen7ur83+mBxfJvc1bF9J8JRc7h37tw56uzZs9LpuE7We3/sscee7NOnj+YLXBHQgy1BG2yfl5f3wLx5856VC0QtnKCGVKhZnLxTwJ4qKCiYPXHixD8z3asNCp4sIBBmAXlD37t3b9+MjIylZWVld6oALsHW9+1Z7jcxMTENd99995s5OTkZra0X/tFHH/3q+eefn/n+++//07lz5zpJTJeOZ9LKqJq31bTVarSO77n0emv37VAszGpYXmxsrCeYu91u94ABA7Y98cQTj4wePXqLHkXhN6BbcSlSPaDscszjx493SktLW/Lmm2/KesWet3PV9KWaw1TFlGFq11133ccLFix4btiwYf8eFRVVw6IsdqkJ5AMB/QUOHTp0+eLFi9Nlvnb5/q16uKtv5xJ41Sxqcv/p2bPngQ0bNtw/aNCg/2xtmOyRI0d6lpaW/ua9994bu2XLlt8cO3Ys3tuk7VDD2aQVQD04NA/iWgV19ULkOy2t+lbubT2ok2b36OjoxqSkpJJZs2bl33777du0/nauStJvQNe/yDlDOAV2797df9KkSa9t3759sJpKUT3FquYrNaORt7NcY2Ji4u7k5OS1Y8aMKU1MTPza6XTK/MruRu9P9pMZn8KZD86FAALGCsgLgfy6RkVFnfK2N8v/l+bl8vLyjp9//vmgNWvW/L6srGx4Q0NDR0mtWppZTQyjArzcc7wLQtW/9NJLaampqa8HMs+5TF6zZ8+efh9//PE/lJaW/vbAgQO/jIqKanf27Nm46upqT/N+81/zpvG2KKp8eI/hlh7sLpersV27dg3R0dH1l19++XeJiYnbRo0aVXrXXXd9HB8f/72eL0UE9LaUpsX2ldaW3NzcqfPmzVt66tSppvmVfTumSJZ8F1CQsZ4yEULXrl2rXC7XuQ4dOpyUXpodO3Y8V1NT42zXrp1cNA0ul6tB4rovyU9VXElHK3TB1smfepDwd5yL/j3MXeMi7QHIX3mEfDV5phFr489PnfR39BDOH3BtC1s9aeV69aRBOXvnT5cMyHrlTrkPnG9hdjplnHltbe2lVVVVHU+cONGturo6Tnbt0qWLp9lZfe9WU8Cq+4386Q2O9cOHD//Lyy+//EBCQsJ3/uDVv0s6Tp8+3eWrr77qXV5ennD48OGE48eP96qoqOjkdDovcbvd9XKf8j6EqN1CKLfzu8oLjTqIvMzIfTIuLu5ct27djnfv3v1kfHy83CePJSQkfNO3b9/j8iyjZyBvc4YChWY78whIM1VKSsrid955597Gxsamp1d1P1Sd4+Sp2ffCU9/X5RuVNGPJePT6+vqGuro6dQwJ5NEa5zTki03jdHA4BBBoWcAzqFvuF2qMudxD5B4h/1/exuX7sfypWgHVbHFyONVCKH/6fvrr0KHDsZKSkuSkpKQtbVle1PuQJvcRz0uHNwsXPklpMCxdArU8UKh5OnzOK89A6rxhqUPcNMPCbI6TyPCR5OTkogMHDgx0Op0uGU6hLiSVQrV+rwrqalEB+XdpgpdAL0/h8pML13c1Id+/Nz0xtv3lyRx4pMJWAhrcx23lEWxmfL9BqxnQ1PdkdU+R+4OaTEWmP5X/LjO8yU81tau/+4xHl+1q8/LyHk5NTc0Pd0AM1sFs2xPQzVYiOqbnww8/vHnSpEmvHDlypL80PamV1dTQCt9Tq6du+TfpWKIWR1AzM3mb4pvGkcq+zTuatDaLko7ZNODQATefGpA2TomAvgK+q5+p4a8SyH1b/NTUp7Kt/NQ9xXf2uLi4OE+zfGxsbE1mZub8xx9//EVG1wRXdgT04LwsvfU333zzs4yMjD+VlJRMjIuL8/RwVxeW6hkqTWLqqdpn/d6LgrWCCMdwEEujk3gEbCzg26G2pWyqoO6IckR5/udtsfMuy9zUw122k6FndXV10qHsxMaNG/8lKSnpg7BPN23xZ3MCuo0vtuZZkzGh69evH/7oo48uOHjwYL/6+vr2ckHKLEZyoakhJLKfBHh1MbY2xCOc4zwjqKh0ySrNzLqwclA/AmoYrJr2VbXcqeFd0tqnAn3Xrl0rhg4dWrJw4cKcK6+88mtwgxMgoAfnZYut169fn/Tcc8/N//TTT/+xrq7O5e212pQ331WQ/GVYyyEg/s4V4f8e6LUatl7RBpVHoA4GJc8yp9WynvgtExXE1Xht9Znv0ksvdavv6ldcccXBsWPHrs3KynqxV69eP1hG0kQJ9VsQJkorSdFIwO12X7J3794+GzduHCod5WQ99DNnzsS7XK4qWd3I7XbL8I6m5jB1WhX4vf92Qd3RaqKGFrLY1huPlkPkLmr0CKFIArrmQh1GFY6hMSHk+aJdQs1fKOfWYlhbs/MGVIYhpLWtdT2EU/rfRbpw/4Rh8/98kYu3g1zz/y49v50y0ka+kffu3ftEnz59vpo8eXLJgAEDduo16Yr/nFp/C70qpvVlIiQHcq1+//33fSorKy+RLMfExLjr6upkzGZAPzWfckAbW2ijQCfKad++fZtvwjU1NVyHYaobbamvwT4YBLt9mAguOI3veOqWzq/+vaW8hJo/mZFK2thl2Gt0dHRDp06dzvbq1UvmptF05TEjPI0+JzcSo0uA8yOAAAIIIKCBAAFdA0QOgQACCFhFwOIdua3CbEg6CeiGsHNSKwlwAzRfabFolPnKhBQZL0BAN74MSAECJhPgEcZkBUJyEAhIgIAeEBMbIYAAAgggYG6ByAzovICYu1aSOgQQQACBoAUiM6AHzcQOCCCAAAIImFuAgG7u8iF1CCCAAAIIBCRAQA+IiY0QQAABBBAwtwAB3dzlQ+oQQAABewvQp0mz8iWga0bJgRBAAAEEEDBOgIBunD1n1lSAx3xNOTkYAghYToCAbrkiI8EIIIAAAghcLEBAp1YgoKMA7QY64nJoBBC4QICAToVAAAEEEDClAA/EwRULAT04L7ZGAAEEEEDAlAIEdFMWC4lCAAEEEEAgOAECenBebI0AAnYQoC3XDqVIHpoJENAvqhJc6VpcJcErBr+HFunkGAgggIBdBAjodilJ8oEAAgggENECmgR0t9vtcDgc7oiWJPMIIIAAAggYKKBJQDcw/ZwaAQQQQAABBKKiogjoVAMEEAiPAN0kwuPMWSJWgIAesUVvfMbNdn83W3qMLyFSgAACVhIgoJu5tIgwZi4d0oYAAgiYSoCAbqriIDEIIICAsQK8Rxjr35azE9Dbose+CCCAAAIImESAgG6SgiAZCBgnwDuZcfacGQEuJ7A6AAAGFklEQVTtBAjo2llyJAQQQAABBAwTIKAbRs+JEUAAAQQQ0E6AgK6dJUdCAAEEEEDAMAECuob0TIGrISaHQgABBBAISoCAHhQXGyOAAAIIIGBOAQK6OcuFVCGAAAL6CzDAQX/jMJ6BgB5GbE5lEQFuchYpKJKJAAK+AgT0SKkPBKlIKWnyiQACESpAQI/QgifbCCCAAAL2ErggoNNL216FS24QQAABKwoQi0IrNd7QQ3NjLwQQQEATAYKXJowcJCoqioBONbC9ADdM2xexPhmk34k+rhxVNwECum60HBgBBBBAAIHwCRDQw2dtmzPx4mKboiQjCPgV4Hr3S2SaDQjopikKEoIAAggggEDoAgT00O3YEwEEEEAAAdMIENBNUxQkBAEEEEAAgfMCoXTmJaBTexBAAAEEELCBAAHdBoVIFhCwkkConaxC3c9KNqQVgbYIENDbose+CCBgcQEbPybYOGsWr3S6JZ+ArhstB0YAAQQQMLNAKN+pzZwfArqZS8fuaeMNwu4lHLH5o2pHbNEbmnECuqH8nBwBBBBAAAFtBAjo2jhyFAQQQAABBC4UCHNTDQGdCogAAggggIANBAjoNihEsoAAAggggAABnTqAAAIIhDgzF3AImEmAgG6m0iAtCCCAAAIIhChAQA8Rjt0QQAABBBAwkwAB3UylQVoQQAABrQTC3MNaq2RznNAFCOih27EnAggggAACphEgoJumKEgIAggggAACoQsQ0EO3Y08EEEAAARsI2GVOdwK6DSojWUAAAQQQQICATh1AAAFNBeiLpSknB0MgYAECesBUbGhXAbs0t9m1fCyXL55oLFdkdkkwAd0uJUk+EEAAAd0EeErRjVbDAxPQNcTkUAgggAACCBglQEA3Sj7E8/KcHCIcuyGAAAI2FyCg27yAyR4CCCCAQGQIENAjo5zJJQLmEKCJyRzlQCpsKUBAt2WxkikEEEAAgUgTIKBHWomTXwQQQAABWwoQ0G1ZrGQKAQQQQCDSBAjokVbi5BcBBEwrwCRHpi0aSySMgG6JYiKRCCCAAAIItC5AQKeGIIAAAgggYAMBAroNCpEsIIAAAvoJMNZQP1ttj0xA19aToyGAAAIIIGCIAAHdEHZOigACCCCAgLYCBHRtPTkaAggggAAChggQ0A1h56QIIIAAAghoK0BA19aToyGAAAII6C5AR72WiAnoulc8a5yACS2sUU6kEgEEEPgpAQK60XWDB02jS4DzI4BABAvY6RZMQI/gihxpWbfThRtpZUd+EUDAvwAB3b8RWyCAAAIIIGB6AQK66YuIBCLgK0A7A/UBAQRaFiCgUzMQQAABBBCwgQAB3QaFSBYQQAABBKwtoMVII40COs2A1q5KkZF6amlklDO5RCBSBTQK6JHKF6Z8E4nCBM1pEIg8AW4v9inzpoCuxeu+fVjICQIIIIAAAtYS4A3dWuVFahFAAAEEEGhRgIBOxTBYgAY/gwuA0yOAgE0ECOg2KUiyEZoAjxOhubEXAgiYS8Dz2dxcSSI1CCCAAAIIIBCKAAE9FDX2QQABBBAIuwCdt1snJ6CHUCVppg0BjV0QQAABBHQVIKDrysvBEUAAAQQQCI8AAd3rzFt3eCocZ0EAAQQQ0EfA8IBum28iPBHoU0M5KgIIIIBAQAKGB/SAUslGCCCAAAIIINCqAAGdCoIAAggggIANBAjoNihEsoAAAggggAABnTqAAAIIIICADQQI6DYoRLLQBoEI6sxomw6obShudg2/gLkuMXOlRuvSIKBrLWrR49m7mlu0UEg2AgggEIQAAb0ZFm8xQdQeNkUAAQSaCfByYFyVIKAbZ8+ZEUAAAQQQ0EyAgK4ZJQdCAAEEEEDAOAECunH2nBkBBBBAAAHNBAjomlFyIAQQQAABBIwTIKAbZ8+ZEUAAAQTsLBDmHoIEdDtXJvKGAAK6CzAyRnfi4E8Q5kAafAL12YOAro8rR0UAAQQQQCCsAgT0sHJzMgQQQAABBPQRIKDr48pREUAAAQQQCKsAAT2s3JwMAQQQQAABfQQuDOgR2pFAH1qOigACCCCAQPgEeEMPnzVnQgABBBBAQDeB/wPWtdRmPHyGbwAAAABJRU5ErkJggg==;" vertex="1" parent="1">
          <mxGeometry x="525" y="325" width="110" height="110" as="geometry" />
        </mxCell>
        <mxCell id="vyngwg04Lc276Ec5gBA0-24" value="" style="curved=1;endArrow=classic;html=1;rounded=0;exitX=1;exitY=0.5;exitDx=0;exitDy=0;entryX=1;entryY=0.5;entryDx=0;entryDy=0;strokeColor=default;" edge="1" parent="1" source="vyngwg04Lc276Ec5gBA0-23" target="vyngwg04Lc276Ec5gBA0-22">
          <mxGeometry width="50" height="50" relative="1" as="geometry">
            <mxPoint x="350" y="250" as="sourcePoint" />
            <mxPoint x="300" y="300" as="targetPoint" />
            <Array as="points">
              <mxPoint x="690" y="320" />
            </Array>
          </mxGeometry>
        </mxCell>
        <mxCell id="vyngwg04Lc276Ec5gBA0-26" value="RÃ©cupÃ©ration de l&#39;IP" style="edgeLabel;html=1;align=center;verticalAlign=middle;resizable=0;points=[];fontSize=9;" vertex="1" connectable="0" parent="vyngwg04Lc276Ec5gBA0-24">
          <mxGeometry x="-0.1532" y="12" relative="1" as="geometry">
            <mxPoint x="-5" y="21" as="offset" />
          </mxGeometry>
        </mxCell>
        <mxCell id="vyngwg04Lc276Ec5gBA0-27" value="" style="endArrow=classic;startArrow=classic;html=1;rounded=0;exitX=1;exitY=0.25;exitDx=0;exitDy=0;entryX=-0.003;entryY=0.338;entryDx=0;entryDy=0;entryPerimeter=0;" edge="1" parent="1" source="vyngwg04Lc276Ec5gBA0-6" target="vyngwg04Lc276Ec5gBA0-22">
          <mxGeometry width="50" height="50" relative="1" as="geometry">
            <mxPoint x="300" y="300" as="sourcePoint" />
            <mxPoint x="350" y="250" as="targetPoint" />
          </mxGeometry>
        </mxCell>
        <mxCell id="vyngwg04Lc276Ec5gBA0-28" value="Auto Discovery" style="edgeLabel;html=1;align=center;verticalAlign=middle;resizable=0;points=[];" vertex="1" connectable="0" parent="vyngwg04Lc276Ec5gBA0-27">
          <mxGeometry x="0.1066" y="3" relative="1" as="geometry">
            <mxPoint x="-1" y="-8" as="offset" />
          </mxGeometry>
        </mxCell>
        <mxCell id="vyngwg04Lc276Ec5gBA0-29" value="" style="endArrow=classic;html=1;rounded=0;exitX=0;exitY=0.5;exitDx=0;exitDy=0;entryX=1;entryY=0.5;entryDx=0;entryDy=0;" edge="1" parent="1" source="vyngwg04Lc276Ec5gBA0-22" target="vyngwg04Lc276Ec5gBA0-6">
          <mxGeometry width="50" height="50" relative="1" as="geometry">
            <mxPoint x="300" y="300" as="sourcePoint" />
            <mxPoint x="350" y="250" as="targetPoint" />
          </mxGeometry>
        </mxCell>
        <mxCell id="vyngwg04Lc276Ec5gBA0-30" value="Flux vidÃ©o" style="edgeLabel;html=1;align=center;verticalAlign=middle;resizable=0;points=[];" vertex="1" connectable="0" parent="vyngwg04Lc276Ec5gBA0-29">
          <mxGeometry x="-0.1358" relative="1" as="geometry">
            <mxPoint x="-5" y="10" as="offset" />
          </mxGeometry>
        </mxCell>
        <mxCell id="vyngwg04Lc276Ec5gBA0-31" value="" style="endArrow=none;startArrow=classic;html=1;rounded=0;exitX=1;exitY=0.5;exitDx=0;exitDy=0;entryX=0;entryY=0.5;entryDx=0;entryDy=0;endFill=0;" edge="1" parent="1">
          <mxGeometry width="50" height="50" relative="1" as="geometry">
            <mxPoint x="280" y="370" as="sourcePoint" />
            <mxPoint x="525" y="370" as="targetPoint" />
            <Array as="points">
              <mxPoint x="430" y="370" />
            </Array>
          </mxGeometry>
        </mxCell>
        <mxCell id="vyngwg04Lc276Ec5gBA0-32" value="Connexion" style="edgeLabel;html=1;align=center;verticalAlign=middle;resizable=0;points=[];" vertex="1" connectable="0" parent="vyngwg04Lc276Ec5gBA0-31">
          <mxGeometry x="-0.1006" y="-2" relative="1" as="geometry">
            <mxPoint x="24" y="-12" as="offset" />
          </mxGeometry>
        </mxCell>
        <mxCell id="vyngwg04Lc276Ec5gBA0-35" value="" style="endArrow=classic;startArrow=classic;html=1;rounded=0;exitX=1;exitY=0.5;exitDx=0;exitDy=0;entryX=0;entryY=0.5;entryDx=0;entryDy=0;" edge="1" parent="1">
          <mxGeometry width="50" height="50" relative="1" as="geometry">
            <mxPoint x="280" y="400" as="sourcePoint" />
            <mxPoint x="525" y="400" as="targetPoint" />
            <Array as="points">
              <mxPoint x="430" y="400" />
            </Array>
          </mxGeometry>
        </mxCell>
        <mxCell id="vyngwg04Lc276Ec5gBA0-36" value="RPC" style="edgeLabel;html=1;align=center;verticalAlign=middle;resizable=0;points=[];" vertex="1" connectable="0" parent="vyngwg04Lc276Ec5gBA0-35">
          <mxGeometry x="-0.1006" y="-2" relative="1" as="geometry">
            <mxPoint x="24" y="-12" as="offset" />
          </mxGeometry>
        </mxCell>
      </root>
    </mxGraphModel>
  </diagram>
</mxfile>
